<?xml version="1.0" encoding="UTF-8" standalone="no"?><!DOCTYPE svg PUBLIC "-//W3C//DTD SVG 1.1//EN" "http://www.w3.org/Graphics/SVG/1.1/DTD/svg11.dtd"><svg width="100%" height="100%" viewBox="0 0 193 180" version="1.1" xmlns="http://www.w3.org/2000/svg" xmlns:xlink="http://www.w3.org/1999/xlink" xml:space="preserve" xmlns:serif="http://www.serif.com/" style="fill-rule:evenodd;clip-rule:evenodd;stroke-linecap:round;stroke-linejoin:round;stroke-miterlimit:2;"><g id="ATOUT"><g id="atout-03"><g><path d="M82.765,117.748l2,-26.731" style="fill:none;stroke:#8c8c8c;stroke-width:4px;"/><path d="M109.98,117.748l-2,-26.731" style="fill:none;stroke:#8c8c8c;stroke-width:4px;"/></g><path d="M96.372,2l0,16.334" style="fill:none;stroke:#8c8c8c;stroke-width:4px;"/><path d="M63.074,10.922l8.167,14.146" style="fill:none;stroke:#8c8c8c;stroke-width:4px;"/><path d="M129.67,10.922l-8.166,14.146" style="fill:none;stroke:#8c8c8c;stroke-width:4px;"/><g><g><path d="M135.948,168.382l0,8.88" style="fill:none;stroke:#8c8c8c;stroke-width:4px;stroke-miterlimit:1.5;"/><path d="M156.892,168.081l-20.944,9.181l54.797,0l-12.015,-17.101l12.015,-17.001l-33.853,0" style="fill:none;stroke:#8c8c8c;stroke-width:4px;stroke-miterlimit:1.5;"/></g><g><path d="M56.797,168.382l0,8.88" style="fill:none;stroke:#8c8c8c;stroke-width:4px;stroke-miterlimit:1.5;"/><path d="M35.853,168.081l20.944,9.181l-54.797,0l12.015,-17.101l-12.015,-17.001l33.853,0" style="fill:none;stroke:#8c8c8c;stroke-width:4px;stroke-miterlimit:1.5;"/></g><rect x="35.856" y="133.979" width="121.036" height="34.102" style="fill:none;stroke:#8c8c8c;stroke-width:4px;stroke-miterlimit:1.5;"/></g><path d="M66.772,133.121l0,-8l59.2,0l0,8" style="fill:none;stroke:#8c8c8c;stroke-width:4px;"/><path d="M72.507,123.905l0,-6.157l47.731,0l0,6.157" style="fill:none;stroke:#8c8c8c;stroke-width:4px;"/><path d="M96.372,31.424l8.323,25.613l26.931,0l-21.788,15.83l8.322,25.613l-21.788,-15.83l-21.788,15.83l8.323,-25.613l-21.788,-15.83l26.931,0l8.322,-25.613Z" style="fill:none;stroke:#26a685;stroke-width:4px;stroke-linecap:butt;stroke-miterlimit:1.5;"/></g></g></svg>