<?xml version="1.0" encoding="UTF-8" standalone="no"?><!DOCTYPE svg PUBLIC "-//W3C//DTD SVG 1.1//EN" "http://www.w3.org/Graphics/SVG/1.1/DTD/svg11.dtd"><svg width="100%" height="100%" viewBox="0 0 154 154" version="1.1" xmlns="http://www.w3.org/2000/svg" xmlns:xlink="http://www.w3.org/1999/xlink" xml:space="preserve" xmlns:serif="http://www.serif.com/" style="fill-rule:evenodd;clip-rule:evenodd;stroke-linecap:round;stroke-linejoin:round;stroke-miterlimit:1.5;"><g><circle cx="77" cy="77" r="75" style="fill:none;stroke:#fff;stroke-width:4px;"/><circle cx="78.25" cy="77" r="66.875" style="fill:none;"/><clipPath id="_clip1"><circle cx="78.25" cy="77" r="66.875"/></clipPath><g clip-path="url(#_clip1)"><g><path d="M86.919,107.721l0,7.531c0,5.629 -12.431,10.2 -27.743,10.2c-15.312,0 -27.743,-4.571 -27.743,-10.2l0,-7.531" style="fill:none;stroke:#fff;stroke-width:4px;stroke-miterlimit:2;"/><path d="M86.919,96.751l0,7.531c0,5.629 -12.431,10.2 -27.743,10.2c-15.312,0 -27.743,-4.571 -27.743,-10.2l0,-7.531" style="fill:none;stroke:#fff;stroke-width:4px;stroke-miterlimit:2;"/><path d="M86.919,85.781l0,7.531c0,5.629 -12.431,10.2 -27.743,10.2c-15.312,0 -27.743,-4.571 -27.743,-10.2l0,-7.531" style="fill:none;stroke:#fff;stroke-width:4px;stroke-miterlimit:2;"/><path id="_-" serif:id=" " d="M86.919,70.316l0,10.915c0,5.629 -12.431,10.2 -27.743,10.2c-15.312,0 -27.743,-4.571 -27.743,-10.2l0,-10.915" style="fill:none;stroke:#fff;stroke-width:4px;stroke-miterlimit:2;"/><ellipse cx="59.176" cy="70.316" rx="27.743" ry="10.2" style="fill:none;stroke:#fff;stroke-width:4px;stroke-miterlimit:2;"/><g><circle cx="97.442" cy="58.273" r="27.507" style="fill:url(#_Linear2);stroke:#fff;stroke-width:4px;stroke-miterlimit:2;"/><path d="M101.283,66.708c2.636,0 4.858,-1.042 6.665,-3.125l3.879,3.615c-1.256,1.531 -2.806,2.698 -4.651,3.502c-1.845,0.803 -3.91,1.205 -6.194,1.205c-2.184,0 -4.211,-0.389 -6.081,-1.168c-1.871,-0.778 -3.458,-1.882 -4.764,-3.313c-1.305,-1.431 -2.247,-3.088 -2.824,-4.971l-4.255,0l0,-3.163l3.69,0c-0.025,-0.226 -0.037,-0.565 -0.037,-1.017c0,-0.451 0.012,-0.79 0.037,-1.016l-3.69,0l0,-3.163l4.255,0c0.577,-1.883 1.519,-3.54 2.824,-4.971c1.306,-1.431 2.893,-2.535 4.764,-3.313c1.87,-0.779 3.897,-1.168 6.081,-1.168c2.284,0 4.349,0.402 6.194,1.205c1.845,0.804 3.395,1.958 4.651,3.464l-3.879,3.615c-1.832,-2.058 -4.054,-3.087 -6.665,-3.087c-1.657,0 -3.138,0.376 -4.443,1.129c-1.306,0.753 -2.31,1.795 -3.013,3.126l9.527,0l0,3.163l-10.468,0c-0.025,0.226 -0.038,0.565 -0.038,1.016c0,0.452 0.013,0.791 0.038,1.017l10.468,0l0,3.163l-9.527,0c0.703,1.331 1.707,2.372 3.013,3.126c1.305,0.753 2.786,1.129 4.443,1.129Z" style="fill:#c3ffec;fill-rule:nonzero;"/></g></g></g></g><defs><linearGradient id="_Linear2" x1="0" y1="0" x2="1" y2="0" gradientUnits="userSpaceOnUse" gradientTransform="matrix(55.0143,0,0,55.0143,69.9352,58.2734)"><stop offset="0" style="stop-color:#308487;stop-opacity:1"/><stop offset="1" style="stop-color:#0d8c77;stop-opacity:1"/></linearGradient></defs></svg>