<?xml version="1.0" encoding="UTF-8" standalone="no"?><!DOCTYPE svg PUBLIC "-//W3C//DTD SVG 1.1//EN" "http://www.w3.org/Graphics/SVG/1.1/DTD/svg11.dtd"><svg width="100%" height="100%" viewBox="0 0 154 154" version="1.1" xmlns="http://www.w3.org/2000/svg" xmlns:xlink="http://www.w3.org/1999/xlink" xml:space="preserve" xmlns:serif="http://www.serif.com/" style="fill-rule:evenodd;clip-rule:evenodd;stroke-linecap:round;stroke-linejoin:round;stroke-miterlimit:10;"><g><circle cx="77" cy="77" r="66.875" style="fill:#fff;fill-opacity:0.2;"/><circle cx="77" cy="77" r="75" style="fill:none;"/><clipPath id="_clip1"><circle cx="77" cy="77" r="75"/></clipPath><g clip-path="url(#_clip1)"><circle cx="77" cy="77.125" r="67" style="fill:none;"/><clipPath id="_clip2"><circle cx="77" cy="77.125" r="67"/></clipPath><g clip-path="url(#_clip2)"><g id="Calque-1" serif:id="Calque 1"><g><path d="M66.823,108.071l-2.036,0l0,-18.32l-12.184,4.405l2.007,24.092l7.747,3.371l-1.798,7.187l16.441,21.833l-10.177,-42.568Z" style="fill:#c3ffec;fill-rule:nonzero;"/><path d="M101.397,94.156l-12.184,-4.405l0,18.32l-2.035,0l-10.178,42.568l16.441,-21.833l-1.798,-7.187l7.748,-3.371l2.006,-24.092Z" style="fill:#c3ffec;fill-rule:nonzero;"/></g><path d="M56.755,28.917c-4.932,2.465 -7.998,7.426 -7.998,12.943l0,14.884l2.856,-2.161c1.046,-0.791 2.174,-1.315 3.353,-1.555l1.425,-0.291l0,-8.021l0.508,0l0,0.15l1.926,1.922c2.651,2.654 5.981,4.539 9.626,5.451c1.636,0.41 3.327,0.619 5.026,0.619l0.47,0c1.293,0 2.507,-0.503 3.419,-1.416c0.912,-0.911 1.415,-2.126 1.415,-3.419c0,-2.406 -1.767,-4.407 -4.071,-4.774l0,-0.514c1.841,0.264 3.428,1.474 4.165,3.231l0.345,0.823l3.495,0.874c2.979,0.746 6.05,1.124 9.128,1.124c7.046,0 13.46,-3.242 17.597,-8.894l1.913,-2.614l-3.232,-0.215c-3.133,-0.209 -5.915,-1.974 -7.442,-4.72c-4.656,-8.377 -13.5,-13.581 -23.081,-13.581c-8.063,0 -15.578,3.612 -20.615,9.91l-0.174,0.216l-0.054,0.028Zm45.85,17.632c-1.185,0.65 -2.452,1.198 -3.768,1.628l-1.228,0.401l0,4.162l1.427,0.29c1.175,0.238 2.302,0.761 3.351,1.555l2.856,2.161l0,-11.644l-2.638,1.447Zm-48.594,7.296c-3.142,1.12 -5.254,4.098 -5.254,7.409c0,3.313 2.112,6.29 5.256,7.408l2.378,0.846l0,-16.511l-2.38,0.848Zm43.598,15.667l2.38,-0.849c3.142,-1.12 5.254,-4.097 5.254,-7.407c0,-3.311 -2.112,-6.289 -5.254,-7.409l-2.38,-0.849l0,16.514Zm-40.71,-2.151c0,11.083 9.018,20.1 20.101,20.1c11.084,0 20.101,-9.017 20.101,-20.1l0,-18.587l-2.034,0.291c-1.069,0.153 -2.154,0.231 -3.224,0.231c-3.119,0 -6.232,-0.383 -9.251,-1.138l-3.044,-0.764l-0.395,1.79c-0.22,0.999 -0.714,1.905 -1.427,2.619c-1.008,1.008 -2.351,1.564 -3.779,1.564l-0.47,0c-1.74,0 -3.472,-0.213 -5.15,-0.633c-3.093,-0.774 -5.953,-2.254 -8.499,-4.4l-2.929,-2.468l0,21.495Zm20.101,28.242c0.29,0 0.597,0.035 0.911,0.102l0.531,0.115l10.517,-4.205l0,-7.249l-2.594,1.329c-2.944,1.51 -6.095,2.275 -9.365,2.275c-3.27,0 -6.421,-0.765 -9.365,-2.275l-2.594,-1.329l0,7.249l10.517,4.205l0.532,-0.115c0.313,-0.067 0.62,-0.102 0.91,-0.102m0,0.509c-2.104,0 -3.817,1.712 -3.817,3.817c0,2.104 1.713,3.816 3.817,3.816c2.104,0 3.817,-1.712 3.817,-3.816c0,-2.105 -1.713,-3.817 -3.817,-3.817m-11.959,11.583l9.365,-3.747l-1.09,-1.796c-0.426,-0.702 -0.641,-1.45 -0.641,-2.223c0,-0.774 0.215,-1.522 0.641,-2.223l1.09,-1.797l-9.365,-3.747l0,15.533Zm14.553,-11.786l1.09,1.797c0.426,0.701 0.641,1.449 0.641,2.223c0,0.773 -0.215,1.521 -0.641,2.223l-1.09,1.796l9.365,3.747l0,-15.533l-9.365,3.747Zm-12.067,11.338l9.473,42.483l9.474,-42.483l-8.032,-3.209l-0.531,0.114c-0.314,0.068 -0.621,0.102 -0.911,0.102c-0.29,0 -0.597,-0.034 -0.91,-0.102l-0.532,-0.114l-8.031,3.209Zm-16.734,43.137l25.868,0l-9.608,-42.945l-2.52,1.008l0,-18.364l-21.146,5.637c-5.227,1.394 -8.878,6.146 -8.878,11.555l0,43.109l15.775,0l0,-36.461l0.509,0l0,36.461Zm52.923,0l15.775,0l0,-43.109c0,-5.411 -3.651,-10.161 -8.878,-11.553l-21.146,-5.639l0,18.364l-2.519,-1.008l-9.609,42.945l25.868,0l0,-36.461l0.509,0l0,36.461Zm-69.716,0.509l0,-43.618c0,-5.639 3.805,-10.591 9.253,-12.043l21.28,-5.676l0,-5.775l-0.646,-0.534c-3.766,-3.114 -6.309,-7.481 -7.161,-12.295l-0.219,-1.239l-1.241,-0.207c-4.066,-0.679 -7.017,-4.15 -7.017,-8.252l0,-19.394c0,-5.543 3.033,-10.606 7.916,-13.213l0.317,-0.169l0.227,-0.279c5.133,-6.32 12.747,-9.945 20.889,-9.945c9.768,0 18.783,5.304 23.526,13.842c1.533,2.762 4.449,4.478 7.609,4.478l3.284,0l-0.185,0.371c-1.346,2.688 -3.183,5.042 -5.459,6.996l-0.622,0.533l0,16.78c0,4.103 -2.95,7.572 -7.016,8.25l-1.242,0.207l-0.219,1.24c-0.851,4.813 -3.394,9.18 -7.161,12.294l-0.646,0.534l0,5.775l21.279,5.678c5.449,1.452 9.254,6.404 9.254,12.043l0,43.618l-86,0Z" style="fill:#4b4b4b;fill-rule:nonzero;"/><path d="M56.755,28.917c-4.932,2.465 -7.998,7.426 -7.998,12.943l0,14.884l2.856,-2.161c1.046,-0.791 2.174,-1.315 3.353,-1.555l1.425,-0.291l0,-8.021l0.508,0l0,0.15l1.926,1.922c2.651,2.654 5.981,4.539 9.626,5.451c1.636,0.41 3.327,0.619 5.026,0.619l0.47,0c1.293,0 2.507,-0.503 3.419,-1.416c0.912,-0.911 1.415,-2.126 1.415,-3.419c0,-2.406 -1.767,-4.407 -4.071,-4.774l0,-0.514c1.841,0.264 3.428,1.474 4.165,3.231l0.345,0.823l3.495,0.874c2.979,0.746 6.05,1.124 9.128,1.124c7.046,0 13.46,-3.242 17.597,-8.894l1.913,-2.614l-3.232,-0.215c-3.133,-0.209 -5.915,-1.974 -7.442,-4.72c-4.656,-8.377 -13.5,-13.581 -23.081,-13.581c-8.063,0 -15.578,3.612 -20.615,9.91l-0.174,0.216l-0.054,0.028Zm45.85,17.632c-1.185,0.65 -2.452,1.198 -3.768,1.628l-1.228,0.401l0,4.162l1.427,0.29c1.175,0.238 2.302,0.761 3.351,1.555l2.856,2.161l0,-11.644l-2.638,1.447Zm-48.594,7.296c-3.142,1.12 -5.254,4.098 -5.254,7.409c0,3.313 2.112,6.29 5.256,7.408l2.378,0.846l0,-16.511l-2.38,0.848Zm43.598,15.667l2.38,-0.849c3.142,-1.12 5.254,-4.097 5.254,-7.407c0,-3.311 -2.112,-6.289 -5.254,-7.409l-2.38,-0.849l0,16.514Zm-40.71,-2.151c0,11.083 9.018,20.1 20.101,20.1c11.084,0 20.101,-9.017 20.101,-20.1l0,-18.587l-2.034,0.291c-1.069,0.153 -2.154,0.231 -3.224,0.231c-3.119,0 -6.232,-0.383 -9.251,-1.138l-3.044,-0.764l-0.395,1.79c-0.22,0.999 -0.714,1.905 -1.427,2.619c-1.008,1.008 -2.351,1.564 -3.779,1.564l-0.47,0c-1.74,0 -3.472,-0.213 -5.15,-0.633c-3.093,-0.774 -5.953,-2.254 -8.499,-4.4l-2.929,-2.468l0,21.495Zm20.101,28.242c0.29,0 0.597,0.035 0.911,0.102l0.531,0.115l10.517,-4.205l0,-7.249l-2.594,1.329c-2.944,1.51 -6.095,2.275 -9.365,2.275c-3.27,0 -6.421,-0.765 -9.365,-2.275l-2.594,-1.329l0,7.249l10.517,4.205l0.532,-0.115c0.313,-0.067 0.62,-0.102 0.91,-0.102Zm0,0.509c-2.104,0 -3.817,1.712 -3.817,3.817c0,2.104 1.713,3.816 3.817,3.816c2.104,0 3.817,-1.712 3.817,-3.816c0,-2.105 -1.713,-3.817 -3.817,-3.817Zm-11.959,11.583l9.365,-3.747l-1.09,-1.796c-0.426,-0.702 -0.641,-1.45 -0.641,-2.223c0,-0.774 0.215,-1.522 0.641,-2.223l1.09,-1.797l-9.365,-3.747l0,15.533Zm14.553,-11.786l1.09,1.797c0.426,0.701 0.641,1.449 0.641,2.223c0,0.773 -0.215,1.521 -0.641,2.223l-1.09,1.796l9.365,3.747l0,-15.533l-9.365,3.747Zm-12.067,11.338l9.473,42.483l9.474,-42.483l-8.032,-3.209l-0.531,0.114c-0.314,0.068 -0.621,0.102 -0.911,0.102c-0.29,0 -0.597,-0.034 -0.91,-0.102l-0.532,-0.114l-8.031,3.209Zm-16.734,44.137l25.868,0l-9.608,-43.945l-2.52,1.008l0,-18.364l-21.146,5.637c-5.227,1.394 -8.878,6.146 -8.878,11.555l0,44.109l15.775,0l0,-37.461l0.509,0l0,37.461Zm52.923,-1l15.775,1l0,-44.109c0,-5.411 -3.651,-10.161 -8.878,-11.553l-21.146,-5.639l0,18.364l-2.519,-1.008l-9.609,43.945l25.868,-1l0,-36.461l0.509,0l0,36.461Zm-69.716,1.509l0,-44.618c0,-5.639 3.805,-10.591 9.253,-12.043l21.28,-5.676l0,-5.775l-0.646,-0.534c-3.766,-3.114 -6.309,-7.481 -7.161,-12.295l-0.219,-1.239l-1.241,-0.207c-4.066,-0.679 -7.017,-4.15 -7.017,-8.252l0,-19.394c0,-5.543 3.033,-10.606 7.916,-13.213l0.317,-0.169l0.227,-0.279c5.133,-6.32 12.747,-9.945 20.889,-9.945c9.768,0 18.783,5.304 23.526,13.842c1.533,2.762 4.449,4.478 7.609,4.478l3.284,0l-0.185,0.371c-1.346,2.688 -3.183,5.042 -5.459,6.996l-0.622,0.533l0,16.78c0,4.103 -2.95,7.572 -7.016,8.25l-1.242,0.207l-0.219,1.24c-0.851,4.813 -3.394,9.18 -7.161,12.294l-0.646,0.534l0,5.775l21.279,5.678c5.449,1.452 9.254,6.404 9.254,12.043l0,44.618l-86,0Z" style="fill:none;fill-rule:nonzero;stroke:#fff;stroke-width:2.54px;"/></g></g></g><circle cx="77" cy="77" r="75" style="fill:none;stroke:#fff;stroke-width:4px;stroke-linecap:butt;stroke-linejoin:bevel;stroke-miterlimit:1.5;"/></g></svg>