<?xml version="1.0" encoding="UTF-8" standalone="no"?><!DOCTYPE svg PUBLIC "-//W3C//DTD SVG 1.1//EN" "http://www.w3.org/Graphics/SVG/1.1/DTD/svg11.dtd"><svg width="100%" height="100%" viewBox="0 0 154 154" version="1.1" xmlns="http://www.w3.org/2000/svg" xmlns:xlink="http://www.w3.org/1999/xlink" xml:space="preserve" xmlns:serif="http://www.serif.com/" style="fill-rule:evenodd;clip-rule:evenodd;stroke-linecap:round;stroke-linejoin:round;stroke-miterlimit:1.5;"><g><circle cx="77" cy="77" r="75" style="fill:none;stroke:#fff;stroke-width:4px;"/><circle cx="77" cy="77" r="66.875" style="fill:#fff;fill-opacity:0.2;"/><circle cx="77" cy="77" r="66.875" style="fill:none;"/><clipPath id="_clip1"><circle cx="77" cy="77" r="66.875"/></clipPath><g clip-path="url(#_clip1)"><g><g><path d="M115.99,59.056l1.5,4.615l4.852,0l-3.926,2.852l1.5,4.615l-3.926,-2.852l-3.926,2.852l1.5,-4.615l-3.926,-2.852l4.853,0l1.499,-4.615Z" style="fill:#fff;stroke:#fff;stroke-width:2px;stroke-linecap:butt;"/><path d="M101.742,35.623l1.5,4.615l4.852,0l-3.926,2.852l1.5,4.615l-3.926,-2.852l-3.925,2.852l1.499,-4.615l-3.926,-2.852l4.853,0l1.499,-4.615Z" style="fill:#fff;stroke:#fff;stroke-width:2px;stroke-linecap:butt;"/><path d="M76.756,25.785l1.5,4.615l4.852,0l-3.926,2.852l1.5,4.615l-3.926,-2.852l-3.926,2.852l1.5,-4.615l-3.926,-2.852l4.853,0l1.499,-4.615Z" style="fill:#fff;stroke:#fff;stroke-width:2px;stroke-linecap:butt;"/><path d="M37.752,59.141l1.5,4.615l4.852,0l-3.926,2.852l1.5,4.615l-3.926,-2.852l-3.926,2.852l1.5,-4.615l-3.926,-2.852l4.853,0l1.499,-4.615Z" style="fill:#fff;stroke:#fff;stroke-width:2px;stroke-linecap:butt;"/><path d="M52,35.581l1.499,4.614l4.853,0l-3.926,2.853l1.5,4.615l-3.926,-2.853l-3.926,2.853l1.5,-4.615l-3.926,-2.853l4.853,0l1.499,-4.614Z" style="fill:#fff;stroke:#fff;stroke-width:2px;stroke-linecap:butt;"/></g><g><circle cx="77.001" cy="73.335" r="22.262" style="fill:none;stroke:#fff;stroke-width:3.56px;"/><g><path d="M95.959,97.298l0,10.146" style="fill:none;stroke:#fff;stroke-width:3.56px;"/><path d="M105.992,101.184l-10.033,6.26l31.041,0l-5.756,-11.66l5.756,-11.592l-21.008,0" style="fill:url(#_Linear2);stroke:#fff;stroke-width:3.56px;"/></g><g><path d="M58.041,97.298l0,10.146" style="fill:none;stroke:#fff;stroke-width:3.56px;"/><path d="M48.008,101.184l10.033,6.26l-31.041,0l5.756,-11.66l-5.756,-11.592l21.008,0" style="fill:url(#_Linear3);stroke:#fff;stroke-width:3.56px;"/></g><rect x="48.009" y="77.933" width="57.983" height="23.252" style="fill:url(#_Linear4);stroke:#fff;stroke-width:3.56px;"/></g><g><path d="M69.832,89.126l2.635,0l0,5.058c-0.676,0.51 -1.46,0.902 -2.351,1.175c-0.89,0.273 -1.786,0.41 -2.689,0.41c-1.294,0 -2.458,-0.276 -3.491,-0.829c-1.033,-0.552 -1.843,-1.317 -2.431,-2.297c-0.587,-0.98 -0.881,-2.087 -0.881,-3.322c0,-1.234 0.294,-2.342 0.881,-3.321c0.588,-0.98 1.404,-1.745 2.449,-2.298c1.045,-0.552 2.221,-0.828 3.527,-0.828c1.092,0 2.083,0.184 2.974,0.552c0.89,0.368 1.638,0.903 2.244,1.603l-1.852,1.71c-0.891,-0.938 -1.965,-1.407 -3.224,-1.407c-0.795,0 -1.502,0.166 -2.119,0.499c-0.618,0.332 -1.099,0.801 -1.443,1.407c-0.344,0.605 -0.516,1.3 -0.516,2.083c0,0.772 0.172,1.461 0.516,2.066c0.344,0.606 0.822,1.078 1.434,1.416c0.611,0.339 1.309,0.508 2.092,0.508c0.832,0 1.58,-0.178 2.245,-0.534l0,-3.651Z" style="fill:#c3ffec;fill-rule:nonzero;"/><rect x="74.587" y="89.428" width="5.04" height="2.226" style="fill:#c3ffec;fill-rule:nonzero;"/><path d="M90.509,89.126l2.636,0l0,5.058c-0.677,0.51 -1.461,0.902 -2.351,1.175c-0.891,0.273 -1.787,0.41 -2.69,0.41c-1.294,0 -2.457,-0.276 -3.49,-0.829c-1.033,-0.552 -1.844,-1.317 -2.431,-2.297c-0.588,-0.98 -0.882,-2.087 -0.882,-3.322c0,-1.234 0.294,-2.342 0.882,-3.321c0.587,-0.98 1.404,-1.745 2.449,-2.298c1.044,-0.552 2.22,-0.828 3.526,-0.828c1.092,0 2.084,0.184 2.974,0.552c0.891,0.368 1.639,0.903 2.244,1.603l-1.852,1.71c-0.891,-0.938 -1.965,-1.407 -3.224,-1.407c-0.795,0 -1.502,0.166 -2.119,0.499c-0.617,0.332 -1.098,0.801 -1.443,1.407c-0.344,0.605 -0.516,1.3 -0.516,2.083c0,0.772 0.172,1.461 0.516,2.066c0.345,0.606 0.823,1.078 1.434,1.416c0.612,0.339 1.309,0.508 2.093,0.508c0.831,0 1.579,-0.178 2.244,-0.534l0,-3.651Z" style="fill:#c3ffec;fill-rule:nonzero;"/></g></g></g></g><defs><linearGradient id="_Linear2" x1="0" y1="0" x2="1" y2="0" gradientUnits="userSpaceOnUse" gradientTransform="matrix(31.0411,0,0,3.31086,-6686.38,-1503.6)"><stop offset="0" style="stop-color:#308487;stop-opacity:1"/><stop offset="1" style="stop-color:#0d8c77;stop-opacity:1"/></linearGradient><linearGradient id="_Linear3" x1="0" y1="0" x2="1" y2="0" gradientUnits="userSpaceOnUse" gradientTransform="matrix(-31.0411,0,0,3.31086,6840.38,-1503.6)"><stop offset="0" style="stop-color:#308487;stop-opacity:1"/><stop offset="1" style="stop-color:#0d8c77;stop-opacity:1"/></linearGradient><linearGradient id="_Linear4" x1="0" y1="0" x2="1" y2="0" gradientUnits="userSpaceOnUse" gradientTransform="matrix(57.9828,0,0,23.2517,48.0093,89.5585)"><stop offset="0" style="stop-color:#308487;stop-opacity:1"/><stop offset="1" style="stop-color:#0d8c77;stop-opacity:1"/></linearGradient></defs></svg>