<?xml version="1.0" encoding="UTF-8" standalone="no"?><!DOCTYPE svg PUBLIC "-//W3C//DTD SVG 1.1//EN" "http://www.w3.org/Graphics/SVG/1.1/DTD/svg11.dtd"><svg width="100%" height="100%" viewBox="0 0 154 154" version="1.1" xmlns="http://www.w3.org/2000/svg" xmlns:xlink="http://www.w3.org/1999/xlink" xml:space="preserve" xmlns:serif="http://www.serif.com/" style="fill-rule:evenodd;clip-rule:evenodd;stroke-linecap:round;stroke-linejoin:round;stroke-miterlimit:1.5;"><g><circle cx="77" cy="77" r="75" style="fill:none;stroke:#fff;stroke-width:4px;"/><circle cx="77" cy="77" r="66.875" style="fill:#fff;fill-opacity:0.2;"/><circle cx="77" cy="77" r="66.875" style="fill:none;"/><clipPath id="_clip1"><circle cx="77" cy="77" r="66.875"/></clipPath><g clip-path="url(#_clip1)"><g><g><path d="M115.99,59.056l1.5,4.615l4.852,0l-3.926,2.852l1.5,4.615l-3.926,-2.852l-3.926,2.852l1.5,-4.615l-3.926,-2.852l4.853,0l1.499,-4.615Z" style="fill:#fff;stroke:#fff;stroke-width:2px;stroke-linecap:butt;"/><path d="M101.742,35.623l1.5,4.615l4.852,0l-3.926,2.852l1.5,4.615l-3.926,-2.852l-3.925,2.852l1.499,-4.615l-3.926,-2.852l4.853,0l1.499,-4.615Z" style="fill:#fff;stroke:#fff;stroke-width:2px;stroke-linecap:butt;"/><path d="M76.756,25.785l1.5,4.615l4.852,0l-3.926,2.852l1.5,4.615l-3.926,-2.852l-3.926,2.852l1.5,-4.615l-3.926,-2.852l4.853,0l1.499,-4.615Z" style="fill:#fff;stroke:#fff;stroke-width:2px;stroke-linecap:butt;"/><path d="M37.752,59.141l1.5,4.615l4.852,0l-3.926,2.852l1.5,4.615l-3.926,-2.852l-3.926,2.852l1.5,-4.615l-3.926,-2.852l4.853,0l1.499,-4.615Z" style="fill:#fff;stroke:#fff;stroke-width:2px;stroke-linecap:butt;"/><path d="M52,35.581l1.499,4.614l4.853,0l-3.926,2.853l1.5,4.615l-3.926,-2.853l-3.926,2.853l1.5,-4.615l-3.926,-2.853l4.853,0l1.499,-4.614Z" style="fill:#fff;stroke:#fff;stroke-width:2px;stroke-linecap:butt;"/></g><g><circle cx="77.001" cy="73.335" r="22.262" style="fill:none;stroke:#fff;stroke-width:3.56px;"/><g><path d="M95.959,97.298l0,10.146" style="fill:none;stroke:#fff;stroke-width:3.56px;"/><path d="M105.992,101.184l-10.033,6.26l31.041,0l-5.756,-11.66l5.756,-11.592l-21.008,0" style="fill:url(#_Linear2);stroke:#fff;stroke-width:3.56px;"/></g><g><path d="M58.041,97.298l0,10.146" style="fill:none;stroke:#fff;stroke-width:3.56px;"/><path d="M48.008,101.184l10.033,6.26l-31.041,0l5.756,-11.66l-5.756,-11.592l21.008,0" style="fill:url(#_Linear3);stroke:#fff;stroke-width:3.56px;"/></g><rect x="48.009" y="77.933" width="57.983" height="23.252" style="fill:url(#_Linear4);stroke:#fff;stroke-width:3.56px;"/></g><text x="59.929px" y="95.555px" style="font-family:'Montserrat-Bold', 'Montserrat';font-weight:700;font-size:17.81px;fill:#c3ffec;">G-G</text></g></g></g><defs><linearGradient id="_Linear2" x1="0" y1="0" x2="1" y2="0" gradientUnits="userSpaceOnUse" gradientTransform="matrix(31.0411,0,0,3.31086,-6686.38,-1503.6)"><stop offset="0" style="stop-color:#308487;stop-opacity:1"/><stop offset="1" style="stop-color:#0d8c77;stop-opacity:1"/></linearGradient><linearGradient id="_Linear3" x1="0" y1="0" x2="1" y2="0" gradientUnits="userSpaceOnUse" gradientTransform="matrix(-31.0411,0,0,3.31086,6840.38,-1503.6)"><stop offset="0" style="stop-color:#308487;stop-opacity:1"/><stop offset="1" style="stop-color:#0d8c77;stop-opacity:1"/></linearGradient><linearGradient id="_Linear4" x1="0" y1="0" x2="1" y2="0" gradientUnits="userSpaceOnUse" gradientTransform="matrix(57.9828,0,0,23.2517,48.0093,89.5585)"><stop offset="0" style="stop-color:#308487;stop-opacity:1"/><stop offset="1" style="stop-color:#0d8c77;stop-opacity:1"/></linearGradient></defs></svg>