<?xml version="1.0" encoding="UTF-8" standalone="no"?><!DOCTYPE svg PUBLIC "-//W3C//DTD SVG 1.1//EN" "http://www.w3.org/Graphics/SVG/1.1/DTD/svg11.dtd"><svg width="100%" height="100%" viewBox="0 0 1921 679" version="1.1" xmlns="http://www.w3.org/2000/svg" xmlns:xlink="http://www.w3.org/1999/xlink" xml:space="preserve" xmlns:serif="http://www.serif.com/" style="fill-rule:evenodd;clip-rule:evenodd;stroke-linejoin:round;stroke-miterlimit:2;"><rect id="BG-green-euros" x="0" y="0" width="1921" height="678.463" style="fill:url(#_Linear1);"/><clipPath id="_clip2"><rect x="0" y="0" width="1921" height="678.463"/></clipPath><g clip-path="url(#_clip2)"><g id="_05" serif:id="05" opacity="0.05"><path d="M395.9,365.479c46.474,0 85.644,-18.368 117.511,-55.104l68.382,63.735c-22.13,26.998 -49.461,47.579 -81.992,61.743c-32.531,14.163 -68.935,21.244 -109.212,21.244c-38.506,0 -74.246,-6.86 -107.22,-20.581c-32.974,-13.72 -60.968,-33.195 -83.984,-58.423c-23.015,-25.228 -39.613,-54.44 -49.792,-87.635l-75.021,0l0,-55.768l65.062,0c-0.443,-3.983 -0.664,-9.958 -0.664,-17.925c0,-7.967 0.221,-13.942 0.664,-17.926l-65.062,0l0,-55.768l75.021,0c10.179,-33.195 26.777,-62.406 49.792,-87.635c23.016,-25.228 51.01,-44.702 83.984,-58.423c32.974,-13.721 68.714,-20.581 107.22,-20.581c40.277,0 76.681,7.082 109.212,21.245c32.531,14.163 59.862,34.523 81.992,61.079l-68.382,63.735c-32.31,-36.294 -71.48,-54.441 -117.511,-54.441c-29.211,0 -55.325,6.64 -78.34,19.918c-23.015,13.278 -40.719,31.646 -53.112,55.103l167.967,0l0,55.768l-184.565,0c-0.442,3.984 -0.664,9.959 -0.664,17.926c0,7.967 0.222,13.942 0.664,17.925l184.565,0l0,55.768l-167.967,0c12.393,23.458 30.097,41.826 53.112,55.104c23.015,13.278 49.129,19.917 78.34,19.917Z" style="fill:#ebebeb;fill-rule:nonzero;"/></g><g id="quote" opacity="0.05"><path d="M1420.46,571.799c46.473,0 85.643,-18.368 117.511,-55.104l68.382,63.735c-22.13,26.999 -49.461,47.58 -81.992,61.743c-32.532,14.163 -68.936,21.245 -109.212,21.245c-38.507,0 -74.247,-6.86 -107.221,-20.581c-32.973,-13.721 -60.968,-33.195 -83.983,-58.424c-23.015,-25.228 -39.613,-54.44 -49.793,-87.635l-75.021,0l0,-55.768l65.063,0c-0.443,-3.983 -0.664,-9.958 -0.664,-17.925c0,-7.967 0.221,-13.942 0.664,-17.925l-65.063,0l0,-55.768l75.021,0c10.18,-33.195 26.778,-62.407 49.793,-87.635c23.015,-25.229 51.01,-44.703 83.983,-58.424c32.974,-13.72 68.714,-20.581 107.221,-20.581c40.276,0 76.68,7.082 109.212,21.245c32.531,14.164 59.862,34.523 81.992,61.079l-68.382,63.735c-32.31,-36.293 -71.48,-54.44 -117.511,-54.44c-29.212,0 -55.325,6.639 -78.341,19.917c-23.015,13.278 -40.719,31.646 -53.112,55.104l167.968,0l0,55.768l-184.565,0c-0.443,3.983 -0.664,9.958 -0.664,17.925c0,7.967 0.221,13.942 0.664,17.925l184.565,0l0,55.768l-167.968,0c12.393,23.458 30.097,41.826 53.112,55.104c23.016,13.278 49.129,19.917 78.341,19.917Z" style="fill:#ebebeb;fill-rule:nonzero;"/></g></g><defs><linearGradient id="_Linear1" x1="0" y1="0" x2="1" y2="0" gradientUnits="userSpaceOnUse" gradientTransform="matrix(1921,0,0,678.463,4.26548e-14,339.231)"><stop offset="0" style="stop-color:#004a67;stop-opacity:1"/><stop offset="1" style="stop-color:#009172;stop-opacity:1"/></linearGradient></defs></svg>