<?xml version="1.0" encoding="UTF-8" standalone="no"?><!DOCTYPE svg PUBLIC "-//W3C//DTD SVG 1.1//EN" "http://www.w3.org/Graphics/SVG/1.1/DTD/svg11.dtd"><svg width="100%" height="100%" viewBox="0 0 2102 1000" version="1.1" xmlns="http://www.w3.org/2000/svg" xmlns:xlink="http://www.w3.org/1999/xlink" xml:space="preserve" xmlns:serif="http://www.serif.com/" style="fill-rule:evenodd;clip-rule:evenodd;stroke-linejoin:round;stroke-miterlimit:2;"><g><g id="quote" opacity="0.4"><path d="M216.698,596.209c-66.664,0 -119.795,-24.685 -159.303,-74.12c-38.285,-45.652 -57.394,-101.844 -57.394,-168.508c0,-122.265 103.702,-240.135 311.129,-353.741l29.648,46.286c-70.36,58.072 -105.583,104.927 -105.583,140.74c0,11.151 14.846,22.28 44.45,33.365c44.494,16.049 74.689,31.485 90.781,46.287c32.075,27.199 48.145,69.769 48.145,127.818c0,55.557 -20.356,103.068 -61.133,142.599c-39.53,39.53 -86.429,59.274 -140.74,59.274Z" style="fill:#ebebeb;fill-rule:nonzero;"/><path d="M694.673,596.209c-66.664,0 -119.772,-24.685 -159.303,-74.12c-39.509,-45.652 -59.23,-101.844 -59.23,-168.508c0,-122.265 103.702,-240.135 311.129,-353.741l33.343,46.286c-72.874,58.072 -109.278,104.927 -109.278,140.74c0,11.151 16.026,22.28 48.145,33.365c43.226,16.049 72.874,31.485 88.922,46.287c29.648,27.199 44.45,69.769 44.45,127.818c0,55.557 -18.519,103.068 -55.579,142.599c-39.53,39.53 -87.042,59.274 -142.599,59.274Z" style="fill:#ebebeb;fill-rule:nonzero;"/></g><g id="quote1" serif:id="quote" opacity="0.2"><path d="M1885.04,403.723c66.665,0 119.795,24.685 159.304,74.12c38.284,45.652 57.394,101.844 57.394,168.508c0,122.264 -103.703,240.135 -311.129,353.741l-29.648,-46.286c70.359,-58.072 105.582,-104.927 105.582,-140.741c0,-11.15 -14.846,-22.279 -44.45,-33.364c-44.494,-16.049 -74.688,-31.485 -90.78,-46.287c-32.075,-27.199 -48.146,-69.769 -48.146,-127.818c0,-55.557 20.356,-103.068 61.133,-142.599c39.531,-39.531 86.43,-59.274 140.74,-59.274Z" style="fill:#ebebeb;fill-rule:nonzero;"/><path d="M1407.07,403.723c66.664,0 119.773,24.685 159.303,74.12c39.509,45.652 59.231,101.844 59.231,168.508c0,122.264 -103.703,240.135 -311.129,353.741l-33.343,-46.286c72.873,-58.072 109.277,-104.927 109.277,-140.741c0,-11.15 -16.026,-22.279 -48.145,-33.364c-43.225,-16.049 -72.873,-31.485 -88.922,-46.287c-29.648,-27.199 -44.45,-69.769 -44.45,-127.818c0,-55.557 18.519,-103.068 55.579,-142.599c39.531,-39.531 87.042,-59.274 142.599,-59.274Z" style="fill:#ebebeb;fill-rule:nonzero;"/></g></g></svg>