<?xml version="1.0" encoding="UTF-8" standalone="no"?><!DOCTYPE svg PUBLIC "-//W3C//DTD SVG 1.1//EN" "http://www.w3.org/Graphics/SVG/1.1/DTD/svg11.dtd"><svg width="100%" height="100%" viewBox="0 0 154 154" version="1.1" xmlns="http://www.w3.org/2000/svg" xmlns:xlink="http://www.w3.org/1999/xlink" xml:space="preserve" xmlns:serif="http://www.serif.com/" style="fill-rule:evenodd;clip-rule:evenodd;stroke-linecap:round;stroke-linejoin:round;stroke-miterlimit:1.5;"><g><circle cx="77" cy="77" r="75" style="fill:none;stroke:#fff;stroke-width:4px;"/><circle cx="77" cy="77" r="66.875" style="fill:#fff;fill-opacity:0.2;"/><path d="M119.685,85.893c0.753,0.112 1.315,0.715 1.353,1.493l0,8.819c-0.04,0.812 -0.683,1.46 -1.5,1.5l-35.213,0l6.993,21.411c0.162,0.954 -0.191,1.207 -0.489,1.463c-0.736,0.631 -2.029,0.302 -2.402,-0.673l-7.597,-23.235c-0.259,-0.95 0.414,-1.916 1.426,-1.966l35.782,0l0,-5.819l-35.782,0c-1.6,-0.079 -2.007,-2.901 0,-3l37.282,0c0.049,0.002 0.098,0.005 0.147,0.007Z" style="fill:#fff;"/><path d="M72.047,85.893c1.472,0.219 1.992,2.888 -0.147,2.993l-35.675,0l0,5.819l35.675,0c0.976,0.046 1.699,1.012 1.42,1.982l-7.882,23.235c-0.581,1.472 -3.419,1.062 -2.84,-0.964l7.209,-21.253l-35.229,-0.007c-0.753,-0.112 -1.315,-0.715 -1.353,-1.493l0,-8.819c0.04,-0.812 0.683,-1.46 1.5,-1.5l37.175,0c0.049,0.002 0.098,0.005 0.147,0.007Z" style="fill:#fff;"/><path d="M107.463,118.357c1.571,0.019 2.132,3.185 -0.369,2.995c-1.431,-0.12 -2.056,-3.005 0.369,-2.995Z" style="fill:#c3ffec;"/><path d="M99.783,118.367c1.416,0.25 1.362,0.917 1.323,1.577c-0.044,0.76 -0.713,1.367 -1.497,1.413l-52.741,0c-1.331,-0.078 -1.379,-0.683 -1.477,-1.24c-0.152,-0.86 0.556,-1.706 1.477,-1.76l52.741,0c0.058,0.003 0.116,0.007 0.174,0.01Z" style="fill:#c3ffec;"/><path d="M77.109,77.712c0.716,0.147 1.235,0.739 1.273,1.483l0,39.783c-0.067,1.329 -0.681,1.392 -1.273,1.483c-0.853,0.13 -1.682,-0.596 -1.727,-1.483l0,-39.783c0.045,-0.89 0.794,-1.578 1.727,-1.483Z" style="fill:#c3ffec;"/><circle cx="77" cy="77" r="66.875" style="fill:none;"/><g><path d="M66.03,65.325l0,-16.964c0,-2.215 -0.469,-4.466 -1.318,-6.512c-6.83,-16.463 -32.174,-11.219 -32.174,6.512l0,16.964c-0.483,0.858 -0.76,1.849 -0.76,2.903l0,11.514c0,0.971 0.788,1.758 1.758,1.758l31.496,0c0.971,0 1.758,-0.787 1.758,-1.758l0,-11.514c0,-1.054 -0.276,-2.045 -0.76,-2.903m-29.976,-16.964c0,-1.78 0.35,-3.506 1.041,-5.145c4.448,-10.552 19.93,-10.551 24.379,0c0.691,1.639 1.041,3.365 1.041,5.145l0,14.161c-0.002,-0.001 -0.004,-0.001 -0.005,-0.002c-0.13,-0.037 -0.262,-0.071 -0.397,-0.1c-0.002,-0.001 -0.006,-0.002 -0.009,-0.003c-0.132,-0.028 -0.267,-0.053 -0.403,-0.073c-0.011,-0.001 -0.022,-0.002 -0.033,-0.004c-0.115,-0.017 -0.23,-0.028 -0.347,-0.037c-0.03,-0.003 -0.061,-0.006 -0.091,-0.008c-0.128,-0.008 -0.256,-0.013 -0.386,-0.013l-5.609,0c-0.211,-0.199 -0.413,-0.503 -0.523,-1c1.693,-1.192 3.462,-2.958 4.425,-4.741l0.065,-0.118c0.996,-1.834 2.374,-5.316 1.157,-7.265c-0.625,-1 -1.932,-1.356 -2.841,-2.106c-2.138,-1.765 -5.234,-5.252 -6.693,-7.065c-0.056,-0.071 -0.112,-0.139 -0.163,-0.205c-0.334,-0.42 -0.84,-0.665 -1.377,-0.665l-0.001,0c-0.509,0 -1.011,0.31 -1.376,0.665c-1.539,1.497 -2.797,3.261 -4.269,4.825c-0.793,0.842 -1.631,1.648 -2.521,2.388c-0.814,0.677 -3.229,1.594 -3.174,3.135c0.047,1.317 0.15,2.644 0.441,3.93c0.188,0.832 0.574,1.613 0.981,2.363l0.065,0.118c0.695,1.283 1.676,2.422 2.76,3.399c0.522,0.471 1.839,0.996 1.563,1.685c-0.115,0.301 -0.27,0.508 -0.429,0.657l-5.6,0c-0.13,0 -0.258,0.005 -0.386,0.013c-0.031,0.002 -0.061,0.005 -0.091,0.008c-0.117,0.009 -0.233,0.02 -0.348,0.037c-0.01,0.002 -0.021,0.003 -0.032,0.004c-0.136,0.02 -0.271,0.045 -0.404,0.073c-0.003,0.001 -0.006,0.002 -0.009,0.003c-0.134,0.029 -0.266,0.063 -0.396,0.1c-0.001,0.001 -0.003,0.001 -0.005,0.002l0,-14.161m6.469,6.507l-0.067,-0.124c-0.03,-0.054 -0.058,-0.107 -0.088,-0.16c-0.425,-0.791 -0.746,-1.492 -0.868,-3.491c3.007,-1.927 5.487,-4.772 7.784,-7.464c1.818,2.13 5.094,5.74 7.783,7.464c-0.118,1.945 -0.281,2.408 -0.954,3.651l-0.067,0.123c-1.454,2.684 -5.335,3.392 -4.847,6.736c0.443,3.031 2.251,3.85 4.782,4.711c0.075,0.025 -0.957,1.099 -1.073,1.18c-0.253,0.173 -0.529,0.316 -0.822,0.421c-0.05,0.05 -0.152,0.072 -0.227,0.072c-0.15,0.043 -0.304,0.075 -0.46,0.097c-0.164,0 -0.327,0.034 -0.493,0.034l-7.314,0c-1.26,0 -2.45,-0.699 -3.07,-1.795c0.975,-0.152 2.079,-0.513 3.018,-1.305c0.116,-0.098 0.235,-0.209 0.354,-0.331c0.039,-0.038 0.126,-0.132 0.17,-0.183c0.529,-0.592 0.984,-1.387 1.221,-2.449l0,-0.001c0.024,-0.103 0.044,-0.21 0.063,-0.319c0.045,-0.283 0.083,-0.567 0.099,-0.854c0.13,-2.077 -1.915,-2.576 -3.225,-3.863c-0.652,-0.64 -1.264,-1.347 -1.699,-2.15m20.752,23.117l-27.981,0l0,-9.757c0,-0.541 0.18,-1.039 0.48,-1.444c0.453,-0.612 1.188,-0.987 1.951,-0.987l0.93,0c0.555,3.328 3.579,5.836 6.937,5.836l7.315,0c2.95,0 5.572,-1.891 6.614,-4.627c0.037,-0.103 0.073,-0.206 0.105,-0.312c0.097,-0.29 0.168,-0.595 0.218,-0.897l1,0c1.298,0 2.431,1.067 2.431,2.431l0,9.757" style="fill:#fff;fill-rule:nonzero;"/><path d="M115.832,63.935l-5.88,0l-0.001,-0.521c4.172,-2.119 6.807,-6.362 6.807,-11.12l0,-3.781c1.639,-4.829 0.352,-16.876 -7.752,-15.112c-5.717,-3.965 -14.9,-1.171 -17.299,5.41c-1.348,3.696 -0.872,8.514 0.082,12.195l0,1.288c0,4.758 2.633,9.001 6.806,11.12l-0.001,0.521l-5.881,0c-3.278,0 -5.946,2.668 -5.946,5.946l0,9.861c0,0.971 0.787,1.758 1.758,1.758l31.496,0c0.97,0 1.757,-0.787 1.757,-1.758l0,-9.861c0,-3.278 -2.667,-5.946 -5.946,-5.946m-21.274,-17.736c-0.281,-3.02 -0.216,-6.023 1.946,-8.405c1.941,-2.139 5.229,-3.041 8.041,-2.512c1.464,0.275 1.603,0.913 2.908,1.501c1.08,0.487 2.508,-0.507 3.463,0.313c2.613,2.247 3.666,5.35 2.938,8.726c-0.402,-0.382 -0.785,-0.78 -1.202,-1.148c-0.034,-0.069 -0.184,-0.141 -0.247,-0.204c-0.909,-0.699 -3.39,-1.31 -3.85,-2.289c-0.468,-1.22 -2.118,-1.508 -2.972,-0.519c-0.086,0.1 -0.173,0.196 -0.262,0.289c-1.533,1.611 -3.458,1.91 -5.606,2.036c-0.054,0.003 -0.106,0.009 -0.16,0.012c-0.115,0.009 -0.231,0.02 -0.343,0.032c-0.06,0.008 -0.118,0.015 -0.177,0.023c-0.106,0.015 -0.211,0.031 -0.316,0.05c-0.055,0.009 -0.111,0.019 -0.165,0.029c-0.113,0.023 -0.225,0.048 -0.335,0.074c-0.04,0.01 -0.081,0.019 -0.122,0.03c-0.148,0.037 -0.294,0.079 -0.437,0.125c-0.022,0.007 -0.044,0.015 -0.066,0.023c-0.119,0.039 -0.237,0.08 -0.352,0.124c-0.442,0.177 -0.873,0.379 -1.28,0.627c-0.117,0.071 -0.23,0.144 -0.341,0.218c-0.378,0.248 -0.729,0.542 -1.063,0.845m0.746,6.095l0,-1.181c0.914,-1.981 2.627,-3.626 4.93,-3.626l0.001,0c2.612,0 4.784,-0.706 6.587,-2.149c1.076,0.793 2.409,1.187 3.497,1.964c1.537,1.099 1.623,2.139 2.923,3.439l0,1.553c0,2.608 -1.177,5.447 -3.345,6.994c-0.998,0.711 -3.467,1.261 -3.465,2.996l0.007,2.365c-0.015,0.019 -0.028,0.04 -0.043,0.06l-2.123,3.148l-2.122,-3.148c-0.014,-0.02 -0.029,-0.041 -0.044,-0.06l0.007,-2.365c0.007,-1.735 -2.47,-2.287 -3.465,-2.996c-2.169,-1.546 -3.345,-4.387 -3.345,-6.994m22.959,25.691l-27.981,0l0,-8.104c0,-1.34 1.091,-2.431 2.431,-2.431l7.044,0l3.058,4.533c0.697,1.033 2.218,1.033 2.915,0l3.057,-4.533l7.045,0c1.341,0 2.431,1.091 2.431,2.431l0,8.104" style="fill:#fff;fill-rule:nonzero;"/></g></g></svg>