<?xml version="1.0" encoding="UTF-8" standalone="no"?><!DOCTYPE svg PUBLIC "-//W3C//DTD SVG 1.1//EN" "http://www.w3.org/Graphics/SVG/1.1/DTD/svg11.dtd"><svg width="100%" height="100%" viewBox="0 0 154 154" version="1.1" xmlns="http://www.w3.org/2000/svg" xmlns:xlink="http://www.w3.org/1999/xlink" xml:space="preserve" xmlns:serif="http://www.serif.com/" style="fill-rule:evenodd;clip-rule:evenodd;stroke-linecap:round;stroke-linejoin:round;stroke-miterlimit:1.5;"><g><circle cx="77" cy="77" r="75" style="fill:none;stroke:#fff;stroke-width:4px;"/><circle cx="77" cy="77" r="66.875" style="fill:#fff;fill-opacity:0.2;"/><g><path d="M116.879,106.504l-2.594,0l0,-35.718c0,-0.895 -0.726,-1.621 -1.621,-1.621c-0.895,0 -1.621,0.726 -1.621,1.621l0,35.718l-68.086,0l0,-44.104c0,-3.039 2.472,-5.512 5.512,-5.512l26.316,0c0.895,0 1.621,-0.725 1.621,-1.621c0,-0.895 -0.726,-1.621 -1.621,-1.621l-26.316,0c-4.827,0 -8.754,3.927 -8.754,8.754l0,44.104l-2.594,0c-0.895,0 -1.621,0.726 -1.621,1.621l0,2.107c0,4.559 3.709,8.268 8.268,8.268l66.464,0c4.559,0 8.268,-3.709 8.268,-8.268l0,-2.107c0,-0.895 -0.726,-1.621 -1.621,-1.621Zm-1.621,3.728c0,2.771 -2.255,5.026 -5.026,5.026l-66.464,0c-2.771,0 -5.026,-2.255 -5.026,-5.026l0,-0.486l76.516,0l0,0.486Z" style="fill:#fff;fill-rule:nonzero;"/><path d="M57.716,67.273l-6.267,0c-0.895,0 -1.621,0.726 -1.621,1.622c0,0.895 0.726,1.621 1.621,1.621l1.512,0l0,7.691c0,0.834 -0.678,1.513 -1.512,1.513c-0.834,0 -1.512,-0.679 -1.512,-1.513c0,-0.895 -0.726,-1.621 -1.621,-1.621c-0.895,0 -1.621,0.726 -1.621,1.621c0,2.622 2.133,4.755 4.754,4.755c2.622,0 4.755,-2.133 4.755,-4.755l0,-7.691l1.512,0c0.895,0 1.621,-0.726 1.621,-1.621c0,-0.896 -0.726,-1.622 -1.621,-1.622Z" style="fill:#c3ffec;fill-rule:nonzero;"/><path d="M66.845,67.273c-4.326,0 -7.845,3.52 -7.845,7.845c0,4.326 3.519,7.844 7.845,7.844c4.325,0 7.844,-3.518 7.844,-7.844c0,-4.325 -3.519,-7.845 -7.844,-7.845Zm0,12.447c-2.539,0 -4.603,-2.065 -4.603,-4.602c0,-2.538 2.064,-4.602 4.603,-4.602c2.537,0 4.602,2.064 4.602,4.602c0,2.537 -2.064,4.602 -4.602,4.602Z" style="fill:#c3ffec;fill-rule:nonzero;"/><path d="M86.409,72.137c0,-2.682 -2.182,-4.864 -4.863,-4.864l-3.025,0c-0.895,0 -1.621,0.726 -1.621,1.622l0,12.968c0,0.895 0.726,1.621 1.621,1.621l3.025,0c2.681,0 4.863,-2.181 4.863,-4.863c0,-1.244 -0.47,-2.381 -1.242,-3.242c0.772,-0.861 1.242,-1.998 1.242,-3.242Zm-4.863,8.105l-1.403,0l0,-3.242l1.403,0c0.894,0 1.621,0.727 1.621,1.621c0,0.894 -0.727,1.621 -1.621,1.621Zm0,-6.484l-1.403,0l0,-3.242l1.403,0c0.894,0 1.621,0.727 1.621,1.621c0,0.894 -0.727,1.621 -1.621,1.621Z" style="fill:#c3ffec;fill-rule:nonzero;"/><path d="M84.934,88.334l-30.352,0c-0.894,0 -1.621,0.726 -1.621,1.621c0,0.895 0.727,1.621 1.621,1.621l30.352,0c0.895,0 1.621,-0.726 1.621,-1.621c0,-0.895 -0.726,-1.621 -1.621,-1.621Z" style="fill:#fff;fill-rule:nonzero;"/><path d="M49.463,88.81c-0.302,-0.304 -0.721,-0.475 -1.147,-0.475c-0.427,0 -0.844,0.171 -1.148,0.475c-0.301,0.301 -0.473,0.718 -0.473,1.146c0,0.426 0.172,0.844 0.473,1.146c0.304,0.301 0.72,0.475 1.148,0.475c0.426,0 0.845,-0.174 1.147,-0.475c0.301,-0.303 0.474,-0.72 0.474,-1.146c0,-0.426 -0.173,-0.844 -0.474,-1.146Z" style="fill:#fff;fill-rule:nonzero;"/><path d="M105.684,88.334l-12.491,0c-0.896,0 -1.621,0.726 -1.621,1.621c0,0.895 0.725,1.621 1.621,1.621l12.491,0c0.895,0 1.621,-0.726 1.621,-1.621c0,-0.895 -0.726,-1.621 -1.621,-1.621Z" style="fill:#fff;fill-rule:nonzero;"/><path d="M84.934,96.129l-36.618,0c-0.895,0 -1.621,0.726 -1.621,1.621c0,0.895 0.726,1.621 1.621,1.621l36.618,0c0.895,0 1.621,-0.726 1.621,-1.621c0,-0.895 -0.726,-1.621 -1.621,-1.621Z" style="fill:#fff;fill-rule:nonzero;"/><path d="M105.684,96.129l-12.491,0c-0.896,0 -1.621,0.726 -1.621,1.621c0,0.895 0.725,1.621 1.621,1.621l12.491,0c0.895,0 1.621,-0.726 1.621,-1.621c0,-0.895 -0.726,-1.621 -1.621,-1.621Z" style="fill:#fff;fill-rule:nonzero;"/></g><g><path d="M108.079,26.58c12.658,0.236 23.299,15.012 16.816,27.448c-3.187,6.113 -9.843,10.129 -16.816,10.259c-5.59,0.035 -11.275,0.578 -16.003,-0.809c0,0 -4.964,4.129 -6.822,1.528c-1.151,-1.613 -0.28,-3.895 -0.591,-5.679c0,0 -4.378,-4.254 -5.652,-9.49c-2.646,-10.877 6.325,-23.032 18.392,-23.257c3.559,-0.022 7.118,-0.022 10.676,0Zm-10.424,2.998c-7.233,0.045 -14.104,5.241 -15.757,12.279c-1.296,5.515 0.806,11.503 4.963,15.386c0,0 0.782,2.856 0.794,5.248c0,0 3.115,-2.523 5.429,-1.844c4.486,1.27 9.682,0.641 14.744,0.641c10.691,-0.066 19.806,-12.389 14.495,-22.891c-2.654,-5.246 -8.317,-8.706 -14.281,-8.817c-3.462,-0.022 -6.925,-0.002 -10.387,-0.002Z" style="fill:#fff;"/><path d="M102.662,35.808c-0.361,-0.461 -0.599,-0.921 -0.555,-1.401c0.07,-0.754 0.754,-1.373 1.545,-1.361c1.544,0.082 3.497,2.953 3.851,3.768c0.58,1.332 -1.395,2.949 -2.816,4.5c-1.06,1.07 -3.448,-0.567 -2.211,-2.027l0.382,-0.433c-0.751,0.058 -1.533,0.2 -2.291,0.532c-4.99,2.184 -5.738,10.704 -0.324,13.396c5.82,2.894 14.754,-5.331 8.586,-11.765c0,0 -0.584,-0.797 -0.337,-1.522c0.373,-1.096 1.865,-1.319 2.902,-0.116c3.024,3.506 3.273,9.135 0.528,12.896c-4.011,5.499 -13.741,5.26 -17.346,-0.835c-3.504,-5.924 0.483,-14.949 8.086,-15.632Z" style="fill:#fff;"/></g></g></svg>