<?xml version="1.0" encoding="UTF-8" standalone="no"?><!DOCTYPE svg PUBLIC "-//W3C//DTD SVG 1.1//EN" "http://www.w3.org/Graphics/SVG/1.1/DTD/svg11.dtd"><svg width="100%" height="100%" viewBox="0 0 154 154" version="1.1" xmlns="http://www.w3.org/2000/svg" xmlns:xlink="http://www.w3.org/1999/xlink" xml:space="preserve" xmlns:serif="http://www.serif.com/" style="fill-rule:evenodd;clip-rule:evenodd;stroke-linecap:round;stroke-linejoin:round;stroke-miterlimit:1.5;"><g id="cas-02"><circle cx="77" cy="77" r="75" style="fill:none;stroke:#fff;stroke-width:4px;"/><circle cx="77" cy="77" r="66.875" style="fill:#fff;fill-opacity:0.2;"/><g><path d="M119.561,118.895l-0.059,-0.623c-0.308,-4.27 -3.099,-7.974 -7.117,-9.445l-24.521,-9.472c4.323,-2.775 7.43,-7.284 8.336,-12.538l1.228,0c2.32,0 4.208,-1.887 4.208,-4.208l0,-4.176c0,-2.32 -1.888,-4.208 -4.208,-4.208l-0.957,0l0,-3.861c0.879,-0.073 1.571,-0.821 1.571,-1.704l0,-5.221c5.786,-3.241 11.354,-6.357 16.992,-9.848c1.083,-0.671 -0.472,-1.493 -0.568,-1.542l-36.678,-18.629c-0.486,-0.247 -1.061,-0.247 -1.548,0l-36.678,18.628c-1.223,0.623 -1.225,2.427 0,3.049l16.424,8.341l0,5.241c0,0.86 0.658,1.595 1.508,1.695l0,3.851l-0.956,0c-2.321,0 -4.208,1.888 -4.208,4.208l0,4.175c0,2.321 1.887,4.209 4.208,4.209l1.228,0c0.884,5.133 3.872,9.554 8.041,12.344l-24.228,9.654c-3.993,1.479 -6.767,5.173 -7.077,9.421l-0.062,0.657c-0.097,1.004 0.694,1.872 1.701,1.872l81.718,0c1.007,0 1.797,-0.867 1.702,-1.87m-23.09,-41.251l0.957,0l0,0.001c0.435,0 0.789,0.353 0.789,0.788l0,4.176c0,0.435 -0.354,0.789 -0.789,0.789l-0.957,0l0,-5.754m-38.978,5.754l-0.955,0c-0.436,0 -0.79,-0.354 -0.79,-0.789l0,-4.176c0,-0.435 0.354,-0.788 0.79,-0.788l0.955,0l0,5.753m-1.507,-29.869l0,6.075l-11.874,-6.031l32.902,-16.712l32.903,16.712l-11.875,6.031l0,-6.075c0,-2.252 -4.538,-2.586 -5.344,-2.783c-3.136,-0.767 -6.533,-1.363 -9.73,-1.695c-2.25,-0.229 -2.464,2.954 -0.354,3.401c6.014,1.276 6.119,0.644 12.009,2.344l0,11.447c-6.049,-1.71 -12.717,-0.331 -17.588,3.65c-4.882,-3.989 -11.572,-5.368 -17.629,-3.638l0,-11.459c1.602,-0.462 3.218,-0.888 4.855,-1.205c2.443,-0.473 4.937,-0.652 7.373,-1.161c2.125,-0.443 1.909,-3.532 -0.341,-3.402c-2.51,0.145 -7.309,1.072 -9.885,1.699c-0.779,0.19 -5.422,0.53 -5.422,2.802m4.926,30.11l0,-14.245c3.248,-0.799 6.72,-0.554 9.817,0.694c0.942,0.38 1.851,0.851 2.703,1.403c0.155,0.101 2.539,2.393 3.604,2.393c1.065,0 3.446,-2.291 3.603,-2.393c0.851,-0.552 1.761,-1.023 2.702,-1.403c3.064,-1.234 6.495,-1.487 9.712,-0.721l0,14.272c0,8.405 -6.838,15.243 -15.243,15.243l-1.654,0c-8.405,0 -15.244,-6.838 -15.244,-15.243m-22.828,33.707c0.562,-2.427 2.315,-4.454 4.698,-5.331c0.014,-0.005 0.028,-0.011 0.043,-0.016l10.464,-4.17l3.421,9.517l-18.626,0m22.259,0l-3.875,-10.783l10.11,-4.028l0.872,14.811l-7.107,0m21.907,0l-11.376,0l-0.308,-5.23l6.372,-4.721l5.63,4.545l-0.318,5.406m0.565,-9.6l-4.758,-3.843c-0.606,-0.488 -1.466,-0.506 -2.092,-0.043l-5.626,4.169l-0.371,-6.783c1.937,0.683 4.02,1.056 6.188,1.056l1.654,0c1.867,0 3.67,-0.277 5.372,-0.79l-0.367,6.234m2.86,9.6l0.873,-14.833l10.154,3.922l-3.921,10.911l-7.106,0m10.74,0l3.477,-9.679l11.276,4.355c2.352,0.972 4.15,2.795 4.745,5.324l-19.498,0" style="fill:#fff;fill-rule:nonzero;"/><path d="M111.982,55.459l0,7.861c-1.448,0.655 -2.46,2.111 -2.46,3.801l0,9.865c0,0.945 0.766,1.71 1.71,1.71l4.919,0c0.944,0 1.71,-0.765 1.71,-1.71l0,-9.865c0,-1.69 -1.012,-3.146 -2.46,-3.801l0,-8.378l0,-1.707l-3.419,2.224Zm0.96,11.662c0,-0.407 0.343,-0.75 0.75,-0.75c0.406,0 0.75,0.343 0.75,0.75l0,8.156l-1.5,0l0,-8.156Z" style="fill:#c3ffec;fill-rule:nonzero;"/><path d="M77.087,48.73l-0.073,0c-0.943,0 -1.709,0.765 -1.709,1.71c0,0.944 0.766,1.71 1.709,1.71l0.073,0c0.944,0 1.71,-0.766 1.71,-1.71c0,-0.945 -0.766,-1.71 -1.71,-1.71Z" style="fill:#fff;fill-rule:nonzero;"/></g></g></svg>