<?xml version="1.0" encoding="UTF-8" standalone="no"?><!DOCTYPE svg PUBLIC "-//W3C//DTD SVG 1.1//EN" "http://www.w3.org/Graphics/SVG/1.1/DTD/svg11.dtd"><svg width="100%" height="100%" viewBox="0 0 154 154" version="1.1" xmlns="http://www.w3.org/2000/svg" xmlns:xlink="http://www.w3.org/1999/xlink" xml:space="preserve" xmlns:serif="http://www.serif.com/" style="fill-rule:evenodd;clip-rule:evenodd;stroke-linecap:round;stroke-linejoin:round;stroke-miterlimit:1.5;"><g><circle cx="77" cy="77" r="75" style="fill:none;stroke:#fff;stroke-width:4px;"/><circle cx="77" cy="77" r="66.875" style="fill:#fff;fill-opacity:0.2;"/><g><path d="M59.271,95.407c1.255,-0.634 2.762,-0.161 3.431,1.077l4.743,8.783c0.365,0.677 1.143,1.019 1.89,0.831c0.745,-0.189 1.268,-0.86 1.268,-1.629l0,-12.825c0,-0.927 -0.753,-1.679 -1.68,-1.679c-0.928,0 -1.68,0.752 -1.68,1.679l0,6.18l-1.586,-2.936c-1.539,-2.849 -5.009,-3.939 -7.9,-2.481c-2.474,1.249 -3.748,4.002 -3.098,6.695l3.076,12.746c0.718,2.98 1.999,5.745 3.808,8.22l6.024,8.244c0.329,0.449 0.84,0.688 1.357,0.688c0.344,0 0.691,-0.105 0.99,-0.324c0.749,-0.547 0.913,-1.598 0.365,-2.347l-6.024,-8.243c-1.546,-2.116 -2.641,-4.479 -3.255,-7.025l-3.075,-12.747c-0.283,-1.169 0.271,-2.365 1.346,-2.907Z" style="fill:#fff;fill-rule:nonzero;"/><path d="M97.194,88.247c-0.991,0 -1.924,0.254 -2.737,0.699c-0.825,-2.146 -2.906,-3.675 -5.34,-3.675c-1.05,0 -2.034,0.286 -2.88,0.781c-0.905,-1.968 -2.894,-3.339 -5.199,-3.339c-0.84,0 -1.638,0.184 -2.358,0.511l0,-8.031c0,-3.153 -2.565,-5.718 -5.719,-5.718c-3.153,0 -5.718,2.565 -5.718,5.718l0,2.912c0,0.928 0.752,1.68 1.68,1.68c0.927,0 1.68,-0.752 1.68,-1.68l0,-2.911c0,-1.301 1.057,-2.359 2.358,-2.359c1.301,0 2.359,1.058 2.359,2.359l0,23.701c0,0.928 0.752,1.68 1.68,1.68c0.928,0 1.68,-0.752 1.68,-1.68l0,-10.464c0,-1.301 1.058,-2.358 2.358,-2.358c1.301,0 2.36,1.057 2.36,2.358l0,10.464c0,0.928 0.752,1.68 1.679,1.68c0.929,0 1.68,-0.752 1.68,-1.68l0,-7.905c0,-1.301 1.059,-2.359 2.36,-2.359c1.301,0 2.358,1.058 2.358,2.359l0,7.905c0,0.928 0.753,1.68 1.68,1.68c0.928,0 1.68,-0.752 1.68,-1.68l0,-4.93c0,-1.3 1.058,-2.358 2.359,-2.358c1.301,0 2.359,1.058 2.359,2.358l0,14.174c0,3.776 -0.572,7.519 -1.703,11.122l-2.37,7.556c-0.277,0.885 0.216,1.828 1.101,2.105c0.167,0.053 0.337,0.077 0.503,0.077c0.715,0 1.377,-0.459 1.603,-1.177l2.369,-7.555c1.231,-3.93 1.857,-8.011 1.857,-12.128l0,-14.174c0,-3.153 -2.565,-5.718 -5.719,-5.718Z" style="fill:#fff;fill-rule:nonzero;"/><path d="M119.859,51.907c-0.335,-1.031 -1.209,-1.768 -2.283,-1.924l-5.145,-0.745l-2.302,-4.663c-0.48,-0.972 -1.451,-1.575 -2.535,-1.575l-0.001,0c-1.084,0 -2.056,0.604 -2.535,1.577l-2.3,4.662l-5.144,0.749c-1.073,0.157 -1.947,0.894 -2.282,1.926c-0.336,1.031 -0.061,2.142 0.716,2.898l3.723,3.628l-0.877,5.124c-0.183,1.069 0.248,2.128 1.126,2.765c0.496,0.361 1.075,0.544 1.658,0.544c0.45,0 0.903,-0.109 1.32,-0.329l4.601,-2.42l4.602,2.418c0.96,0.505 2.101,0.421 2.978,-0.216c0.877,-0.638 1.308,-1.697 1.124,-2.766l-0.88,-5.124l3.722,-3.63c0.776,-0.757 1.049,-1.868 0.714,-2.899Zm-6.982,4.319c-0.666,0.65 -0.97,1.586 -0.812,2.503l0.745,4.338l-3.896,-2.047c-0.825,-0.433 -1.808,-0.433 -2.632,0.001l-3.895,2.049l0.743,-4.339c0.156,-0.917 -0.147,-1.853 -0.815,-2.503l-3.152,-3.07l4.356,-0.635c0.921,-0.133 1.717,-0.712 2.129,-1.547l1.946,-3.947l1.949,3.946c0.412,0.835 1.208,1.413 2.13,1.547l4.355,0.631l-3.151,3.073Z" style="fill:#fff;fill-rule:nonzero;"/><path d="M89.264,51.907c-0.335,-1.031 -1.21,-1.768 -2.284,-1.924l-5.145,-0.745l-2.301,-4.663c-0.481,-0.972 -1.452,-1.575 -2.536,-1.575l-0.001,0c-1.084,0 -2.055,0.604 -2.535,1.577l-2.3,4.662l-5.144,0.749c-1.073,0.157 -1.947,0.894 -2.282,1.926c-0.335,1.031 -0.061,2.142 0.716,2.898l3.723,3.628l-0.877,5.124c-0.183,1.069 0.249,2.128 1.126,2.765c0.495,0.361 1.075,0.543 1.659,0.543c0.449,0 0.902,-0.109 1.319,-0.328l4.601,-2.42l4.602,2.418c0.96,0.505 2.101,0.421 2.978,-0.216c0.877,-0.638 1.308,-1.698 1.124,-2.766l-0.88,-5.124l3.722,-3.63c0.776,-0.757 1.05,-1.868 0.715,-2.899Zm-6.982,4.319c-0.667,0.65 -0.971,1.586 -0.813,2.503l0.745,4.338l-3.895,-2.047c-0.825,-0.433 -1.809,-0.433 -2.633,0.001l-3.895,2.049l0.743,-4.339c0.157,-0.917 -0.147,-1.853 -0.814,-2.503l-3.152,-3.07l4.355,-0.635c0.921,-0.133 1.717,-0.712 2.129,-1.547l1.946,-3.948l1.949,3.947c0.413,0.835 1.209,1.413 2.13,1.547l4.356,0.631l-3.151,3.073Z" style="fill:#c3ffec;fill-rule:nonzero;"/><path d="M58.668,51.907c-0.335,-1.031 -1.21,-1.768 -2.283,-1.924l-5.145,-0.745l-2.302,-4.663c-0.48,-0.972 -1.451,-1.575 -2.535,-1.575l-0.001,0c-1.084,0 -2.056,0.604 -2.535,1.577l-2.3,4.662l-5.145,0.749c-1.072,0.157 -1.947,0.894 -2.282,1.926c-0.334,1.031 -0.06,2.141 0.716,2.898l3.724,3.628l-0.878,5.124c-0.182,1.069 0.249,2.128 1.126,2.766c0.496,0.36 1.075,0.543 1.659,0.543c0.45,0 0.902,-0.109 1.319,-0.329l4.602,-2.42l4.602,2.418c0.96,0.504 2.101,0.421 2.977,-0.216c0.878,-0.638 1.308,-1.698 1.125,-2.766l-0.88,-5.124l3.721,-3.63c0.776,-0.757 1.05,-1.868 0.715,-2.899Zm-6.982,4.319c-0.667,0.65 -0.97,1.586 -0.813,2.503l0.745,4.338l-3.895,-2.047c-0.824,-0.433 -1.809,-0.433 -2.633,0.001l-3.894,2.049l0.742,-4.338c0.158,-0.918 -0.147,-1.854 -0.814,-2.503l-3.152,-3.071l4.356,-0.635c0.921,-0.133 1.716,-0.712 2.128,-1.547l1.947,-3.948l1.949,3.947c0.412,0.835 1.208,1.413 2.129,1.547l4.356,0.631l-3.151,3.073Z" style="fill:#fff;fill-rule:nonzero;"/><path d="M70.11,83.838c-0.312,-0.312 -0.745,-0.492 -1.187,-0.492c-0.442,0 -0.875,0.18 -1.188,0.492c-0.313,0.313 -0.492,0.746 -0.492,1.187c0,0.442 0.179,0.876 0.492,1.188c0.313,0.313 0.746,0.492 1.188,0.492c0.442,0 0.875,-0.179 1.187,-0.492c0.312,-0.312 0.493,-0.746 0.493,-1.188c0,-0.441 -0.181,-0.874 -0.493,-1.187Z" style="fill:#fff;fill-rule:nonzero;"/></g></g></svg>