<?xml version="1.0" encoding="UTF-8" standalone="no"?><!DOCTYPE svg PUBLIC "-//W3C//DTD SVG 1.1//EN" "http://www.w3.org/Graphics/SVG/1.1/DTD/svg11.dtd"><svg width="100%" height="100%" viewBox="0 0 154 154" version="1.1" xmlns="http://www.w3.org/2000/svg" xmlns:xlink="http://www.w3.org/1999/xlink" xml:space="preserve" xmlns:serif="http://www.serif.com/" style="fill-rule:evenodd;clip-rule:evenodd;stroke-linecap:round;stroke-linejoin:round;stroke-miterlimit:1.5;"><g id="cas-01"><circle cx="77" cy="77" r="75" style="fill:none;stroke:#fff;stroke-width:4px;"/><circle cx="77" cy="77" r="66.875" style="fill:#fff;fill-opacity:0.2;"/><circle cx="77" cy="77" r="66.875" style="fill:none;"/><clipPath id="_clip1"><circle cx="77" cy="77" r="66.875"/></clipPath><g clip-path="url(#_clip1)"><g><path d="M42.651,119.466c-0.331,-0.331 -0.789,-0.521 -1.256,-0.521c-0.47,0 -0.927,0.19 -1.257,0.521c-0.333,0.331 -0.521,0.789 -0.521,1.257c0,0.467 0.188,0.925 0.521,1.256c0.33,0.33 0.787,0.521 1.257,0.521c0.467,0 0.925,-0.19 1.256,-0.521c0.33,-0.331 0.521,-0.789 0.521,-1.256c0,-0.468 -0.191,-0.926 -0.521,-1.257Z" style="fill:#fff;fill-rule:nonzero;"/><path d="M97.807,106.906c-0.331,-0.331 -0.789,-0.522 -1.256,-0.522c-0.468,0 -0.926,0.191 -1.256,0.522c-0.332,0.33 -0.522,0.788 -0.522,1.256c0,0.469 0.19,0.926 0.522,1.257c0.33,0.33 0.788,0.52 1.256,0.52c0.467,0 0.925,-0.19 1.256,-0.52c0.33,-0.331 0.521,-0.788 0.521,-1.257c0,-0.468 -0.19,-0.926 -0.521,-1.256Z" style="fill:#fff;fill-rule:nonzero;"/><path d="M116.767,60.225c1.345,-1.35 2.178,-3.212 2.178,-5.264l0,-1.422c0,-4.117 -3.348,-7.465 -7.465,-7.465c-4.116,0 -7.464,3.348 -7.464,7.465l0,1.422c0,2.052 0.833,3.914 2.178,5.265c-2.917,1.602 -5.036,4.485 -5.59,7.887l-8.141,0c-2.94,0 -5.332,2.392 -5.332,5.332c0,0.623 0.108,1.221 0.305,1.778l-20.872,0c0.197,-0.557 0.305,-1.155 0.305,-1.778c0,-2.94 -2.392,-5.332 -5.332,-5.332l-8.141,0c-0.554,-3.402 -2.673,-6.285 -5.59,-7.887c1.345,-1.351 2.178,-3.213 2.178,-5.265l0,-1.422c0,-4.117 -3.348,-7.465 -7.464,-7.465c-4.117,0 -7.465,3.348 -7.465,7.465l0,1.422c0,2.052 0.833,3.914 2.178,5.264c-3.414,1.875 -5.733,5.505 -5.733,9.666l0,19.935c0,5.57 4.531,10.102 10.101,10.102l14.071,0l0,16.973c0,0.721 0.139,1.411 0.388,2.044l-7.024,0c-0.981,0 -1.777,0.796 -1.777,1.778c0,0.981 0.796,1.777 1.777,1.777l63.57,0c0.981,0 1.777,-0.796 1.777,-1.777c0,-0.982 -0.796,-1.778 -1.777,-1.778l-14.666,0c0.249,-0.633 0.388,-1.323 0.388,-2.044l0,-2.044c0,-0.981 -0.796,-1.777 -1.777,-1.777c-0.982,0 -1.778,0.796 -1.778,1.777l0,2.044c0,1.127 -0.917,2.044 -2.044,2.044c-1.126,0 -2.043,-0.917 -2.043,-2.044l0,-22.438c0,-2.769 2.252,-5.022 5.021,-5.022l23.238,0l0,0.385c0,3.611 -2.936,6.547 -6.546,6.547l-15.848,0c-0.982,0 -1.778,0.796 -1.778,1.777l0,2.844c0,0.981 0.796,1.777 1.778,1.777c0.981,0 1.777,-0.796 1.777,-1.777l0,-1.066l14.071,0c5.57,0 10.101,-4.532 10.101,-10.102l0,-19.935c0,-4.161 -2.319,-7.791 -5.733,-9.666Zm-9.197,-6.686c0,-2.156 1.754,-3.91 3.91,-3.91c2.157,0 3.911,1.754 3.911,3.91l0,1.422c0,2.156 -1.754,3.91 -3.911,3.91c-2.156,0 -3.91,-1.754 -3.91,-3.91l0,-1.422Zm-68.961,0c0,-2.156 1.754,-3.91 3.911,-3.91c2.156,0 3.91,1.754 3.91,3.91l0,1.422c0,2.156 -1.754,3.91 -3.91,3.91c-2.157,0 -3.911,-1.754 -3.911,-3.91l0,-1.422Zm-3.554,16.352c0,-4.117 3.348,-7.465 7.465,-7.465c4.116,0 7.464,3.348 7.464,7.465c0,0.981 0.796,1.777 1.778,1.777l9.775,0c0.98,0 1.777,0.797 1.777,1.777c0,0.981 -0.797,1.778 -1.777,1.778l-10.35,0c-2.826,0 -5.411,-1.548 -6.746,-4.039c-0.463,-0.865 -1.54,-1.191 -2.406,-0.727c-0.864,0.463 -1.19,1.541 -0.726,2.406c1.779,3.322 5.075,5.497 8.774,5.861c-0.064,0.183 -0.099,0.381 -0.099,0.587l0,6.576l-14.929,0l0,-15.996Zm21.929,15.996l-3.445,0l0,-6.576c0,-0.186 -0.029,-0.365 -0.081,-0.534l3.526,0c-0.607,1.046 -0.957,2.261 -0.957,3.555c0,1.294 0.349,2.509 0.957,3.555Zm6.33,31.014c0,1.127 -0.917,2.044 -2.043,2.044c-1.127,0 -2.044,-0.917 -2.044,-2.044l0,-18.751c0,-0.981 -0.796,-1.777 -1.778,-1.777l-15.848,0c-3.61,0 -6.546,-2.936 -6.546,-6.547l0,-0.385l23.238,0c2.769,0 5.021,2.253 5.021,5.022l0,22.438Zm8.354,2.044l-5.187,0c0.249,-0.633 0.388,-1.323 0.388,-2.044l0,-22.438c0,-1.874 -0.606,-3.609 -1.63,-5.022l6.429,0l0,29.504Zm7.109,0l-3.554,0l0,-29.504l3.554,0l0,29.504Zm8.742,0l-5.187,0l0,-29.504l6.429,0c-1.024,1.413 -1.63,3.148 -1.63,5.022l0,22.438c0,0.721 0.139,1.411 0.388,2.044Zm3.344,-33.058l-27.726,0c-1.96,0 -3.555,-1.595 -3.555,-3.555c0,-1.96 1.595,-3.555 3.555,-3.555l27.726,0c1.96,0 3.555,1.595 3.555,3.555c0,1.96 -1.595,3.555 -3.555,3.555Zm9.598,-6.576l0,6.576l-3.445,0c0.607,-1.046 0.957,-2.261 0.957,-3.555c0,-1.294 -0.349,-2.509 -0.957,-3.555l3.526,0c-0.052,0.169 -0.081,0.348 -0.081,0.534Zm18.484,6.576l-14.929,0l0,-6.576c0,-0.206 -0.035,-0.404 -0.099,-0.587c3.699,-0.364 6.995,-2.539 8.774,-5.861c0.464,-0.865 0.138,-1.943 -0.726,-2.406c-0.866,-0.464 -1.943,-0.138 -2.406,0.727c-1.335,2.491 -3.92,4.039 -6.746,4.039l-10.35,0c-0.98,0 -1.777,-0.797 -1.777,-1.778c0,-0.98 0.797,-1.777 1.777,-1.777l9.775,0c0.982,0 1.778,-0.796 1.778,-1.777c0,-4.117 3.348,-7.465 7.464,-7.465c4.117,0 7.465,3.348 7.465,7.465l0,15.996Z" style="fill:#fff;fill-rule:nonzero;"/><path d="M89.797,31.5l-25.594,0c-2.94,0 -5.332,2.392 -5.332,5.332l0,17.418c0,2.94 2.392,5.332 5.332,5.332l6.196,0l5.344,5.345c0.347,0.346 0.802,0.52 1.257,0.52c0.455,0 0.91,-0.174 1.257,-0.52l5.344,-5.345l6.196,0c2.94,0 5.332,-2.392 5.332,-5.332l0,-17.418c0,-2.94 -2.392,-5.332 -5.332,-5.332Zm1.777,22.75c0,0.98 -0.797,1.777 -1.777,1.777l-6.932,0c-0.471,0 -0.923,0.187 -1.257,0.521l-4.608,4.609l-4.608,-4.609c-0.334,-0.334 -0.786,-0.521 -1.257,-0.521l-6.932,0c-0.98,0 -1.777,-0.797 -1.777,-1.777l0,-17.418c0,-0.98 0.797,-1.777 1.777,-1.777l25.594,0c0.98,0 1.777,0.797 1.777,1.777l0,17.418Z" style="fill:#fff;fill-rule:nonzero;"/><g><path d="M69.916,49.818c-0.807,0 -1.536,-0.175 -2.189,-0.526c-0.652,-0.35 -1.165,-0.837 -1.538,-1.459c-0.373,-0.622 -0.56,-1.325 -0.56,-2.11c0,-0.784 0.187,-1.487 0.56,-2.109c0.373,-0.623 0.886,-1.109 1.538,-1.46c0.653,-0.35 1.386,-0.526 2.2,-0.526c0.687,0 1.307,0.121 1.861,0.362c0.555,0.242 1.02,0.589 1.397,1.041l-1.176,1.086c-0.536,-0.618 -1.199,-0.928 -1.991,-0.928c-0.49,0 -0.928,0.108 -1.312,0.323c-0.385,0.215 -0.685,0.514 -0.9,0.899c-0.214,0.385 -0.322,0.822 -0.322,1.312c0,0.491 0.108,0.928 0.322,1.313c0.215,0.384 0.515,0.684 0.9,0.899c0.384,0.215 0.822,0.322 1.312,0.322c0.792,0 1.455,-0.313 1.991,-0.939l1.176,1.086c-0.377,0.46 -0.844,0.811 -1.402,1.052c-0.558,0.242 -1.181,0.362 -1.867,0.362Z" style="fill:#c3ffec;fill-rule:nonzero;"/><path d="M76.952,49.818c-0.626,0 -1.231,-0.085 -1.815,-0.254c-0.585,-0.17 -1.054,-0.39 -1.409,-0.662l0.623,-1.38c0.339,0.249 0.742,0.449 1.21,0.599c0.468,0.151 0.935,0.227 1.403,0.227c0.52,0 0.905,-0.078 1.153,-0.232c0.249,-0.155 0.374,-0.36 0.374,-0.617c0,-0.188 -0.074,-0.345 -0.221,-0.469c-0.147,-0.125 -0.335,-0.224 -0.565,-0.3c-0.23,-0.075 -0.542,-0.158 -0.934,-0.249c-0.603,-0.143 -1.097,-0.286 -1.482,-0.43c-0.384,-0.143 -0.714,-0.373 -0.989,-0.69c-0.276,-0.316 -0.413,-0.739 -0.413,-1.267c0,-0.46 0.124,-0.876 0.373,-1.25c0.249,-0.373 0.624,-0.669 1.126,-0.888c0.501,-0.218 1.114,-0.328 1.838,-0.328c0.505,0 0.999,0.061 1.482,0.181c0.482,0.121 0.905,0.294 1.267,0.521l-0.566,1.391c-0.731,-0.415 -1.463,-0.622 -2.194,-0.622c-0.513,0 -0.892,0.083 -1.137,0.249c-0.245,0.166 -0.368,0.384 -0.368,0.656c0,0.271 0.141,0.473 0.424,0.605c0.283,0.132 0.715,0.262 1.295,0.39c0.604,0.144 1.098,0.287 1.482,0.43c0.385,0.143 0.715,0.37 0.99,0.679c0.275,0.309 0.413,0.728 0.413,1.256c0,0.452 -0.126,0.865 -0.379,1.238c-0.253,0.374 -0.632,0.67 -1.137,0.888c-0.505,0.219 -1.12,0.328 -1.844,0.328Z" style="fill:#c3ffec;fill-rule:nonzero;"/><path d="M87.699,48.212l0,1.471l-6.131,0l0,-7.919l5.984,0l0,1.471l-4.163,0l0,1.719l3.676,0l0,1.425l-3.676,0l0,1.833l4.31,0Z" style="fill:#c3ffec;fill-rule:nonzero;"/></g></g></g></g></svg>