<?xml version="1.0" encoding="UTF-8" standalone="no"?><!DOCTYPE svg PUBLIC "-//W3C//DTD SVG 1.1//EN" "http://www.w3.org/Graphics/SVG/1.1/DTD/svg11.dtd"><svg width="100%" height="100%" viewBox="0 0 21 21" version="1.1" xmlns="http://www.w3.org/2000/svg" xmlns:xlink="http://www.w3.org/1999/xlink" xml:space="preserve" xmlns:serif="http://www.serif.com/" style="fill-rule:evenodd;clip-rule:evenodd;stroke-linejoin:round;stroke-miterlimit:2;"><g><rect x="0.398" y="6.687" width="4.139" height="13.371" style="fill:#fff;"/><path d="M2.448,4.936c1.352,0 2.447,-1.107 2.447,-2.469c0,-1.362 -1.095,-2.467 -2.447,-2.467c-1.352,0 -2.448,1.105 -2.448,2.467c0,1.362 1.096,2.469 2.448,2.469" style="fill:#fff;fill-rule:nonzero;"/><path d="M11.154,13.039c0,-1.88 0.865,-3 2.522,-3c1.522,0 2.253,1.076 2.253,3l0,7.019l4.12,0l0,-8.467c0,-3.581 -2.03,-5.313 -4.865,-5.313c-2.837,0 -4.03,2.21 -4.03,2.21l0,-1.801l-3.971,0l0,13.371l3.971,0l0,-7.019Z" style="fill:#fff;fill-rule:nonzero;"/></g></svg>