<?xml version="1.0" encoding="UTF-8" standalone="no"?><!DOCTYPE svg PUBLIC "-//W3C//DTD SVG 1.1//EN" "http://www.w3.org/Graphics/SVG/1.1/DTD/svg11.dtd"><svg width="100%" height="100%" viewBox="0 0 22 18" version="1.1" xmlns="http://www.w3.org/2000/svg" xmlns:xlink="http://www.w3.org/1999/xlink" xml:space="preserve" xmlns:serif="http://www.serif.com/" style="fill-rule:evenodd;clip-rule:evenodd;stroke-linejoin:round;stroke-miterlimit:2;"><path d="M0,15.356c1.935,1.24 4.233,1.964 6.703,1.964c8.117,0 12.704,-6.857 12.428,-13.006c0.853,-0.617 1.595,-1.386 2.181,-2.264c-0.784,0.348 -1.627,0.583 -2.511,0.689c0.903,-0.541 1.596,-1.398 1.922,-2.419c-0.845,0.501 -1.781,0.865 -2.776,1.061c-0.798,-0.85 -1.934,-1.381 -3.193,-1.381c-2.822,0 -4.895,2.634 -4.258,5.369c-3.634,-0.182 -6.856,-1.923 -9.012,-4.569c-1.146,1.966 -0.594,4.538 1.353,5.838c-0.717,-0.022 -1.392,-0.22 -1.981,-0.547c-0.047,2.027 1.404,3.92 3.507,4.343c-0.616,0.168 -1.29,0.206 -1.974,0.075c0.555,1.737 2.17,3.001 4.084,3.037c-1.838,1.441 -4.154,2.084 -6.473,1.81" style="fill:#fff;fill-rule:nonzero;"/></svg>