<?xml version="1.0" encoding="UTF-8" standalone="no"?><!DOCTYPE svg PUBLIC "-//W3C//DTD SVG 1.1//EN" "http://www.w3.org/Graphics/SVG/1.1/DTD/svg11.dtd"><svg width="100%" height="100%" viewBox="0 0 41 41" version="1.1" xmlns="http://www.w3.org/2000/svg" xmlns:xlink="http://www.w3.org/1999/xlink" xml:space="preserve" xmlns:serif="http://www.serif.com/" style="fill-rule:evenodd;clip-rule:evenodd;stroke-linejoin:round;stroke-miterlimit:2;"><rect id="_01-HOMEPAGE" serif:id="01-HOMEPAGE" x="-1336.19" y="-4773.95" width="1920" height="7001.74" style="fill:none;"/><clipPath id="_clip1"><rect x="-1336.19" y="-4773.95" width="1920" height="7001.74"/></clipPath><g clip-path="url(#_clip1)"><g id="_01" serif:id="01"></g><g id="_011" serif:id="01"></g><g id="_02" serif:id="02"></g><g id="_021" serif:id="02"></g><g id="_03" serif:id="03"></g><g id="_031" serif:id="03"></g><g id="_04" serif:id="04"></g><g id="_041" serif:id="04"></g><g id="_042" serif:id="04"></g><g id="_043" serif:id="04"></g><g id="_044" serif:id="04"></g><g id="_045" serif:id="04"></g><g id="_046" serif:id="04"></g><g id="_047" serif:id="04"></g><g id="NEWS"></g><g id="SOLUTIONS"></g><g id="MENU"></g><g id="HEADER"><g id="cameo-HEADERx530"></g><g id="Txt"></g></g><g id="BG-encart"></g><g id="solution-03"></g><g id="solution-02"></g><g id="solution-01"></g><g id="ATOUT"><g><g id="atout-03"></g></g><g><g id="atout-01"></g></g><g><g id="atout-02"></g></g></g><rect id="FONDATEURS" x="-1335.69" y="-459.782" width="1920" height="1296.76" style="fill:none;"/><clipPath id="_clip2"><rect x="-1335.69" y="-459.782" width="1920" height="1296.76"/></clipPath><g clip-path="url(#_clip2)"><rect id="bg-greenx638" x="-1335.69" y="-459.782" width="1920" height="1175.16" style="fill:url(#_Linear3);"/><path d="M333.808,362.761l-1420,0l0,-580l1420,0l0,580Zm-1418,-578l0,575.999l1416,0l0,-575.999l-1416,0Z" style="fill:#fff;"/><g><g><g id="Mode-Isolation" serif:id="Mode Isolation"></g></g><g id="Mode-Isolation1" serif:id="Mode Isolation"><g id="ico-linkedin"></g><g id="ico-twitter"><path d="M33.357,40.5l-25.714,0c-3.946,0 -7.143,-3.198 -7.143,-7.144l0,-25.713c0,-3.946 3.197,-7.143 7.143,-7.143l25.714,0c3.945,0 7.143,3.197 7.143,7.143l0,25.713c0,3.946 -3.198,7.144 -7.143,7.144" style="fill:#fff;fill-opacity:0.5;fill-rule:nonzero;stroke:#fff;stroke-width:1px;"/><path d="M9.844,27.195c1.934,1.241 4.233,1.964 6.702,1.964c8.118,0 12.704,-6.857 12.429,-13.006c0.853,-0.616 1.594,-1.386 2.181,-2.263c-0.785,0.347 -1.627,0.582 -2.511,0.688c0.902,-0.541 1.596,-1.398 1.922,-2.419c-0.845,0.501 -1.781,0.865 -2.777,1.062c-0.797,-0.85 -1.933,-1.382 -3.192,-1.382c-2.822,0 -4.896,2.634 -4.258,5.369c-3.634,-0.182 -6.856,-1.923 -9.012,-4.568c-1.146,1.966 -0.595,4.537 1.353,5.838c-0.717,-0.023 -1.393,-0.221 -1.981,-0.548c-0.047,2.027 1.404,3.92 3.507,4.343c-0.616,0.168 -1.29,0.206 -1.974,0.075c0.555,1.737 2.17,3.001 4.084,3.037c-1.838,1.441 -4.154,2.084 -6.473,1.81" style="fill:#fff;fill-rule:nonzero;"/></g></g></g></g></g><g id="FONDATEURS1" serif:id="FONDATEURS"><g><g id="Mode-Isolation2" serif:id="Mode Isolation"><g id="ico-linkedin1" serif:id="ico-linkedin"></g><g id="ico-twitter1" serif:id="ico-twitter"></g></g></g><g><g id="Mode-Isolation3" serif:id="Mode Isolation"><g id="Mode-Isolation4" serif:id="Mode Isolation"></g></g></g></g><g id="BG-encart1" serif:id="BG-encart"></g><defs><linearGradient id="_Linear3" x1="0" y1="0" x2="1" y2="0" gradientUnits="userSpaceOnUse" gradientTransform="matrix(1714.64,0,0,3664.77,-1236.46,-100.465)"><stop offset="0" style="stop-color:#004a67;stop-opacity:1"/><stop offset="1" style="stop-color:#009172;stop-opacity:1"/></linearGradient></defs></svg>