<?xml version="1.0" encoding="UTF-8" standalone="no"?><!DOCTYPE svg PUBLIC "-//W3C//DTD SVG 1.1//EN" "http://www.w3.org/Graphics/SVG/1.1/DTD/svg11.dtd"><svg width="100%" height="100%" viewBox="0 0 54 73" version="1.1" xmlns="http://www.w3.org/2000/svg" xmlns:xlink="http://www.w3.org/1999/xlink" xml:space="preserve" xmlns:serif="http://www.serif.com/" style="fill-rule:evenodd;clip-rule:evenodd;stroke-linecap:round;stroke-linejoin:round;stroke-miterlimit:10;"><g id="ico-chair"><g id="Calque-1" serif:id="Calque 1"><path d="M5.598,36.98l4.615,0l0,-15.78l-4.615,0l0,15.78Zm38.128,0l4.616,0l0,-15.78l-4.616,0l0,15.78Zm3.662,30.866l-16.626,-12.757l-3.792,2.908l17.609,13.512c0.377,0.289 0.828,0.442 1.303,0.442c0.96,0 1.671,-0.608 1.932,-0.869c0.375,-0.376 0.561,-0.896 0.523,-1.466c0,0 0.066,-0.99 -0.949,-1.77Zm-41.786,1.773c-0.038,0.566 0.148,1.087 0.523,1.462c0.26,0.262 0.971,0.87 1.933,0.87c0.476,0 0.926,-0.153 1.303,-0.442l38.98,-29.911l-7.582,0l-34.208,26.249c-0.872,0.669 -0.95,1.77 -0.95,1.77c-0.038,0.579 0.143,1.085 0.524,1.466c0.563,0.564 1.249,0.874 1.929,0.874c0.473,0 0.925,-0.155 1.308,-0.448l17.608,-13.511l17.608,13.511c0.382,0.294 0.833,0.448 1.307,0.448c0.68,0 1.366,-0.31 1.93,-0.874c0.38,-0.38 0.561,-0.887 0.523,-1.466m-41.787,-1.772l16.626,-12.757l-17.04,-13.075l-0.003,-0.004l17.044,13.078l3.791,-2.909l-13.248,-10.165l-0.007,-0.007l13.256,10.172l13.787,-10.58l-27.456,0l-0.001,-0.001l37.331,0c1.272,0 2.308,-1.035 2.308,-2.308c0,-1.273 -1.036,-2.308 -2.308,-2.308l-11.382,0l4.476,-0.001l0,-15.78l-33.51,0l0,15.78l24.461,0l-31.367,0.001c-1.273,0 -2.308,1.035 -2.308,2.308c0,1.273 1.035,2.308 2.308,2.308l9.816,0l-0.414,0.001l-9.402,0c-1.273,0 -2.309,-1.036 -2.309,-2.309c0,-1.273 1.036,-2.309 2.309,-2.309l2.288,0l0,-15.78l-3.078,0c-0.837,0 -1.519,-0.682 -1.519,-1.52l0,-17.161c0,-0.837 0.682,-1.519 1.519,-1.519l4.478,0l-4.478,0.001c-0.837,0 -1.518,0.681 -1.518,1.518l0,17.161c0,0.837 0.681,1.519 1.518,1.519l48.901,0c0.837,0 1.518,-0.682 1.518,-1.519l0,-17.161c0,-0.837 -0.681,-1.518 -1.518,-1.518l-39.964,0l39.964,-0.001c0.838,0 1.519,0.682 1.519,1.519l0,17.161c0,0.838 -0.681,1.52 -1.519,1.52l-3.077,0l0,15.78l2.288,0c1.273,0 2.308,1.036 2.308,2.309c0,1.273 -1.035,2.309 -2.308,2.309l-2.288,0l-17.58,13.49l16.626,12.757" style="fill:none;stroke:#b2b2b2;stroke-width:2px;"/><path d="M26.97,5.064l1.772,3.772l4.135,0.52l-3.039,2.852l0.782,4.093l-3.65,-2.01l-3.651,2.01l0.783,-4.093l-3.04,-2.852l4.135,-0.52l1.773,-3.772Z" style="fill:none;stroke:#b2b2b2;stroke-width:2px;"/></g></g></svg>