<?xml version="1.0" encoding="UTF-8" standalone="no"?><!DOCTYPE svg PUBLIC "-//W3C//DTD SVG 1.1//EN" "http://www.w3.org/Graphics/SVG/1.1/DTD/svg11.dtd"><svg width="100%" height="100%" viewBox="0 0 48 48" version="1.1" xmlns="http://www.w3.org/2000/svg" xmlns:xlink="http://www.w3.org/1999/xlink" xml:space="preserve" xmlns:serif="http://www.serif.com/" style="fill-rule:evenodd;clip-rule:evenodd;stroke-linejoin:round;stroke-miterlimit:1.41421;"><rect id="_01-HOMEPAGE" serif:id="01-HOMEPAGE" x="-702.671" y="-5066.53" width="1920" height="6658.84" style="fill:none;"/><clipPath id="_clip1"><rect x="-702.671" y="-5066.53" width="1920" height="6658.84"/></clipPath><g clip-path="url(#_clip1)"><g id="PARTENAIRES"><g><g id="_01" serif:id="01"></g><g id="_02" serif:id="02"></g><g id="_03" serif:id="03"></g><g id="_04" serif:id="04"></g></g></g><g id="bg-greenx830"><g><g><g id="donut"></g></g></g><g><g><g><g id="donut1" serif:id="donut"></g></g></g></g><g><g><g><g id="donut2" serif:id="donut"></g></g></g></g></g><g id="FONDATEURS"><rect id="BG" x="-752.671" y="-764" width="1994.34" height="1192.79" style="fill:url(#_Linear2);"/><path d="M1241.67,428.786l-1994.34,0l0,-1192.79l1994.34,0l0,1192.79Zm-1993.34,-1191.79l0,1190.79l1992.34,0l0,-1190.79l-1992.34,0Z" style="fill:#d9d9d9;"/><rect x="-173.955" y="-536" width="330" height="630" style="fill:#fff;"/><path d="M156.045,94l-330,0l0,-630l330,0l0,630Zm-328,-628l0,626l326,0l0,-626l-326,0Z" style="fill:#d9d9d9;"/><g><g id="Calque-1" serif:id="Calque 1"></g></g><g transform="matrix(1,0,0,1,-2197.45,-6936.79)"><text x="2114.13px" y="6686.47px" style="font-family:'Montserrat-Bold', 'Montserrat';font-weight:700;font-size:20px;fill:#4b4b4b;">Jér<tspan x="2146.01px 2158.63px 2179.41px " y="6686.47px 6686.47px 6686.47px ">émy</tspan> Marlin</text><text x="2166.04px" y="6714.47px" style="font-family:'Montserrat-Bold', 'Montserrat';font-weight:700;font-size:20px;fill:#8c8c8c;">CEO</text><text x="2069.28px" y="6752.47px" style="font-family:'Merriweather-Italic', 'Merriweather';font-style:italic;font-size:16px;fill:#4b4b4b;">10 ans d’expérience de fonctions</text><text x="2078.12px" y="6780.47px" style="font-family:'Merriweather-Italic', 'Merriweather';font-style:italic;font-size:16px;fill:#4b4b4b;">sales sur des sujets RH (Santé,</text><text x="2097.55px" y="6808.47px" style="font-family:'Merriweather-Italic', 'Merriweather';font-style:italic;font-size:16px;fill:#4b4b4b;">Qualité de Vie au travail,</text><text x="2067.58px" y="6836.47px" style="font-family:'Merriweather-Italic', 'Merriweather';font-style:italic;font-size:16px;fill:#4b4b4b;">Absentéisme, Protection Sociale)</text><text x="2076.99px" y="6864.47px" style="font-family:'Merriweather-Italic', 'Merriweather';font-style:italic;font-size:16px;fill:#4b4b4b;">auprès de TPE, ETI et Grands-</text><text x="2158.31px" y="6892.47px" style="font-family:'Merriweather-Italic', 'Merriweather';font-style:italic;font-size:16px;fill:#4b4b4b;">Groupes</text></g><g><g id="Mode-Isolation" serif:id="Mode Isolation"><g id="ico-linkedin"></g><g id="ico-twitter"><path d="M38.958,47.427l-30.489,0c-4.678,0 -8.469,-3.792 -8.469,-8.47l0,-30.488c0,-4.678 3.791,-8.469 8.469,-8.469l30.489,0c4.677,0 8.469,3.791 8.469,8.469l0,30.488c0,4.678 -3.792,8.47 -8.469,8.47" style="fill:#b2b2b2;fill-rule:nonzero;"/><path d="M11.079,31.652c2.294,1.471 5.019,2.329 7.947,2.329c9.625,0 15.063,-8.13 14.736,-15.421c1.012,-0.731 1.891,-1.643 2.586,-2.684c-0.93,0.412 -1.929,0.691 -2.977,0.816c1.07,-0.641 1.892,-1.657 2.279,-2.868c-1.002,0.594 -2.112,1.026 -3.292,1.259c-0.946,-1.008 -2.293,-1.638 -3.785,-1.638c-3.346,0 -5.805,3.123 -5.049,6.366c-4.309,-0.216 -8.129,-2.28 -10.685,-5.417c-1.359,2.331 -0.705,5.38 1.604,6.922c-0.85,-0.027 -1.651,-0.261 -2.349,-0.649c-0.056,2.403 1.665,4.648 4.158,5.149c-0.73,0.199 -1.529,0.244 -2.34,0.089c0.658,2.06 2.573,3.558 4.842,3.601c-2.179,1.709 -4.925,2.471 -7.675,2.146" style="fill:#fff;fill-rule:nonzero;"/></g></g></g><g><g id="Mode-Isolation1" serif:id="Mode Isolation"><g id="Mode-Isolation2" serif:id="Mode Isolation"></g></g></g></g><g id="NEWS"></g><g id="SOLUTIONS"><g><g id="ex.01"></g><g id="ex.02"></g><g id="ex.03"></g><g id="ex.04"></g></g></g><g id="MENU"></g><g id="HEADER"><g id="Txt"></g></g><g id="accroche"></g><g id="SIMU"><g><g id="donut3" serif:id="donut"></g></g><g id="BG-encart"></g></g></g><g id="SIMU1" serif:id="SIMU"><g><g id="donut4" serif:id="donut"></g></g></g><g id="SIMU2" serif:id="SIMU"><g><g><g id="donut5" serif:id="donut"></g></g></g></g><g><g><g><g id="donut6" serif:id="donut"></g></g></g><g><g><g><g id="donut7" serif:id="donut"></g></g></g></g><g><g><g><g id="donut8" serif:id="donut"></g></g></g></g></g><g><g><g id="Calque-11" serif:id="Calque 1"></g></g></g><defs><linearGradient id="_Linear2" x1="0" y1="0" x2="1" y2="0" gradientUnits="userSpaceOnUse" gradientTransform="matrix(1994.34,0,0,7222.66,-752.671,-167.607)"><stop offset="0" style="stop-color:#f6f6f6;stop-opacity:1"/><stop offset="0.29" style="stop-color:#ececec;stop-opacity:1"/><stop offset="1" style="stop-color:#fff;stop-opacity:1"/></linearGradient></defs></svg>