<?xml version="1.0" encoding="UTF-8" standalone="no"?><!DOCTYPE svg PUBLIC "-//W3C//DTD SVG 1.1//EN" "http://www.w3.org/Graphics/SVG/1.1/DTD/svg11.dtd"><svg width="100%" height="100%" viewBox="0 0 184 146" version="1.1" xmlns="http://www.w3.org/2000/svg" xmlns:xlink="http://www.w3.org/1999/xlink" xml:space="preserve" xmlns:serif="http://www.serif.com/" style="fill-rule:evenodd;clip-rule:evenodd;stroke-linecap:round;stroke-linejoin:round;stroke-miterlimit:1.5;"><g id="_07-epoka" serif:id="07-epoka"><rect x="1" y="1" width="182" height="144" style="fill:#fff;"/><clipPath id="_clip1"><rect id="logo-epoka" x="27.444" y="54.863" width="129.112" height="36.016"/></clipPath><g clip-path="url(#_clip1)"><path id="LOGO_EPOKA" d="M27.444,54.863l0,35.798l15.008,0l0,-3.275l-11.477,0l0,-13.205l9.491,0l0,-3.275l-9.491,0l0,-12.769l11.477,0l0,-3.274l-15.008,0Zm26.043,0l-7.835,0l0,35.798l3.531,0l0,-14.298l3.752,0c2.98,0 5.077,-0.764 6.511,-2.182c1.435,-1.528 2.097,-3.602 2.097,-6.549l0,-3.71c0.11,-5.894 -2.759,-9.059 -8.056,-9.059m-4.304,3.274l4.304,0c3.2,0 4.525,1.746 4.525,5.566l0,4.038c0,3.82 -1.435,5.348 -5.187,5.348l-3.752,0l0.11,-14.952Zm66.874,32.742l3.531,0l0,-12.988l1.766,-2.728l9.379,15.716l3.752,0l-10.924,-19.099l10.373,-16.699l-3.863,0l-10.483,16.808l0,-16.808l-3.531,0l0,35.798Zm25.932,-10.805l4.304,-18.99l4.304,18.99l-8.608,0Zm-5.738,10.805l3.311,0l1.765,-7.64l9.932,0l1.766,7.64l3.531,0l-8.056,-35.798l-4.304,0l-7.945,35.798Zm-32.002,-35.907l-31.34,-0.109c-2.428,-0.109 -4.745,0.873 -6.29,2.728c-1.434,1.965 -2.097,4.257 -1.986,6.658l0,17.135c-0.111,2.401 0.552,4.693 1.986,6.657c1.545,1.856 3.862,2.838 6.29,2.729l31.34,0c5.297,0 8.387,-3.384 8.387,-9.386l0,-17.135c0,-5.894 -3.09,-9.277 -8.387,-9.277m4.856,9.168l0,17.462c0,4.911 -2.649,5.894 -4.856,5.894l-31.34,0c-3.09,0 -4.745,-1.965 -4.745,-5.894l0,-17.462c0,-3.929 1.655,-5.894 4.745,-5.894l31.34,0c3.973,0 4.856,3.274 4.856,5.894" style="fill-rule:nonzero;"/></g><rect x="1" y="1" width="182" height="144" style="fill:none;stroke:#d9d9d9;stroke-width:0.75px;"/></g></svg>