<?xml version="1.0" encoding="UTF-8" standalone="no"?><!DOCTYPE svg PUBLIC "-//W3C//DTD SVG 1.1//EN" "http://www.w3.org/Graphics/SVG/1.1/DTD/svg11.dtd"><svg width="100%" height="100%" viewBox="0 0 206 208" version="1.1" xmlns="http://www.w3.org/2000/svg" xmlns:xlink="http://www.w3.org/1999/xlink" xml:space="preserve" xmlns:serif="http://www.serif.com/" style="fill-rule:evenodd;clip-rule:evenodd;stroke-linecap:round;stroke-linejoin:bevel;stroke-miterlimit:2;"><g id="ATOUT"><g id="atout-01"><g><path d="M101.985,39.579l0,-37.579" style="fill:none;stroke:#8c8c8c;stroke-width:4px;"/><g><path d="M167.266,100.201l35.798,0" style="fill:none;stroke:#8c8c8c;stroke-width:4px;"/><path d="M149.685,48.497l25.735,-25.735" style="fill:none;stroke:#8c8c8c;stroke-width:4px;"/></g><g><path d="M37.797,100.201l-35.797,0" style="fill:none;stroke:#8c8c8c;stroke-width:4px;"/><path d="M55.378,48.497l-25.734,-25.735" style="fill:none;stroke:#8c8c8c;stroke-width:4px;"/></g></g><path d="M102.532,179.179l0,22.932" style="fill:none;stroke:#8c8c8c;stroke-width:4px;"/><ellipse cx="102.532" cy="86.332" rx="15.734" ry="17.326" style="fill:none;stroke:#26a685;stroke-width:4px;"/><path d="M78.801,205.682c0,0 0.003,-49.339 0.004,-71.809c0,-7.076 -2.339,-13.955 -6.655,-19.564c-7.804,-10.143 -20.391,-26.504 -26.054,-33.863c-1.648,-2.143 -1.363,-5.195 0.654,-6.996c1.1,-0.982 2.547,-1.481 4.018,-1.388c1.47,0.094 2.842,0.774 3.808,1.888c8.008,9.305 26.907,31.127 32.69,36.568c1.982,1.866 8.105,1.01 8.105,1.01l7.063,11.601l7.259,-11.601c0,0 6.122,0.856 8.105,-1.01c5.782,-5.441 24.682,-27.263 32.69,-36.568c0.965,-1.113 2.337,-1.793 3.808,-1.887c1.47,-0.094 2.917,0.406 4.017,1.387l0.001,0c2.017,1.801 2.302,4.853 0.653,6.996c-5.662,7.359 -18.25,23.72 -26.054,33.863c-4.315,5.609 -6.655,12.488 -6.654,19.564c0.001,22.47 0.004,71.809 0.004,71.809" style="fill:none;stroke:#8c8c8c;stroke-width:4px;stroke-linejoin:round;"/></g></g></svg>