<?xml version="1.0" encoding="UTF-8" standalone="no"?><!DOCTYPE svg PUBLIC "-//W3C//DTD SVG 1.1//EN" "http://www.w3.org/Graphics/SVG/1.1/DTD/svg11.dtd"><svg width="100%" height="100%" viewBox="0 0 215 148" version="1.1" xmlns="http://www.w3.org/2000/svg" xmlns:xlink="http://www.w3.org/1999/xlink" xml:space="preserve" xmlns:serif="http://www.serif.com/" style="fill-rule:evenodd;clip-rule:evenodd;stroke-linecap:round;stroke-linejoin:round;stroke-miterlimit:2;"><g id="atout-02"><path d="M128.636,61.48c-28.059,-8.851 -56.119,0.89 -84.179,29.263c-1.255,1.273 -3.295,1.317 -4.604,0.101c-7.262,-6.747 -29.197,-27.126 -36.797,-34.188c-0.678,-0.63 -1.061,-1.515 -1.056,-2.441c0.005,-0.926 0.398,-1.807 1.083,-2.429c35.11,-31.798 70.142,-49.783 104.924,-49.786c34.85,-0.003 69.187,16.343 103.955,49.833c0.64,0.619 1.004,1.469 1.009,2.36c0.005,0.89 -0.349,1.745 -0.983,2.371c-7.029,6.949 -27.543,27.226 -34.538,34.136c-1.297,1.282 -3.388,1.271 -4.671,-0.026c-6.946,-7.005 -13.892,-12.873 -20.837,-17.602" style="fill:none;stroke:#8c8c8c;stroke-width:4px;"/><path d="M108.007,2l0,22.728" style="fill:none;stroke:#8c8c8c;stroke-width:4px;"/><path d="M69.748,9.017l7.681,21.103" style="fill:none;stroke:#8c8c8c;stroke-width:4px;"/><path d="M35.93,28.234l14.609,17.411" style="fill:none;stroke:#8c8c8c;stroke-width:4px;"/><path d="M146.359,8.762l-7.774,21.358" style="fill:none;stroke:#8c8c8c;stroke-width:4px;"/><path d="M180.084,28.234l-14.609,17.411" style="fill:none;stroke:#8c8c8c;stroke-width:4px;"/><path d="M130.674,94.554c4.475,5.35 7.171,12.24 7.171,19.755c0,17.009 -13.809,30.818 -30.818,30.818c-17.009,0 -30.818,-13.809 -30.818,-30.818c0,-17.009 13.809,-30.818 30.818,-30.818c3.872,0 7.579,0.715 10.995,2.022" style="fill:none;stroke:#8c8c8c;stroke-width:4px;stroke-linejoin:bevel;"/><path d="M98.794,109.555c1.636,-2.835 29.372,-35.154 50.002,-59.061c1.003,-1.24 2.793,-1.496 4.102,-0.586c1.31,0.91 1.695,2.677 0.883,4.05c-16.389,27.704 -38.521,65.104 -38.521,65.104c-2.624,4.544 -8.443,6.103 -12.987,3.48c-4.544,-2.624 -6.103,-8.443 -3.479,-12.987Z" style="fill:none;stroke:#26a685;stroke-width:4px;"/></g></svg>