<?xml version="1.0" encoding="UTF-8" standalone="no"?>
<!DOCTYPE svg PUBLIC "-//W3C//DTD SVG 1.1//EN" "http://www.w3.org/Graphics/SVG/1.1/DTD/svg11.dtd">
<svg width="100%" height="100%" viewBox="0 0 2102 1000" version="1.1" xmlns="http://www.w3.org/2000/svg" xmlns:xlink="http://www.w3.org/1999/xlink" xml:space="preserve" xmlns:serif="http://www.serif.com/" style="fill-rule:evenodd;clip-rule:evenodd;stroke-linejoin:round;stroke-miterlimit:1.41421;">
    <g transform="matrix(1,0,0,1,-2293.29,-4396.39)">
        <g transform="matrix(1.00052,0,0,3.05154,2403.04,2080.7)">
            <g id="quote" transform="matrix(5.2447,0,0,12.0765,-581.06,-19378.3)">
                <g opacity="0.5">
                    <g transform="matrix(4.16667,0,0,0.5933,-4.54747e-13,1612.15)">
                        <path d="M31.481,120.504C28.432,120.504 26.002,119.375 24.195,117.114C22.444,115.026 21.57,112.456 21.57,109.407C21.57,103.815 26.313,98.424 35.8,93.228L37.156,95.345C33.938,98.001 32.327,100.144 32.327,101.782C32.327,102.292 33.006,102.801 34.36,103.308C36.395,104.042 37.776,104.748 38.512,105.425C39.979,106.669 40.714,108.616 40.714,111.271C40.714,113.812 39.783,115.985 37.918,117.793C36.11,119.601 33.965,120.504 31.481,120.504Z" style="fill:rgb(235,235,235);fill-rule:nonzero;"/>
                    </g>
                    <g transform="matrix(4.16667,0,0,0.5933,-4.54747e-13,1612.15)">
                        <path d="M53.342,120.504C50.293,120.504 47.864,119.375 46.056,117.114C44.249,115.026 43.347,112.456 43.347,109.407C43.347,103.815 48.09,98.424 57.577,93.228L59.102,95.345C55.769,98.001 54.104,100.144 54.104,101.782C54.104,102.292 54.837,102.801 56.306,103.308C58.283,104.042 59.639,104.748 60.373,105.425C61.729,106.669 62.406,108.616 62.406,111.271C62.406,113.812 61.559,115.985 59.864,117.793C58.056,119.601 55.883,120.504 53.342,120.504Z" style="fill:rgb(235,235,235);fill-rule:nonzero;"/>
                    </g>
                </g>
            </g>
        </g>
        <g transform="matrix(1.00052,0,0,3.05154,2403.04,2080.7)">
            <g id="quote1" serif:id="quote" transform="matrix(-5.2447,-2.1059e-16,4.51072e-15,-12.0765,2462.32,21223.7)">
                <g opacity="0.2">
                    <g transform="matrix(4.16667,0,0,0.5933,-4.54747e-13,1612.15)">
                        <path d="M31.481,120.504C28.432,120.504 26.002,119.375 24.195,117.114C22.444,115.026 21.57,112.456 21.57,109.407C21.57,103.815 26.313,98.424 35.8,93.228L37.156,95.345C33.938,98.001 32.327,100.144 32.327,101.782C32.327,102.292 33.006,102.801 34.36,103.308C36.395,104.042 37.776,104.748 38.512,105.425C39.979,106.669 40.714,108.616 40.714,111.271C40.714,113.812 39.783,115.985 37.918,117.793C36.11,119.601 33.965,120.504 31.481,120.504Z" style="fill:rgb(235,235,235);fill-rule:nonzero;"/>
                    </g>
                    <g transform="matrix(4.16667,0,0,0.5933,-4.54747e-13,1612.15)">
                        <path d="M53.342,120.504C50.293,120.504 47.864,119.375 46.056,117.114C44.249,115.026 43.347,112.456 43.347,109.407C43.347,103.815 48.09,98.424 57.577,93.228L59.102,95.345C55.769,98.001 54.104,100.144 54.104,101.782C54.104,102.292 54.837,102.801 56.306,103.308C58.283,104.042 59.639,104.748 60.373,105.425C61.729,106.669 62.406,108.616 62.406,111.271C62.406,113.812 61.559,115.985 59.864,117.793C58.056,119.601 55.883,120.504 53.342,120.504Z" style="fill:rgb(235,235,235);fill-rule:nonzero;"/>
                    </g>
                </g>
            </g>
        </g>
    </g>
</svg>
