<?xml version="1.0" encoding="UTF-8" standalone="no"?><!DOCTYPE svg PUBLIC "-//W3C//DTD SVG 1.1//EN" "http://www.w3.org/Graphics/SVG/1.1/DTD/svg11.dtd"><svg width="100%" height="100%" viewBox="0 0 154 154" version="1.1" xmlns="http://www.w3.org/2000/svg" xmlns:xlink="http://www.w3.org/1999/xlink" xml:space="preserve" xmlns:serif="http://www.serif.com/" style="fill-rule:evenodd;clip-rule:evenodd;stroke-linecap:round;stroke-linejoin:round;stroke-miterlimit:1.5;"><g><circle cx="77" cy="77" r="75" style="fill:none;stroke:#fff;stroke-width:4px;"/><circle cx="77" cy="77" r="66.875" style="fill:#fff;fill-opacity:0.2;"/><circle cx="77" cy="77" r="66.875" style="fill:none;"/><clipPath id="_clip1"><circle cx="77" cy="77" r="66.875"/></clipPath><g clip-path="url(#_clip1)"><g><path d="M78.227,21.266l3.368,10.36l10.898,0l-8.817,6.403l3.368,10.359l-8.817,-6.402l-8.817,6.402l3.368,-10.359l-8.817,-6.403l10.898,0l3.368,-10.36Z" style="fill:none;stroke:#c3ffec;stroke-width:4px;stroke-linecap:butt;"/><path d="M86.655,98.192c0,0 -8.324,13.318 -9.616,13.217c-1.214,-0.095 -9.694,-13.217 -9.694,-13.217c-1.498,0.702 -3.84,1.896 -5.853,3.394c-1.756,2.342 -18.455,-23.526 -21.85,-28.638c-4.068,-6.125 -13.232,0.411 -11.175,4.427c2.974,5.803 16.025,24.078 20.792,33.459c3.644,7.17 6.616,14.875 7.812,22.828c1.608,10.693 1.838,41.325 1.838,41.325c0.024,0.234 0.211,0.398 0.445,0.398l35.292,0c0.234,0 0.421,-0.164 0.445,-0.398c0,0 0.23,-30.632 1.838,-41.325c1.196,-7.953 4.168,-15.658 7.812,-22.828c4.767,-9.381 17.818,-27.656 20.792,-33.459c2.057,-4.016 -7.107,-10.552 -11.175,-4.427c-3.395,5.112 -20.094,30.98 -21.85,28.638c-2.013,-1.498 -4.355,-2.692 -5.853,-3.394Z" style="fill:none;stroke:#fff;stroke-width:4px;stroke-linecap:butt;stroke-miterlimit:2;"/><path d="M68.313,75.703l0,-0.23c0.423,-9.345 6.844,-10.341 9.574,-10.341l0.653,0c2.73,0 9.151,0.996 9.574,10.341l0,0.192c0.269,2.643 0.231,10.379 -3.307,14.324c-1.576,1.762 -3.729,2.643 -6.536,2.643l-0.115,0c-2.807,-0.038 -4.96,-0.881 -6.537,-2.643c-3.537,-3.906 -3.575,-11.643 -3.306,-14.286Z" style="fill:none;fill-rule:nonzero;stroke:#fff;stroke-width:4px;stroke-linecap:butt;stroke-miterlimit:2;"/></g></g></g></svg>