<?xml version="1.0" encoding="UTF-8" standalone="no"?><!DOCTYPE svg PUBLIC "-//W3C//DTD SVG 1.1//EN" "http://www.w3.org/Graphics/SVG/1.1/DTD/svg11.dtd"><svg width="100%" height="100%" viewBox="0 0 154 154" version="1.1" xmlns="http://www.w3.org/2000/svg" xmlns:xlink="http://www.w3.org/1999/xlink" xml:space="preserve" xmlns:serif="http://www.serif.com/" style="fill-rule:evenodd;clip-rule:evenodd;stroke-linecap:round;stroke-linejoin:round;stroke-miterlimit:1.5;"><g><circle cx="77" cy="77" r="75" style="fill:none;stroke:#fff;stroke-width:4px;"/><circle cx="77" cy="77" r="66.875" style="fill:#fff;fill-opacity:0.2;"/><circle cx="77" cy="77" r="66.875" style="fill:none;"/><clipPath id="_clip1"><circle cx="77" cy="77" r="66.875"/></clipPath><g clip-path="url(#_clip1)"><g><g><path d="M46.404,50.672l4.455,0l0.154,1.421" style="fill:none;stroke:#fff;stroke-width:3px;"/><path d="M51.673,58.433l0.279,2.353l-4.282,0" style="fill:none;stroke:#fff;stroke-width:3px;"/><path d="M92.914,108.908l6.641,5.727l-7.421,0l-7.38,-5.193l2.323,-2.748" style="fill:none;stroke:#fff;stroke-width:3px;"/><path d="M81.649,86.85l-13.569,20.678l-21.868,18.041l-4.92,-6.834l20.227,-17.494l9.97,-20.498" style="fill:none;stroke:#fff;stroke-width:3px;"/><path d="M44.265,122.865l-4.067,5.164l0,5.467l-1.366,0l-1.64,-11.754l1.64,-2.733l2.657,0" style="fill:none;stroke:#fff;stroke-width:3px;"/><path d="M80.714,54.271l0,4.875l-14.548,17.494l12.411,9.567l18.285,3.827l-10.468,16.401l7.927,3.007l13.668,-23.235l-25.148,-13.121" style="fill:none;stroke:#fff;stroke-width:3px;"/><path d="M96.862,49.578l-7.734,-3.28l-33.076,4.374l0,1.512l-4.92,0l-1.802,0.699l0.749,4.623l3.24,1.64l2.733,-2.734l0,-1.621l28.702,-0.605" style="fill:none;stroke:#fff;stroke-width:3px;"/><path d="M24.344,66.716l-7.38,1.093l6.56,7.935l0,6.553l5.74,7.927l3.281,8.518l33.553,-16.445" style="fill:none;stroke:#fff;stroke-width:3px;"/><path d="M19.971,50.862l-28.429,0" style="fill:none;stroke:#fff;stroke-width:3px;"/><path d="M19.971,56.789l-14.214,0" style="fill:none;stroke:#fff;stroke-width:3px;"/><path d="M74.777,57.818l-14.898,2.611" style="fill:none;stroke:#fff;stroke-width:3px;"/><path d="M101.155,57.506l1.093,2.46l-9.02,7.927l-14.651,3.28l2.077,-4.92l10.934,0l7.967,-6.287l0.317,-2.46l1.283,0Z" style="fill:#c3ffec;stroke:#c3ffec;stroke-width:3px;"/><path d="M96.862,49.578l5.386,5.213" style="fill:none;stroke:#fff;stroke-width:3px;"/><path d="M106.517,64.066l-13.289,14.214" style="fill:none;stroke:#fff;stroke-width:3px;"/><path d="M103.406,38.84l10.339,0" style="fill:none;stroke:#fff;stroke-width:3px;"/><path d="M110.175,38.84l-0.546,12.379l-5.127,-1.641" style="fill:none;stroke:#fff;stroke-width:3px;"/><path d="M96.862,49.578l5.386,-3.006l1.914,-7.732l0.34,10.738l-2.254,5.213l7.927,6.815l6.014,0l3.827,-8.747l-3.827,-3.281l2.733,-4.373l4.921,1.367l0,6.287l-4.921,16.674l-13.394,-1.64" style="fill:none;stroke:#fff;stroke-width:3px;"/><path d="M45.119,42.745l3.826,27.061l-18.861,2.734l-4.373,-27.882l19.408,-1.913Z" style="fill:none;stroke:#fff;stroke-width:3px;"/></g></g></g><circle cx="77" cy="77" r="66.875" style="fill:none;"/></g></svg>