<?xml version="1.0" encoding="UTF-8" standalone="no"?><!DOCTYPE svg PUBLIC "-//W3C//DTD SVG 1.1//EN" "http://www.w3.org/Graphics/SVG/1.1/DTD/svg11.dtd"><svg width="100%" height="100%" viewBox="0 0 48 48" version="1.1" xmlns="http://www.w3.org/2000/svg" xmlns:xlink="http://www.w3.org/1999/xlink" xml:space="preserve" xmlns:serif="http://www.serif.com/" style="fill-rule:evenodd;clip-rule:evenodd;stroke-linejoin:round;stroke-miterlimit:1.41421;"><rect id="_01-HOMEPAGE" serif:id="01-HOMEPAGE" x="-637.334" y="-5066.53" width="1920" height="6658.84" style="fill:none;"/><clipPath id="_clip1"><rect x="-637.334" y="-5066.53" width="1920" height="6658.84"/></clipPath><g clip-path="url(#_clip1)"><g id="PARTENAIRES"><g><g id="_01" serif:id="01"></g><g id="_02" serif:id="02"></g><g id="_03" serif:id="03"></g><g id="_04" serif:id="04"></g></g></g><g id="bg-greenx830"><g><g><g id="donut"></g></g></g><g><g><g><g id="donut1" serif:id="donut"></g></g></g></g><g><g><g><g id="donut2" serif:id="donut"></g></g></g></g></g><g id="FONDATEURS"><rect id="BG" x="-687.334" y="-764" width="1994.34" height="1192.79" style="fill:url(#_Linear2);"/><g id="point" transform="matrix(0.707107,0.707107,-0.707107,0.707107,-3614.18,-4624.68)"><text x="5477.36px" y="765.671px" style="font-family:'ArialRoundedMTBold', 'Arial Rounded MT Bold', sans-serif;font-size:21px;fill:url(#_Linear3);">.<tspan x="5492.54px 5507.73px 5522.91px 5538.09px 5553.27px 5568.46px 5583.64px 5598.82px 5614.01px 5629.19px 5644.37px 5659.55px 5674.74px 5689.92px 5705.1px 5720.28px 5735.47px 5750.65px 5765.83px 5781.02px 5796.2px 5811.38px 5826.56px 5841.75px 5856.93px 5872.11px 5887.3px " y="765.671px 765.671px 765.671px 765.671px 765.671px 765.671px 765.671px 765.671px 765.671px 765.671px 765.671px 765.671px 765.671px 765.671px 765.671px 765.671px 765.671px 765.671px 765.671px 765.671px 765.671px 765.671px 765.671px 765.671px 765.671px 765.671px 765.671px ">...........................</tspan></text><text x="5477.36px" y="780.671px" style="font-family:'ArialRoundedMTBold', 'Arial Rounded MT Bold', sans-serif;font-size:21px;fill:url(#_Linear4);">.<tspan x="5492.54px 5507.73px 5522.91px 5538.09px 5553.27px 5568.46px 5583.64px 5598.82px 5614.01px 5629.19px 5644.37px 5659.55px 5674.74px 5689.92px 5705.1px 5720.28px 5735.47px 5750.65px 5765.83px 5781.02px 5796.2px 5811.38px 5826.56px 5841.75px 5856.93px 5872.11px 5887.3px " y="780.671px 780.671px 780.671px 780.671px 780.671px 780.671px 780.671px 780.671px 780.671px 780.671px 780.671px 780.671px 780.671px 780.671px 780.671px 780.671px 780.671px 780.671px 780.671px 780.671px 780.671px 780.671px 780.671px 780.671px 780.671px 780.671px 780.671px ">...........................</tspan></text></g><path d="M1307.01,428.786l-1994.34,0l0,-1192.79l1994.34,0l0,1192.79Zm-1993.34,-1191.79l0,1190.79l1992.34,0l0,-1190.79l-1992.34,0Z" style="fill:#d9d9d9;"/><rect x="-108.618" y="-536" width="330" height="630" style="fill:#fff;"/><path d="M221.382,94l-330,0l0,-630l330,0l0,630Zm-328,-628l0,626l326,0l0,-626l-326,0Z" style="fill:#d9d9d9;"/><g><g id="Calque-1" serif:id="Calque 1"></g></g><g transform="matrix(1,0,0,1,-2132.12,-6936.79)"><text x="2114.13px" y="6686.47px" style="font-family:'Montserrat-Bold', 'Montserrat';font-weight:700;font-size:20px;fill:#4b4b4b;">Jér<tspan x="2146.01px 2158.63px 2179.41px " y="6686.47px 6686.47px 6686.47px ">émy</tspan> Marlin</text><text x="2166.04px" y="6714.47px" style="font-family:'Montserrat-Bold', 'Montserrat';font-weight:700;font-size:20px;fill:#8c8c8c;">CEO</text><text x="2069.28px" y="6752.47px" style="font-family:'Merriweather-Italic', 'Merriweather';font-style:italic;font-size:16px;fill:#4b4b4b;">10 ans d’expérience de fonctions</text><text x="2078.12px" y="6780.47px" style="font-family:'Merriweather-Italic', 'Merriweather';font-style:italic;font-size:16px;fill:#4b4b4b;">sales sur des sujets RH (Santé,</text><text x="2097.55px" y="6808.47px" style="font-family:'Merriweather-Italic', 'Merriweather';font-style:italic;font-size:16px;fill:#4b4b4b;">Qualité de Vie au travail,</text><text x="2067.58px" y="6836.47px" style="font-family:'Merriweather-Italic', 'Merriweather';font-style:italic;font-size:16px;fill:#4b4b4b;">Absentéisme, Protection Sociale)</text><text x="2076.99px" y="6864.47px" style="font-family:'Merriweather-Italic', 'Merriweather';font-style:italic;font-size:16px;fill:#4b4b4b;">auprès de TPE, ETI et Grands-</text><text x="2158.31px" y="6892.47px" style="font-family:'Merriweather-Italic', 'Merriweather';font-style:italic;font-size:16px;fill:#4b4b4b;">Groupes</text></g><g><g id="Mode-Isolation" serif:id="Mode Isolation"><g id="ico-linkedin"><path d="M38.958,47.427l-30.489,0c-4.678,0 -8.469,-3.791 -8.469,-8.469l0,-30.489c0,-4.677 3.791,-8.469 8.469,-8.469l30.489,0c4.677,0 8.469,3.792 8.469,8.469l0,30.489c0,4.678 -3.792,8.469 -8.469,8.469" style="fill:#b2b2b2;fill-rule:nonzero;"/><rect x="12.961" y="18.428" width="4.908" height="15.854" style="fill:#fff;"/><path d="M15.391,16.352c1.603,0 2.902,-1.312 2.902,-2.927c0,-1.615 -1.299,-2.925 -2.902,-2.925c-1.603,0 -2.902,1.31 -2.902,2.925c0,1.615 1.299,2.927 2.902,2.927" style="fill:#fff;fill-rule:nonzero;"/><path d="M25.713,25.96c0,-2.229 1.026,-3.558 2.99,-3.558c1.805,0 2.672,1.276 2.672,3.558l0,8.322l4.885,0l0,-10.039c0,-4.246 -2.407,-6.3 -5.769,-6.3c-3.363,0 -4.778,2.621 -4.778,2.621l0,-2.136l-4.708,0l0,15.854l4.708,0l0,-8.322Z" style="fill:#fff;fill-rule:nonzero;"/></g><g id="ico-twitter"></g></g></g><g><g id="Mode-Isolation1" serif:id="Mode Isolation"><g id="Mode-Isolation2" serif:id="Mode Isolation"></g></g></g></g><g id="NEWS"></g><g id="SOLUTIONS"><g><g id="ex.01"></g><g id="ex.02"></g><g id="ex.03"></g><g id="ex.04"></g></g></g><g id="MENU"></g><g id="HEADER"><g id="Txt"></g></g><g id="accroche"></g><g id="SIMU"><g><g id="donut3" serif:id="donut"></g></g><g id="BG-encart"></g></g></g><g id="SIMU1" serif:id="SIMU"><g><g id="donut4" serif:id="donut"></g></g></g><g id="SIMU2" serif:id="SIMU"><g><g><g id="donut5" serif:id="donut"></g></g></g></g><g><g><g><g id="donut6" serif:id="donut"></g></g></g><g><g><g><g id="donut7" serif:id="donut"></g></g></g></g><g><g><g><g id="donut8" serif:id="donut"></g></g></g></g></g><g><g><g id="Calque-11" serif:id="Calque 1"></g></g></g><defs><linearGradient id="_Linear2" x1="0" y1="0" x2="1" y2="0" gradientUnits="userSpaceOnUse" gradientTransform="matrix(1994.34,0,0,7222.66,-687.334,-167.607)"><stop offset="0" style="stop-color:#f6f6f6;stop-opacity:1"/><stop offset="0.29" style="stop-color:#ececec;stop-opacity:1"/><stop offset="1" style="stop-color:#fff;stop-opacity:1"/></linearGradient><linearGradient id="_Linear3" x1="0" y1="0" x2="1" y2="0" gradientUnits="userSpaceOnUse" gradientTransform="matrix(-3.46522,307.877,-307.877,-3.46522,5632.22,750.382)"><stop offset="0" style="stop-color:#fff;stop-opacity:1"/><stop offset="1" style="stop-color:#fff;stop-opacity:0"/></linearGradient><linearGradient id="_Linear4" x1="0" y1="0" x2="1" y2="0" gradientUnits="userSpaceOnUse" gradientTransform="matrix(-3.46522,307.877,-307.877,-3.46522,5632.22,750.382)"><stop offset="0" style="stop-color:#fff;stop-opacity:1"/><stop offset="1" style="stop-color:#fff;stop-opacity:0"/></linearGradient></defs></svg>