<?xml version="1.0" encoding="UTF-8" standalone="no"?><!DOCTYPE svg PUBLIC "-//W3C//DTD SVG 1.1//EN" "http://www.w3.org/Graphics/SVG/1.1/DTD/svg11.dtd"><svg width="100%" height="100%" viewBox="0 0 41 41" version="1.1" xmlns="http://www.w3.org/2000/svg" xmlns:xlink="http://www.w3.org/1999/xlink" xml:space="preserve" xmlns:serif="http://www.serif.com/" style="fill-rule:evenodd;clip-rule:evenodd;stroke-linejoin:round;stroke-miterlimit:2;"><g id="ico-twitter"><path d="M33.357,40.5l-25.714,0c-3.946,0 -7.143,-3.198 -7.143,-7.144l0,-25.713c0,-3.946 3.197,-7.143 7.143,-7.143l25.714,0c3.945,0 7.143,3.197 7.143,7.143l0,25.713c0,3.946 -3.198,7.144 -7.143,7.144" style="fill:#fff;fill-opacity:0.5;fill-rule:nonzero;stroke:#fff;stroke-width:1px;"/><path d="M9.844,27.195c1.934,1.241 4.233,1.964 6.702,1.964c8.118,0 12.704,-6.857 12.429,-13.006c0.853,-0.616 1.594,-1.386 2.181,-2.263c-0.785,0.347 -1.627,0.582 -2.511,0.688c0.902,-0.541 1.596,-1.398 1.922,-2.419c-0.845,0.501 -1.781,0.865 -2.777,1.062c-0.797,-0.85 -1.933,-1.382 -3.192,-1.382c-2.822,0 -4.896,2.634 -4.258,5.369c-3.634,-0.182 -6.856,-1.923 -9.012,-4.568c-1.146,1.966 -0.595,4.537 1.353,5.838c-0.717,-0.023 -1.393,-0.221 -1.981,-0.548c-0.047,2.027 1.404,3.92 3.507,4.343c-0.616,0.168 -1.29,0.206 -1.974,0.075c0.555,1.737 2.17,3.001 4.084,3.037c-1.838,1.441 -4.154,2.084 -6.473,1.81" style="fill:#fff;fill-rule:nonzero;"/></g></svg>