<?xml version="1.0" encoding="UTF-8" standalone="no"?><!DOCTYPE svg PUBLIC "-//W3C//DTD SVG 1.1//EN" "http://www.w3.org/Graphics/SVG/1.1/DTD/svg11.dtd"><svg width="100%" height="100%" viewBox="0 0 41 41" version="1.1" xmlns="http://www.w3.org/2000/svg" xmlns:xlink="http://www.w3.org/1999/xlink" xml:space="preserve" xmlns:serif="http://www.serif.com/" style="fill-rule:evenodd;clip-rule:evenodd;stroke-linejoin:round;stroke-miterlimit:2;"><g id="ico-linkedin"><path d="M33.357,40.5l-25.714,0c-3.946,0 -7.143,-3.197 -7.143,-7.143l0,-25.714c0,-3.945 3.197,-7.143 7.143,-7.143l25.714,0c3.945,0 7.143,3.198 7.143,7.143l0,25.714c0,3.946 -3.198,7.143 -7.143,7.143" style="fill:#fff;fill-opacity:0.5;fill-rule:nonzero;stroke:#fff;stroke-width:1px;"/><g><rect x="11.431" y="16.043" width="4.139" height="13.371" style="fill:#fff;"/><path d="M13.48,14.291c1.352,0 2.448,-1.106 2.448,-2.469c0,-1.362 -1.096,-2.466 -2.448,-2.466c-1.352,0 -2.447,1.104 -2.447,2.466c0,1.363 1.095,2.469 2.447,2.469" style="fill:#fff;fill-rule:nonzero;"/><path d="M22.187,22.395c0,-1.88 0.865,-3.001 2.521,-3.001c1.523,0 2.254,1.076 2.254,3.001l0,7.019l4.12,0l0,-8.467c0,-3.581 -2.03,-5.314 -4.866,-5.314c-2.836,0 -4.029,2.211 -4.029,2.211l0,-1.802l-3.971,0l0,13.372l3.971,0l0,-7.019Z" style="fill:#fff;fill-rule:nonzero;"/></g></g></svg>