<?xml version="1.0" encoding="UTF-8" standalone="no"?><!DOCTYPE svg PUBLIC "-//W3C//DTD SVG 1.1//EN" "http://www.w3.org/Graphics/SVG/1.1/DTD/svg11.dtd"><svg width="100%" height="100%" viewBox="0 0 124 124" version="1.1" xmlns="http://www.w3.org/2000/svg" xmlns:xlink="http://www.w3.org/1999/xlink" xml:space="preserve" xmlns:serif="http://www.serif.com/" style="fill-rule:evenodd;clip-rule:evenodd;stroke-linecap:round;stroke-linejoin:round;stroke-miterlimit:1.5;"><g><circle cx="62" cy="62" r="60" style="fill:#fff;stroke:#8c8c8c;stroke-width:4px;"/><circle cx="62" cy="62" r="53.5" style="fill:#fff;"/><clipPath id="_clip1"><circle cx="62" cy="62" r="53.5"/></clipPath><g clip-path="url(#_clip1)"><g><path d="M23.963,31.31l0.326,0.058l0.318,0.095l0.306,0.128l0.289,0.162l0.27,0.192l0.246,0.221l8.556,8.556l0.219,0.244l0.19,0.266l0.161,0.285l0.128,0.301l0.095,0.313l0.06,0.322l0.025,0.326l-0.011,0.327l-0.046,0.324l-0.081,0.317l-0.116,0.306l-0.148,0.292l-0.136,0.236l-0.129,0.227l-0.128,0.231l-0.126,0.23l-0.123,0.23l-0.123,0.235l-0.12,0.234l-0.118,0.233l-0.117,0.236l-0.114,0.237l-0.113,0.237l-0.111,0.24l-0.11,0.243l-0.108,0.241l-0.104,0.24l-0.103,0.243l-0.102,0.246l-0.1,0.245l-0.098,0.247l-0.095,0.246l-0.094,0.249l-0.092,0.249l-0.09,0.251l-0.088,0.25l-0.085,0.251l-0.085,0.257l-0.082,0.252l-0.079,0.254l-0.078,0.257l-0.077,0.259l-0.073,0.256l-0.072,0.258l-0.069,0.259l-0.067,0.259l-0.067,0.263l-0.063,0.262l-0.061,0.262l-0.06,0.266l-0.057,0.264l-0.055,0.262l-0.053,0.269l-0.051,0.267l-0.048,0.265l-0.046,0.268l-0.045,0.273l-0.043,0.27l-0.039,0.268l-0.038,0.272l-0.035,0.274l-0.033,0.27l-0.031,0.275l-0.029,0.275l-0.027,0.273l-0.024,0.277l-0.022,0.278l-0.02,0.275l-0.017,0.277l-0.015,0.28l-0.013,0.28l-0.011,0.279l-0.008,0.279l-0.006,0.281l-0.003,0.283l-0.002,0.285l0,0.162l0.002,0.17l0.002,0.174l0.003,0.169l0.004,0.165l0.005,0.169l0.005,0.168l0.007,0.168l0.007,0.169l0.008,0.167l0.008,0.168l0.01,0.167l0.01,0.167l0.011,0.162l0.013,0.166l0.013,0.166l0.014,0.166l0.015,0.17l0.015,0.166l0.015,0.16l0.018,0.165l0.018,0.169l0.018,0.159l0.02,0.164l0.02,0.168l0.02,0.159l0.023,0.163l0.023,0.167l0.023,0.163l0.023,0.157l0.026,0.166l0.026,0.162l0.026,0.156l0.028,0.166l0.029,0.165l0.027,0.155l0.03,0.16l0.031,0.164l0.03,0.155l0.032,0.159l0.034,0.163l0.033,0.159l0.035,0.158l0.035,0.162l0.036,0.158l0.035,0.151l0.077,0.323l0.037,0.151l0.04,0.155l0.041,0.16l0.041,0.156l0.042,0.154l0.042,0.154l0.088,0.313l0.044,0.153l0.047,0.157l0.046,0.153l0.046,0.152l0.047,0.151l0.05,0.156l0.048,0.152l0.05,0.151l0.051,0.155l0.051,0.149l0.052,0.15l0.053,0.154l0.053,0.149l0.054,0.149l0.055,0.151l0.055,0.148l0.056,0.148l0.058,0.151l0.057,0.147l0.06,0.15l0.059,0.151l0.058,0.142l0.062,0.149l0.061,0.149l0.061,0.144l0.062,0.143l0.063,0.145l0.064,0.147l0.066,0.147l0.066,0.146l0.065,0.143l0.066,0.141l0.067,0.144l0.067,0.142l0.069,0.141l0.072,0.148l0.068,0.139l0.07,0.139l0.071,0.142l0.072,0.139l0.073,0.143l0.074,0.14l0.075,0.142l0.073,0.137l0.073,0.135l0.077,0.139l0.078,0.141l0.076,0.135l0.078,0.137l0.079,0.138l0.078,0.134l0.08,0.137l0.081,0.137l0.079,0.131l0.08,0.132l0.086,0.14l0.083,0.134l0.081,0.129l0.083,0.132l0.086,0.134l0.085,0.132l0.086,0.131l0.087,0.132l0.087,0.13l0.088,0.13l0.088,0.129l0.087,0.127l0.091,0.13l0.092,0.132l0.088,0.124l0.091,0.126l0.097,0.134l0.177,0.274l0.145,0.292l0.114,0.305l0.079,0.316l0.045,0.323l0.01,0.325l-0.026,0.325l-0.061,0.32l-0.095,0.312l-0.128,0.299l-0.161,0.284l-0.189,0.264l-0.218,0.243l-8.414,8.414l-0.236,0.212l-0.257,0.186l-0.275,0.158l-0.29,0.128l-0.302,0.096l-0.311,0.065l-0.316,0.031l-0.317,-0.003l-0.315,-0.036l-0.31,-0.069l-0.3,-0.101l-0.288,-0.133l-0.273,-0.162l-0.254,-0.19l-0.232,-0.216l-0.209,-0.239l-0.153,-0.197l-0.157,-0.202l-0.154,-0.201l-0.156,-0.206l-0.156,-0.208l-0.15,-0.202l-0.154,-0.209l-0.152,-0.21l-0.147,-0.205l-0.15,-0.209l-0.148,-0.211l-0.148,-0.213l-0.146,-0.211l-0.144,-0.212l-0.145,-0.215l-0.141,-0.213l-0.141,-0.213l-0.141,-0.217l-0.14,-0.217l-0.138,-0.216l-0.138,-0.219l-0.137,-0.22l-0.134,-0.218l-0.133,-0.219l-0.134,-0.222l-0.133,-0.224l-0.13,-0.221l-0.128,-0.221l-0.13,-0.226l-0.128,-0.226l-0.125,-0.223l-0.127,-0.227l-0.124,-0.229l-0.122,-0.226l-0.121,-0.226l-0.122,-0.23l-0.119,-0.23l-0.118,-0.229l-0.118,-0.232l-0.117,-0.233l-0.115,-0.233l-0.113,-0.231l-0.112,-0.233l-0.114,-0.237l-0.11,-0.235l-0.108,-0.235l-0.109,-0.237l-0.106,-0.235l-0.106,-0.238l-0.106,-0.242l-0.102,-0.237l-0.101,-0.237l-0.103,-0.244l-0.1,-0.241l-0.097,-0.239l-0.098,-0.243l-0.096,-0.243l-0.095,-0.244l-0.094,-0.244l-0.093,-0.246l-0.091,-0.245l-0.089,-0.243l-0.089,-0.247l-0.089,-0.25l-0.086,-0.248l-0.084,-0.245l-0.084,-0.248l-0.084,-0.254l-0.081,-0.25l-0.079,-0.246l-0.079,-0.252l-0.079,-0.255l-0.076,-0.252l-0.075,-0.252l-0.073,-0.253l-0.073,-0.254l-0.071,-0.254l-0.07,-0.255l-0.068,-0.255l-0.068,-0.259l-0.066,-0.256l-0.064,-0.253l-0.064,-0.261l-0.063,-0.26l-0.06,-0.258l-0.059,-0.256l-0.058,-0.258l-0.058,-0.266l-0.055,-0.261l-0.053,-0.257l-0.054,-0.263l-0.052,-0.265l-0.049,-0.262l-0.049,-0.261l-0.047,-0.263l-0.046,-0.263l-0.045,-0.267l-0.044,-0.267l-0.042,-0.264l-0.04,-0.264l-0.039,-0.265l-0.038,-0.269l-0.036,-0.266l-0.036,-0.266l-0.034,-0.274l-0.032,-0.267l-0.031,-0.267l-0.029,-0.271l-0.028,-0.268l-0.027,-0.272l-0.025,-0.268l-0.024,-0.269l-0.023,-0.277l-0.021,-0.27l-0.019,-0.27l-0.019,-0.274l-0.017,-0.274l-0.015,-0.275l-0.013,-0.271l-0.013,-0.272l-0.011,-0.276l-0.009,-0.276l-0.008,-0.272l-0.007,-0.277l-0.005,-0.277l-0.004,-0.277l-0.002,-0.274l-0.001,-0.274l0.001,-0.249l0.001,-0.245l0.004,-0.242l0.003,-0.241l0.005,-0.244l0.007,-0.245l0.007,-0.244l0.009,-0.244l0.01,-0.24l0.01,-0.239l0.012,-0.244l0.013,-0.242l0.015,-0.239l0.015,-0.243l0.017,-0.242l0.017,-0.238l0.018,-0.238l0.02,-0.241l0.021,-0.241l0.022,-0.237l0.023,-0.241l0.024,-0.236l0.025,-0.236l0.027,-0.24l0.027,-0.239l0.029,-0.235l0.029,-0.239l0.032,-0.238l0.031,-0.231l0.032,-0.234l0.035,-0.241l0.035,-0.234l0.035,-0.232l0.038,-0.237l0.038,-0.232l0.039,-0.232l0.041,-0.236l0.042,-0.236l0.041,-0.227l0.044,-0.234l0.045,-0.235l0.045,-0.226l0.047,-0.233l0.048,-0.234l0.048,-0.225l0.05,-0.232l0.052,-0.233l0.05,-0.224l0.053,-0.231l0.054,-0.227l0.055,-0.228l0.056,-0.229l0.057,-0.226l0.058,-0.227l0.058,-0.225l0.061,-0.229l0.061,-0.225l0.062,-0.224l0.063,-0.224l0.063,-0.223l0.066,-0.227l0.066,-0.222l0.067,-0.223l0.069,-0.225l0.068,-0.218l0.069,-0.221l0.072,-0.225l0.072,-0.22l0.073,-0.22l0.073,-0.219l0.075,-0.219l0.075,-0.218l0.077,-0.219l0.078,-0.218l0.08,-0.221l0.079,-0.216l0.079,-0.213l0.082,-0.216l0.083,-0.219l0.084,-0.215l0.084,-0.214l0.086,-0.215l0.085,-0.21l0.086,-0.213l0.09,-0.217l0.09,-0.212l0.089,-0.211l0.091,-0.212l0.091,-0.208l0.093,-0.211l0.095,-0.213l0.093,-0.205l0.095,-0.21l0.099,-0.212l0.096,-0.203l0.098,-0.209l0.1,-0.207l0.098,-0.202l0.101,-0.207l0.104,-0.209l0.103,-0.204l0.102,-0.201l0.105,-0.205l0.106,-0.204l0.104,-0.198l0.107,-0.203l0.111,-0.205l0.109,-0.201l0.109,-0.198l0.109,-0.198l0.111,-0.199l0.113,-0.199l0.114,-0.199l0.115,-0.198l0.115,-0.198l0.115,-0.193l0.115,-0.194l0.12,-0.199l0.118,-0.195l0.119,-0.192l0.118,-0.192l0.122,-0.193l0.122,-0.194l0.123,-0.191l0.124,-0.193l0.123,-0.188l0.125,-0.19l0.124,-0.186l0.199,-0.265l0.227,-0.241l0.252,-0.216l0.274,-0.186l0.293,-0.154l0.308,-0.122l0.32,-0.086l0.328,-0.051l0.331,-0.014l0.33,0.022Zm77.874,-0.008l0.327,0.051l0.32,0.086l0.309,0.122l0.293,0.154l0.274,0.186l0.252,0.216l0.227,0.241l0.199,0.265l0.123,0.186l0.125,0.19l0.125,0.191l0.122,0.19l0.123,0.191l0.122,0.194l0.12,0.19l0.121,0.195l0.12,0.195l0.116,0.192l0.119,0.196l0.117,0.197l0.114,0.193l0.118,0.201l0.112,0.195l0.113,0.196l0.114,0.202l0.111,0.199l0.11,0.198l0.11,0.201l0.109,0.201l0.107,0.199l0.108,0.203l0.106,0.201l0.106,0.204l0.104,0.205l0.104,0.204l0.103,0.204l0.1,0.203l0.102,0.207l0.1,0.205l0.099,0.207l0.099,0.209l0.097,0.207l0.096,0.208l0.095,0.207l0.094,0.208l0.096,0.213l0.092,0.211l0.091,0.208l0.091,0.212l0.09,0.211l0.089,0.212l0.09,0.217l0.087,0.213l0.085,0.21l0.085,0.215l0.085,0.214l0.083,0.215l0.084,0.219l0.081,0.216l0.079,0.213l0.08,0.216l0.08,0.221l0.077,0.218l0.077,0.219l0.075,0.218l0.075,0.219l0.074,0.219l0.073,0.22l0.073,0.224l0.07,0.221l0.069,0.217l0.069,0.222l0.069,0.225l0.068,0.226l0.065,0.223l0.064,0.219l0.064,0.223l0.064,0.228l0.061,0.224l0.062,0.225l0.06,0.229l0.059,0.225l0.058,0.227l0.057,0.229l0.055,0.226l0.054,0.224l0.055,0.231l0.053,0.231l0.052,0.228l0.05,0.229l0.05,0.229l0.049,0.232l0.047,0.23l0.047,0.229l0.046,0.234l0.044,0.231l0.043,0.231l0.043,0.234l0.041,0.232l0.041,0.232l0.039,0.236l0.039,0.236l0.036,0.233l0.036,0.232l0.035,0.234l0.035,0.237l0.033,0.238l0.031,0.235l0.031,0.234l0.029,0.235l0.029,0.239l0.028,0.239l0.026,0.24l0.025,0.236l0.024,0.236l0.024,0.241l0.021,0.237l0.022,0.241l0.019,0.241l0.019,0.238l0.017,0.242l0.016,0.238l0.016,0.239l0.014,0.243l0.013,0.242l0.012,0.244l0.011,0.239l0.01,0.244l0.008,0.244l0.007,0.24l0.007,0.241l0.005,0.245l0.004,0.244l0.003,0.245l0.001,0.246l0.001,0.241l-0.001,0.275l-0.002,0.277l-0.003,0.277l-0.005,0.277l-0.007,0.277l-0.008,0.272l-0.01,0.276l-0.011,0.276l-0.012,0.272l-0.014,0.271l-0.015,0.275l-0.017,0.274l-0.018,0.274l-0.02,0.274l-0.021,0.27l-0.023,0.269l-0.023,0.269l-0.025,0.272l-0.027,0.272l-0.028,0.268l-0.03,0.271l-0.031,0.271l-0.032,0.267l-0.034,0.267l-0.035,0.266l-0.036,0.269l-0.038,0.269l-0.04,0.265l-0.04,0.264l-0.042,0.264l-0.043,0.267l-0.045,0.267l-0.046,0.263l-0.048,0.263l-0.048,0.261l-0.051,0.265l-0.051,0.262l-0.052,0.26l-0.055,0.264l-0.056,0.26l-0.056,0.259l-0.058,0.259l-0.059,0.259l-0.062,0.261l-0.062,0.257l-0.063,0.258l-0.065,0.256l-0.065,0.256l-0.068,0.259l-0.069,0.255l-0.07,0.255l-0.071,0.254l-0.072,0.254l-0.074,0.253l-0.075,0.252l-0.077,0.256l-0.078,0.251l-0.078,0.248l-0.079,0.25l-0.081,0.25l-0.084,0.254l-0.085,0.248l-0.083,0.245l-0.087,0.248l-0.088,0.25l-0.09,0.247l-0.089,0.243l-0.091,0.245l-0.092,0.246l-0.094,0.244l-0.095,0.244l-0.097,0.243l-0.097,0.243l-0.099,0.242l-0.099,0.238l-0.101,0.241l-0.102,0.24l-0.104,0.24l-0.105,0.239l-0.104,0.235l-0.108,0.238l-0.108,0.237l-0.11,0.238l-0.109,0.232l-0.112,0.235l-0.113,0.235l-0.113,0.231l-0.116,0.233l-0.116,0.233l-0.118,0.232l-0.118,0.229l-0.12,0.23l-0.121,0.23l-0.121,0.226l-0.124,0.229l-0.123,0.226l-0.125,0.225l-0.128,0.228l-0.127,0.223l-0.128,0.224l-0.13,0.223l-0.131,0.224l-0.132,0.221l-0.132,0.22l-0.135,0.221l-0.135,0.221l-0.137,0.217l-0.135,0.217l-0.14,0.218l-0.139,0.217l-0.142,0.217l-0.14,0.213l-0.142,0.213l-0.145,0.215l-0.146,0.214l-0.146,0.212l-0.144,0.207l-0.148,0.211l-0.151,0.212l-0.149,0.208l-0.151,0.207l-0.152,0.207l-0.153,0.206l-0.155,0.206l-0.154,0.203l-0.155,0.204l-0.157,0.202l-0.154,0.197l-0.208,0.239l-0.233,0.216l-0.254,0.19l-0.272,0.162l-0.288,0.133l-0.301,0.101l-0.309,0.069l-0.316,0.036l-0.317,0.003l-0.315,-0.031l-0.311,-0.065l-0.302,-0.096l-0.29,-0.128l-0.276,-0.158l-0.256,-0.186l-0.236,-0.212l-8.414,-8.414l-0.218,-0.243l-0.19,-0.264l-0.16,-0.284l-0.128,-0.299l-0.096,-0.312l-0.061,-0.32l-0.025,-0.325l0.009,-0.325l0.045,-0.323l0.08,-0.316l0.113,-0.305l0.146,-0.292l0.176,-0.274l0.095,-0.13l0.093,-0.13l0.091,-0.127l0.09,-0.129l0.09,-0.13l0.088,-0.127l0.088,-0.129l0.088,-0.13l0.086,-0.13l0.087,-0.132l0.086,-0.131l0.083,-0.129l0.085,-0.133l0.086,-0.136l0.083,-0.133l0.083,-0.134l0.082,-0.132l0.082,-0.136l0.082,-0.135l0.078,-0.133l0.081,-0.137l0.078,-0.134l0.079,-0.138l0.078,-0.137l0.075,-0.135l0.078,-0.141l0.077,-0.139l0.073,-0.135l0.073,-0.137l0.076,-0.142l0.073,-0.14l0.074,-0.143l0.071,-0.139l0.07,-0.138l0.071,-0.143l0.071,-0.143l0.07,-0.144l0.068,-0.141l0.067,-0.142l0.066,-0.14l0.067,-0.145l0.068,-0.147l0.064,-0.142l0.065,-0.147l0.063,-0.143l0.064,-0.149l0.062,-0.143l0.061,-0.144l0.062,-0.149l0.061,-0.149l0.06,-0.147l0.058,-0.146l0.059,-0.15l0.057,-0.147l0.056,-0.146l0.058,-0.153l0.057,-0.152l0.052,-0.143l0.055,-0.153l0.055,-0.154l0.05,-0.144l0.053,-0.155l0.053,-0.154l0.048,-0.145l0.051,-0.156l0.05,-0.156l0.047,-0.147l0.048,-0.156l0.048,-0.156l0.045,-0.149l0.045,-0.153l0.045,-0.157l0.045,-0.159l0.044,-0.154l0.042,-0.154l0.042,-0.154l0.04,-0.156l0.04,-0.155l0.041,-0.16l0.038,-0.156l0.038,-0.156l0.039,-0.162l0.035,-0.151l0.035,-0.158l0.036,-0.162l0.034,-0.158l0.033,-0.159l0.034,-0.163l0.032,-0.159l0.03,-0.155l0.03,-0.159l0.031,-0.165l0.029,-0.159l0.028,-0.161l0.027,-0.161l0.026,-0.161l0.027,-0.167l0.025,-0.161l0.024,-0.157l0.023,-0.163l0.023,-0.167l0.022,-0.163l0.02,-0.159l0.02,-0.163l0.02,-0.169l0.019,-0.164l0.018,-0.164l0.017,-0.165l0.016,-0.16l0.015,-0.166l0.015,-0.17l0.014,-0.166l0.012,-0.161l0.012,-0.166l0.012,-0.172l0.011,-0.167l0.009,-0.162l0.009,-0.168l0.008,-0.167l0.007,-0.169l0.006,-0.168l0.006,-0.168l0.005,-0.169l0.003,-0.165l0.003,-0.169l0.002,-0.174l0.002,-0.165l0,-0.165l-0.001,-0.29l-0.003,-0.28l-0.006,-0.281l-0.008,-0.279l-0.011,-0.279l-0.013,-0.28l-0.015,-0.277l-0.018,-0.28l-0.02,-0.278l-0.021,-0.275l-0.025,-0.277l-0.026,-0.273l-0.029,-0.272l-0.032,-0.278l-0.032,-0.273l-0.036,-0.271l-0.038,-0.272l-0.039,-0.268l-0.043,-0.27l-0.044,-0.273l-0.046,-0.265l-0.049,-0.268l-0.051,-0.27l-0.053,-0.266l-0.054,-0.262l-0.058,-0.264l-0.059,-0.266l-0.062,-0.262l-0.063,-0.262l-0.065,-0.26l-0.069,-0.262l-0.069,-0.259l-0.072,-0.258l-0.074,-0.259l-0.075,-0.256l-0.079,-0.257l-0.079,-0.254l-0.082,-0.252l-0.084,-0.254l-0.087,-0.254l-0.088,-0.253l-0.089,-0.248l-0.092,-0.249l-0.094,-0.249l-0.095,-0.246l-0.098,-0.247l-0.099,-0.245l-0.101,-0.243l-0.105,-0.246l-0.105,-0.243l-0.106,-0.238l-0.111,-0.243l-0.111,-0.24l-0.111,-0.235l-0.116,-0.239l-0.116,-0.236l-0.119,-0.233l-0.121,-0.237l-0.122,-0.232l-0.123,-0.23l-0.125,-0.23l-0.129,-0.231l-0.128,-0.227l-0.137,-0.236l-0.148,-0.292l-0.115,-0.306l-0.081,-0.317l-0.047,-0.324l-0.011,-0.327l0.025,-0.326l0.06,-0.322l0.095,-0.313l0.129,-0.301l0.16,-0.285l0.191,-0.266l0.218,-0.244l8.556,-8.556l0.247,-0.221l0.27,-0.192l0.289,-0.162l0.305,-0.128l0.318,-0.095l0.326,-0.058l0.331,-0.022l0.331,0.014Zm-78.359,3.163l-0.117,0.179l-0.117,0.179l-0.116,0.18l-0.115,0.18l-0.115,0.18l-0.113,0.182l-0.113,0.182l-0.112,0.182l-0.112,0.183l-0.11,0.183l-0.11,0.184l-0.109,0.185l-0.108,0.185l-0.107,0.186l-0.107,0.186l-0.106,0.187l-0.104,0.187l-0.105,0.188l-0.103,0.188l-0.102,0.189l-0.102,0.189l-0.101,0.19l-0.1,0.19l-0.099,0.191l-0.098,0.191l-0.097,0.192l-0.097,0.193l-0.096,0.192l-0.095,0.194l-0.094,0.194l-0.093,0.194l-0.093,0.195l-0.091,0.195l-0.091,0.196l-0.09,0.196l-0.089,0.197l-0.088,0.198l-0.087,0.197l-0.086,0.198l-0.086,0.199l-0.084,0.199l-0.084,0.2l-0.083,0.2l-0.082,0.201l-0.081,0.201l-0.081,0.201l-0.079,0.202l-0.078,0.202l-0.078,0.203l-0.077,0.204l-0.075,0.203l-0.075,0.204l-0.074,0.205l-0.073,0.205l-0.073,0.206l-0.071,0.205l-0.07,0.207l-0.07,0.207l-0.068,0.207l-0.068,0.207l-0.067,0.208l-0.065,0.209l-0.065,0.209l-0.064,0.209l-0.063,0.21l-0.062,0.21l-0.061,0.21l-0.06,0.211l-0.06,0.211l-0.058,0.212l-0.057,0.212l-0.057,0.213l-0.055,0.212l-0.055,0.214l-0.053,0.213l-0.053,0.214l-0.051,0.215l-0.051,0.215l-0.05,0.215l-0.049,0.215l-0.047,0.216l-0.047,0.216l-0.046,0.217l-0.045,0.217l-0.044,0.217l-0.043,0.218l-0.042,0.218l-0.04,0.219l-0.04,0.218l-0.039,0.219l-0.038,0.22l-0.037,0.22l-0.036,0.22l-0.035,0.22l-0.034,0.221l-0.033,0.221l-0.032,0.222l-0.031,0.222l-0.03,0.222l-0.029,0.222l-0.028,0.223l-0.026,0.223l-0.026,0.223l-0.025,0.224l-0.024,0.224l-0.023,0.225l-0.021,0.224l-0.021,0.225l-0.02,0.225l-0.018,0.226l-0.018,0.226l-0.016,0.226l-0.016,0.226l-0.014,0.227l-0.013,0.227l-0.013,0.227l-0.011,0.228l-0.01,0.228l-0.009,0.228l-0.008,0.228l-0.007,0.229l-0.006,0.229l-0.005,0.229l-0.004,0.23l-0.003,0.229l-0.001,0.23l-0.001,0.231l0.001,0.26l0.002,0.261l0.003,0.26l0.005,0.26l0.007,0.259l0.007,0.259l0.009,0.259l0.01,0.258l0.012,0.258l0.013,0.258l0.015,0.257l0.015,0.257l0.017,0.257l0.019,0.256l0.02,0.256l0.021,0.255l0.022,0.256l0.024,0.254l0.025,0.255l0.027,0.253l0.027,0.254l0.03,0.253l0.03,0.253l0.032,0.252l0.033,0.252l0.034,0.251l0.036,0.251l0.037,0.251l0.038,0.25l0.039,0.25l0.041,0.249l0.042,0.249l0.043,0.249l0.045,0.248l0.046,0.247l0.047,0.247l0.049,0.247l0.049,0.246l0.051,0.246l0.052,0.245l0.054,0.245l0.054,0.244l0.056,0.244l0.058,0.243l0.058,0.243l0.06,0.242l0.061,0.242l0.062,0.242l0.063,0.241l0.064,0.24l0.066,0.24l0.067,0.239l0.068,0.239l0.07,0.238l0.07,0.238l0.072,0.238l0.073,0.236l0.074,0.237l0.075,0.235l0.077,0.235l0.078,0.235l0.079,0.234l0.08,0.234l0.081,0.233l0.082,0.232l0.084,0.232l0.084,0.231l0.086,0.231l0.087,0.23l0.089,0.229l0.089,0.229l0.09,0.229l0.092,0.228l0.093,0.227l0.093,0.226l0.095,0.227l0.096,0.225l0.098,0.225l0.098,0.224l0.099,0.224l0.101,0.223l0.102,0.222l0.102,0.222l0.104,0.221l0.105,0.22l0.106,0.22l0.107,0.219l0.109,0.219l0.109,0.218l0.11,0.217l0.112,0.217l0.112,0.216l0.114,0.215l0.114,0.215l0.116,0.214l0.117,0.213l0.118,0.213l0.119,0.212l0.119,0.211l0.121,0.211l0.122,0.21l0.123,0.209l0.124,0.208l0.126,0.208l0.126,0.207l0.127,0.207l0.128,0.206l0.129,0.205l0.13,0.204l0.131,0.203l0.133,0.203l0.133,0.202l0.134,0.202l0.135,0.2l0.136,0.2l0.137,0.2l0.139,0.198l0.139,0.198l0.14,0.197l0.141,0.196l0.142,0.195l0.143,0.195l0.144,0.194l0.145,0.193l0.145,0.192l0.147,0.192l0.148,0.19l0.149,0.19l8.414,-8.413l-0.101,-0.139l-0.099,-0.139l-0.099,-0.139l-0.099,-0.14l-0.097,-0.141l-0.097,-0.141l-0.097,-0.141l-0.096,-0.142l-0.095,-0.143l-0.094,-0.142l-0.094,-0.144l-0.093,-0.144l-0.092,-0.144l-0.092,-0.145l-0.091,-0.145l-0.09,-0.146l-0.09,-0.146l-0.089,-0.147l-0.088,-0.147l-0.088,-0.148l-0.087,-0.148l-0.086,-0.149l-0.086,-0.149l-0.084,-0.149l-0.085,-0.15l-0.083,-0.151l-0.083,-0.15l-0.082,-0.152l-0.081,-0.151l-0.081,-0.153l-0.08,-0.152l-0.079,-0.153l-0.079,-0.154l-0.077,-0.154l-0.077,-0.154l-0.077,-0.155l-0.075,-0.155l-0.075,-0.156l-0.074,-0.156l-0.074,-0.156l-0.073,-0.157l-0.072,-0.157l-0.071,-0.158l-0.07,-0.158l-0.07,-0.159l-0.069,-0.159l-0.068,-0.159l-0.068,-0.16l-0.067,-0.16l-0.066,-0.16l-0.065,-0.161l-0.064,-0.162l-0.064,-0.161l-0.063,-0.162l-0.062,-0.163l-0.062,-0.163l-0.06,-0.163l-0.06,-0.164l-0.059,-0.164l-0.059,-0.164l-0.057,-0.165l-0.057,-0.165l-0.056,-0.165l-0.055,-0.166l-0.055,-0.166l-0.054,-0.167l-0.052,-0.167l-0.052,-0.167l-0.052,-0.168l-0.05,-0.168l-0.05,-0.168l-0.049,-0.169l-0.048,-0.169l-0.047,-0.169l-0.047,-0.17l-0.045,-0.17l-0.045,-0.17l-0.044,-0.171l-0.043,-0.171l-0.043,-0.171l-0.041,-0.172l-0.041,-0.172l-0.04,-0.172l-0.039,-0.173l-0.038,-0.173l-0.038,-0.173l-0.036,-0.174l-0.036,-0.174l-0.035,-0.174l-0.034,-0.175l-0.033,-0.174l-0.033,-0.175l-0.031,-0.176l-0.031,-0.176l-0.03,-0.176l-0.029,-0.176l-0.028,-0.177l-0.027,-0.176l-0.027,-0.178l-0.025,-0.177l-0.025,-0.178l-0.024,-0.178l-0.023,-0.178l-0.022,-0.179l-0.021,-0.178l-0.02,-0.18l-0.02,-0.179l-0.018,-0.18l-0.018,-0.179l-0.017,-0.181l-0.016,-0.18l-0.015,-0.181l-0.014,-0.181l-0.013,-0.181l-0.012,-0.181l-0.012,-0.182l-0.01,-0.182l-0.01,-0.182l-0.008,-0.182l-0.008,-0.183l-0.007,-0.183l-0.006,-0.183l-0.005,-0.183l-0.004,-0.184l-0.004,-0.184l-0.002,-0.184l-0.001,-0.184l-0.001,-0.184l0.001,-0.308l0.004,-0.306l0.007,-0.307l0.009,-0.305l0.011,-0.305l0.014,-0.304l0.017,-0.303l0.019,-0.303l0.021,-0.302l0.024,-0.302l0.027,-0.3l0.029,-0.3l0.031,-0.3l0.034,-0.298l0.036,-0.298l0.039,-0.297l0.041,-0.296l0.044,-0.296l0.046,-0.294l0.048,-0.294l0.051,-0.293l0.053,-0.292l0.055,-0.292l0.058,-0.29l0.06,-0.29l0.063,-0.289l0.064,-0.288l0.067,-0.287l0.07,-0.286l0.071,-0.285l0.074,-0.284l0.076,-0.283l0.079,-0.283l0.08,-0.281l0.083,-0.281l0.085,-0.279l0.088,-0.279l0.089,-0.277l0.092,-0.277l0.094,-0.275l0.096,-0.275l0.098,-0.273l0.1,-0.273l0.103,-0.271l0.104,-0.27l0.107,-0.269l0.109,-0.268l0.111,-0.267l0.113,-0.266l0.115,-0.265l0.117,-0.264l0.119,-0.262l0.122,-0.261l0.123,-0.261l0.125,-0.259l0.128,-0.257l0.129,-0.257l0.131,-0.255l0.134,-0.254l0.135,-0.253l0.137,-0.252l0.14,-0.25l0.141,-0.25l0.143,-0.247l-8.556,-8.556l-0.119,0.177Zm69.508,8.379l0.143,0.247l0.141,0.25l0.139,0.25l0.137,0.252l0.136,0.253l0.133,0.254l0.131,0.255l0.13,0.257l0.127,0.257l0.126,0.259l0.123,0.261l0.121,0.261l0.119,0.262l0.118,0.264l0.115,0.265l0.113,0.266l0.111,0.267l0.108,0.268l0.107,0.269l0.105,0.27l0.102,0.271l0.101,0.273l0.098,0.273l0.096,0.275l0.094,0.275l0.091,0.277l0.09,0.277l0.087,0.279l0.085,0.279l0.083,0.281l0.081,0.281l0.078,0.283l0.076,0.283l0.074,0.284l0.072,0.285l0.069,0.286l0.067,0.287l0.065,0.288l0.062,0.289l0.06,0.29l0.058,0.29l0.055,0.292l0.054,0.292l0.05,0.293l0.049,0.294l0.046,0.294l0.043,0.296l0.041,0.296l0.039,0.297l0.036,0.298l0.034,0.298l0.032,0.3l0.029,0.3l0.026,0.3l0.024,0.302l0.022,0.302l0.019,0.303l0.016,0.303l0.014,0.304l0.012,0.305l0.009,0.305l0.006,0.307l0.004,0.306l0.001,0.308l0,0.184l-0.002,0.184l-0.002,0.184l-0.003,0.184l-0.004,0.184l-0.005,0.183l-0.006,0.183l-0.007,0.183l-0.008,0.183l-0.009,0.182l-0.009,0.182l-0.011,0.182l-0.011,0.182l-0.013,0.181l-0.013,0.181l-0.014,0.181l-0.015,0.181l-0.016,0.18l-0.017,0.181l-0.017,0.179l-0.019,0.18l-0.019,0.179l-0.021,0.18l-0.021,0.178l-0.022,0.179l-0.023,0.178l-0.024,0.178l-0.024,0.178l-0.026,0.177l-0.026,0.178l-0.028,0.176l-0.028,0.177l-0.029,0.176l-0.03,0.176l-0.03,0.176l-0.032,0.176l-0.032,0.175l-0.033,0.174l-0.035,0.175l-0.034,0.174l-0.036,0.174l-0.037,0.174l-0.037,0.173l-0.038,0.173l-0.04,0.173l-0.04,0.172l-0.04,0.172l-0.042,0.172l-0.042,0.171l-0.043,0.171l-0.044,0.171l-0.045,0.17l-0.046,0.17l-0.046,0.17l-0.048,0.169l-0.048,0.169l-0.049,0.169l-0.049,0.168l-0.051,0.168l-0.051,0.168l-0.052,0.167l-0.053,0.167l-0.054,0.167l-0.054,0.166l-0.055,0.166l-0.056,0.165l-0.057,0.165l-0.058,0.165l-0.058,0.164l-0.059,0.164l-0.06,0.164l-0.061,0.163l-0.061,0.163l-0.063,0.163l-0.063,0.162l-0.063,0.161l-0.065,0.162l-0.065,0.161l-0.066,0.16l-0.067,0.16l-0.067,0.16l-0.069,0.159l-0.069,0.159l-0.069,0.159l-0.071,0.158l-0.071,0.158l-0.072,0.157l-0.073,0.157l-0.073,0.156l-0.074,0.156l-0.075,0.156l-0.076,0.155l-0.076,0.155l-0.077,0.154l-0.078,0.154l-0.079,0.154l-0.079,0.153l-0.08,0.152l-0.08,0.153l-0.082,0.151l-0.082,0.152l-0.083,0.15l-0.083,0.151l-0.084,0.15l-0.085,0.149l-0.086,0.149l-0.086,0.149l-0.087,0.148l-0.087,0.148l-0.089,0.147l-0.089,0.147l-0.089,0.146l-0.091,0.146l-0.091,0.145l-0.091,0.145l-0.093,0.144l-0.093,0.144l-0.094,0.144l-0.094,0.142l-0.095,0.143l-0.096,0.142l-0.096,0.141l-0.097,0.141l-0.098,0.141l-0.098,0.14l-0.099,0.139l-0.1,0.139l-0.1,0.139l8.414,8.413l0.148,-0.19l0.148,-0.19l0.147,-0.192l0.146,-0.192l0.145,-0.193l0.144,-0.194l0.143,-0.195l0.142,-0.195l0.141,-0.196l0.14,-0.197l0.139,-0.198l0.138,-0.198l0.137,-0.2l0.136,-0.2l0.135,-0.2l0.135,-0.202l0.133,-0.202l0.132,-0.203l0.131,-0.203l0.13,-0.204l0.129,-0.205l0.129,-0.206l0.127,-0.207l0.126,-0.207l0.125,-0.208l0.124,-0.208l0.123,-0.209l0.122,-0.21l0.121,-0.211l0.12,-0.211l0.119,-0.212l0.118,-0.213l0.116,-0.213l0.116,-0.214l0.115,-0.215l0.113,-0.215l0.113,-0.216l0.111,-0.217l0.111,-0.217l0.109,-0.218l0.108,-0.219l0.107,-0.219l0.106,-0.22l0.105,-0.22l0.104,-0.221l0.103,-0.222l0.101,-0.222l0.101,-0.223l0.099,-0.224l0.099,-0.224l0.097,-0.225l0.096,-0.225l0.095,-0.227l0.094,-0.226l0.093,-0.227l0.091,-0.228l0.091,-0.229l0.089,-0.229l0.088,-0.229l0.087,-0.23l0.086,-0.231l0.085,-0.231l0.083,-0.232l0.083,-0.232l0.081,-0.233l0.08,-0.234l0.079,-0.234l0.077,-0.235l0.077,-0.235l0.075,-0.235l0.074,-0.237l0.073,-0.236l0.072,-0.238l0.071,-0.238l0.069,-0.238l0.068,-0.239l0.067,-0.239l0.066,-0.24l0.064,-0.24l0.064,-0.241l0.062,-0.242l0.061,-0.242l0.059,-0.242l0.059,-0.243l0.057,-0.243l0.056,-0.244l0.055,-0.244l0.053,-0.245l0.052,-0.245l0.051,-0.246l0.05,-0.246l0.048,-0.247l0.047,-0.247l0.046,-0.247l0.045,-0.248l0.043,-0.249l0.042,-0.249l0.041,-0.249l0.04,-0.25l0.038,-0.25l0.037,-0.251l0.035,-0.251l0.035,-0.251l0.033,-0.252l0.031,-0.252l0.031,-0.253l0.029,-0.253l0.028,-0.254l0.026,-0.253l0.025,-0.255l0.024,-0.254l0.023,-0.256l0.021,-0.255l0.019,-0.256l0.019,-0.256l0.017,-0.257l0.016,-0.257l0.014,-0.257l0.013,-0.258l0.012,-0.258l0.01,-0.258l0.009,-0.259l0.008,-0.259l0.006,-0.259l0.005,-0.26l0.003,-0.26l0.003,-0.261l0,-0.26l0,-0.231l-0.002,-0.23l-0.003,-0.229l-0.003,-0.23l-0.005,-0.229l-0.006,-0.229l-0.007,-0.229l-0.008,-0.228l-0.009,-0.228l-0.011,-0.228l-0.011,-0.228l-0.012,-0.227l-0.014,-0.227l-0.014,-0.227l-0.015,-0.226l-0.017,-0.226l-0.017,-0.226l-0.019,-0.226l-0.02,-0.225l-0.02,-0.225l-0.022,-0.224l-0.023,-0.225l-0.024,-0.224l-0.024,-0.224l-0.026,-0.223l-0.027,-0.223l-0.028,-0.223l-0.029,-0.222l-0.03,-0.222l-0.031,-0.222l-0.032,-0.222l-0.033,-0.221l-0.034,-0.221l-0.034,-0.22l-0.036,-0.22l-0.037,-0.22l-0.038,-0.22l-0.039,-0.219l-0.04,-0.218l-0.041,-0.219l-0.042,-0.218l-0.043,-0.218l-0.044,-0.217l-0.045,-0.217l-0.045,-0.217l-0.047,-0.216l-0.048,-0.216l-0.049,-0.215l-0.049,-0.215l-0.051,-0.215l-0.052,-0.215l-0.052,-0.214l-0.054,-0.213l-0.054,-0.214l-0.056,-0.212l-0.056,-0.213l-0.058,-0.212l-0.058,-0.212l-0.059,-0.211l-0.06,-0.211l-0.061,-0.21l-0.063,-0.21l-0.063,-0.21l-0.063,-0.209l-0.065,-0.209l-0.066,-0.209l-0.067,-0.208l-0.067,-0.207l-0.069,-0.207l-0.069,-0.207l-0.071,-0.207l-0.071,-0.205l-0.072,-0.206l-0.073,-0.205l-0.074,-0.205l-0.075,-0.204l-0.076,-0.203l-0.077,-0.204l-0.077,-0.203l-0.079,-0.202l-0.079,-0.202l-0.08,-0.201l-0.081,-0.201l-0.082,-0.201l-0.083,-0.2l-0.084,-0.2l-0.085,-0.199l-0.085,-0.199l-0.087,-0.198l-0.087,-0.197l-0.088,-0.198l-0.089,-0.197l-0.09,-0.196l-0.09,-0.196l-0.092,-0.195l-0.092,-0.195l-0.094,-0.194l-0.094,-0.194l-0.095,-0.194l-0.096,-0.192l-0.096,-0.193l-0.098,-0.192l-0.098,-0.191l-0.099,-0.191l-0.1,-0.19l-0.101,-0.19l-0.101,-0.189l-0.103,-0.189l-0.103,-0.188l-0.104,-0.188l-0.105,-0.187l-0.106,-0.187l-0.106,-0.186l-0.108,-0.186l-0.108,-0.185l-0.109,-0.185l-0.109,-0.184l-0.111,-0.183l-0.111,-0.183l-0.112,-0.182l-0.113,-0.182l-0.114,-0.182l-0.114,-0.18l-0.116,-0.18l-0.116,-0.18l-0.116,-0.179l-0.118,-0.179l-0.118,-0.177l-8.556,8.556Zm-30.138,-32.512l0.279,0.003l0.276,0.003l0.279,0.006l0.278,0.007l0.277,0.008l0.277,0.01l0.275,0.012l0.277,0.013l0.276,0.014l0.274,0.016l0.276,0.018l0.273,0.019l0.273,0.02l0.276,0.022l0.272,0.024l0.273,0.024l0.273,0.027l0.271,0.028l0.273,0.029l0.27,0.031l0.271,0.032l0.269,0.034l0.272,0.035l0.269,0.037l0.268,0.038l0.27,0.04l0.268,0.041l0.267,0.042l0.267,0.044l0.266,0.045l0.266,0.047l0.266,0.048l0.266,0.049l0.265,0.051l0.263,0.053l0.264,0.053l0.264,0.055l0.263,0.057l0.263,0.058l0.261,0.06l0.261,0.06l0.26,0.062l0.261,0.063l0.26,0.066l0.258,0.065l0.26,0.068l0.258,0.069l0.256,0.07l0.257,0.072l0.257,0.073l0.257,0.075l0.255,0.075l0.254,0.077l0.255,0.078l0.253,0.08l0.253,0.081l0.252,0.082l0.251,0.084l0.252,0.085l0.251,0.086l0.251,0.088l0.249,0.089l0.247,0.089l0.248,0.091l0.249,0.093l0.248,0.095l0.246,0.095l0.244,0.096l0.245,0.097l0.246,0.1l0.243,0.1l0.244,0.102l0.242,0.103l0.242,0.104l0.241,0.105l0.242,0.107l0.238,0.107l0.24,0.109l0.238,0.11l0.238,0.112l0.239,0.113l0.235,0.114l0.236,0.115l0.235,0.116l0.235,0.118l0.234,0.119l0.232,0.119l0.233,0.122l0.23,0.121l0.23,0.123l0.232,0.125l0.231,0.127l0.227,0.127l0.229,0.128l0.226,0.129l0.227,0.13l0.226,0.132l0.225,0.133l0.224,0.134l0.223,0.135l0.225,0.137l0.22,0.137l0.219,0.137l0.223,0.141l0.221,0.142l0.217,0.14l0.217,0.142l0.219,0.146l0.217,0.146l0.215,0.145l0.214,0.147l0.215,0.149l0.214,0.15l0.211,0.15l0.213,0.152l0.21,0.153l0.209,0.153l0.21,0.155l0.209,0.157l0.207,0.157l0.208,0.158l0.206,0.16l0.203,0.159l0.205,0.162l0.204,0.163l0.201,0.162l0.194,0.158l0.248,0.226l0.22,0.251l0.191,0.274l0.16,0.294l0.126,0.31l0.09,0.322l0.054,0.33l0.017,0.334l-0.02,0.334l-0.057,0.329l-0.094,0.321l-0.128,0.309l-0.163,0.292l-0.194,0.273l-0.222,0.249l-8.415,8.414l-0.246,0.221l-0.269,0.192l-0.289,0.161l-0.304,0.129l-0.317,0.094l-0.326,0.059l-0.33,0.023l-0.33,-0.014l-0.327,-0.05l-0.319,-0.086l-0.308,-0.12l-0.293,-0.154l-0.274,-0.185l-0.131,-0.099l-0.123,-0.092l-0.129,-0.094l-0.129,-0.095l-0.131,-0.095l-0.127,-0.092l-0.129,-0.091l-0.13,-0.092l-0.129,-0.089l-0.132,-0.091l-0.13,-0.089l-0.132,-0.089l-0.131,-0.087l-0.134,-0.088l-0.136,-0.089l-0.132,-0.085l-0.132,-0.085l-0.134,-0.084l-0.133,-0.084l-0.137,-0.084l-0.137,-0.083l-0.136,-0.083l-0.136,-0.081l-0.138,-0.082l-0.136,-0.079l-0.137,-0.079l-0.139,-0.08l-0.138,-0.078l-0.14,-0.078l-0.139,-0.076l-0.14,-0.077l-0.14,-0.075l-0.138,-0.073l-0.144,-0.076l-0.143,-0.074l-0.139,-0.072l-0.141,-0.071l-0.146,-0.073l-0.142,-0.071l-0.143,-0.069l-0.145,-0.07l-0.144,-0.069l-0.143,-0.067l-0.145,-0.067l-0.147,-0.067l-0.144,-0.066l-0.146,-0.064l-0.148,-0.066l-0.146,-0.063l-0.149,-0.064l-0.147,-0.062l-0.145,-0.06l-0.15,-0.061l-0.148,-0.06l-0.149,-0.059l-0.151,-0.06l-0.149,-0.057l-0.149,-0.057l-0.152,-0.057l-0.149,-0.055l-0.151,-0.055l-0.153,-0.054l-0.151,-0.054l-0.154,-0.053l-0.152,-0.052l-0.15,-0.05l-0.155,-0.051l-0.154,-0.05l-0.151,-0.048l-0.156,-0.049l-0.156,-0.048l-0.152,-0.046l-0.156,-0.045l-0.158,-0.046l-0.153,-0.044l-0.155,-0.043l-0.159,-0.043l-0.157,-0.043l-0.155,-0.04l-0.157,-0.04l-0.16,-0.041l-0.157,-0.039l-0.158,-0.038l-0.158,-0.037l-0.158,-0.036l-0.159,-0.036l-0.161,-0.035l-0.159,-0.034l-0.161,-0.034l-0.161,-0.032l-0.158,-0.032l-0.161,-0.03l-0.161,-0.03l-0.162,-0.03l-0.164,-0.029l-0.163,-0.028l-0.16,-0.026l-0.162,-0.026l-0.161,-0.025l-0.164,-0.024l-0.166,-0.024l-0.161,-0.023l-0.165,-0.022l-0.164,-0.021l-0.165,-0.02l-0.166,-0.02l-0.163,-0.018l-0.166,-0.018l-0.164,-0.017l-0.166,-0.016l-0.166,-0.015l-0.168,-0.014l-0.167,-0.014l-0.165,-0.013l-0.165,-0.011l-0.169,-0.011l-0.168,-0.01l-0.166,-0.009l-0.17,-0.009l-0.166,-0.007l-0.168,-0.007l-0.172,-0.005l-0.167,-0.005l-0.169,-0.004l-0.17,-0.003l-0.169,-0.003l-0.171,-0.001l-0.169,-0.001l-0.169,0.001l-0.171,0.001l-0.168,0.003l-0.171,0.003l-0.168,0.004l-0.168,0.005l-0.172,0.005l-0.167,0.007l-0.167,0.007l-0.169,0.009l-0.166,0.009l-0.169,0.01l-0.168,0.011l-0.165,0.011l-0.166,0.013l-0.167,0.014l-0.167,0.014l-0.167,0.015l-0.166,0.016l-0.164,0.017l-0.166,0.018l-0.163,0.018l-0.165,0.02l-0.165,0.02l-0.165,0.021l-0.164,0.022l-0.162,0.023l-0.166,0.024l-0.163,0.024l-0.161,0.025l-0.163,0.026l-0.16,0.026l-0.162,0.028l-0.164,0.029l-0.162,0.03l-0.161,0.03l-0.161,0.03l-0.158,0.032l-0.161,0.032l-0.161,0.034l-0.16,0.034l-0.16,0.035l-0.159,0.036l-0.158,0.036l-0.158,0.037l-0.158,0.038l-0.158,0.039l-0.16,0.041l-0.157,0.04l-0.154,0.04l-0.158,0.043l-0.158,0.043l-0.156,0.043l-0.153,0.044l-0.158,0.046l-0.155,0.045l-0.152,0.046l-0.156,0.048l-0.156,0.049l-0.152,0.048l-0.153,0.05l-0.155,0.051l-0.15,0.05l-0.153,0.052l-0.153,0.053l-0.152,0.054l-0.153,0.054l-0.151,0.055l-0.148,0.055l-0.154,0.058l-0.148,0.056l-0.149,0.057l-0.151,0.06l-0.146,0.058l-0.151,0.061l-0.149,0.061l-0.148,0.061l-0.145,0.061l-0.147,0.063l-0.148,0.064l-0.148,0.066l-0.145,0.064l-0.145,0.066l-0.147,0.067l-0.144,0.067l-0.146,0.068l-0.142,0.068l-0.142,0.069l-0.147,0.071l-0.141,0.07l-0.143,0.072l-0.144,0.072l-0.139,0.072l-0.142,0.074l-0.145,0.076l-0.138,0.073l-0.139,0.075l-0.141,0.077l-0.138,0.076l-0.141,0.078l-0.137,0.078l-0.139,0.08l-0.138,0.079l-0.136,0.079l-0.138,0.082l-0.135,0.081l-0.139,0.084l-0.135,0.082l-0.134,0.083l-0.136,0.085l-0.133,0.084l-0.133,0.085l-0.134,0.087l-0.134,0.087l-0.131,0.087l-0.133,0.088l-0.133,0.089l-0.13,0.089l-0.131,0.091l-0.13,0.089l-0.13,0.092l-0.131,0.093l-0.127,0.092l-0.129,0.093l-0.127,0.093l-0.128,0.094l-0.125,0.094l-0.131,0.099l-0.274,0.185l-0.293,0.154l-0.308,0.12l-0.32,0.086l-0.327,0.05l-0.33,0.014l-0.33,-0.023l-0.325,-0.059l-0.317,-0.094l-0.305,-0.129l-0.288,-0.161l-0.27,-0.192l-0.246,-0.221l-8.414,-8.414l-0.223,-0.249l-0.194,-0.273l-0.162,-0.292l-0.129,-0.309l-0.093,-0.321l-0.058,-0.329l-0.02,-0.334l0.017,-0.334l0.054,-0.33l0.091,-0.322l0.126,-0.31l0.159,-0.294l0.191,-0.274l0.221,-0.251l0.247,-0.226l0.195,-0.158l0.2,-0.162l0.204,-0.163l0.205,-0.162l0.203,-0.159l0.207,-0.16l0.207,-0.158l0.207,-0.157l0.208,-0.156l0.211,-0.156l0.211,-0.154l0.209,-0.152l0.212,-0.152l0.212,-0.15l0.214,-0.15l0.213,-0.148l0.215,-0.148l0.217,-0.147l0.215,-0.144l0.218,-0.144l0.218,-0.144l0.219,-0.141l0.22,-0.141l0.222,-0.141l0.219,-0.137l0.221,-0.137l0.223,-0.136l0.223,-0.136l0.227,-0.135l0.224,-0.132l0.224,-0.131l0.228,-0.131l0.227,-0.129l0.228,-0.128l0.229,-0.127l0.229,-0.127l0.232,-0.125l0.23,-0.123l0.229,-0.121l0.234,-0.122l0.234,-0.12l0.233,-0.118l0.235,-0.118l0.235,-0.116l0.236,-0.115l0.235,-0.114l0.237,-0.113l0.239,-0.112l0.239,-0.11l0.239,-0.109l0.24,-0.108l0.241,-0.106l0.24,-0.105l0.242,-0.104l0.241,-0.103l0.245,-0.102l0.245,-0.1l0.244,-0.1l0.245,-0.097l0.243,-0.096l0.247,-0.095l0.25,-0.095l0.247,-0.093l0.248,-0.091l0.248,-0.089l0.248,-0.089l0.251,-0.088l0.251,-0.086l0.252,-0.085l0.252,-0.084l0.251,-0.082l0.253,-0.081l0.254,-0.08l0.255,-0.078l0.254,-0.077l0.254,-0.075l0.257,-0.075l0.257,-0.073l0.257,-0.072l0.257,-0.07l0.257,-0.069l0.26,-0.068l0.258,-0.065l0.261,-0.066l0.261,-0.063l0.259,-0.062l0.261,-0.06l0.263,-0.06l0.262,-0.058l0.263,-0.057l0.264,-0.055l0.263,-0.053l0.264,-0.053l0.265,-0.051l0.265,-0.049l0.266,-0.048l0.266,-0.047l0.267,-0.045l0.266,-0.044l0.268,-0.042l0.267,-0.041l0.271,-0.04l0.268,-0.038l0.269,-0.037l0.271,-0.035l0.27,-0.034l0.27,-0.032l0.27,-0.031l0.273,-0.029l0.271,-0.028l0.273,-0.027l0.273,-0.024l0.272,-0.024l0.276,-0.022l0.274,-0.02l0.273,-0.019l0.275,-0.018l0.274,-0.016l0.277,-0.015l0.276,-0.012l0.275,-0.012l0.278,-0.01l0.277,-0.008l0.278,-0.007l0.278,-0.006l0.276,-0.003l0.279,-0.003l0.279,0l0.279,0Zm-0.541,3l-0.262,0.002l-0.261,0.004l-0.261,0.005l-0.261,0.007l-0.261,0.008l-0.26,0.009l-0.26,0.011l-0.259,0.012l-0.259,0.014l-0.259,0.015l-0.258,0.016l-0.258,0.018l-0.257,0.019l-0.257,0.021l-0.257,0.022l-0.256,0.023l-0.256,0.025l-0.256,0.026l-0.255,0.028l-0.255,0.029l-0.254,0.03l-0.254,0.032l-0.254,0.033l-0.253,0.034l-0.252,0.036l-0.252,0.037l-0.252,0.039l-0.252,0.04l-0.25,0.041l-0.251,0.042l-0.25,0.044l-0.249,0.045l-0.25,0.047l-0.248,0.048l-0.248,0.049l-0.248,0.05l-0.247,0.052l-0.247,0.053l-0.246,0.055l-0.246,0.055l-0.245,0.057l-0.245,0.059l-0.245,0.059l-0.243,0.061l-0.244,0.062l-0.243,0.064l-0.242,0.065l-0.242,0.065l-0.241,0.068l-0.241,0.068l-0.24,0.07l-0.24,0.071l-0.239,0.072l-0.239,0.074l-0.238,0.075l-0.237,0.076l-0.237,0.077l-0.237,0.078l-0.236,0.08l-0.235,0.081l-0.235,0.082l-0.234,0.084l-0.234,0.084l-0.233,0.086l-0.233,0.087l-0.231,0.088l-0.232,0.09l-0.231,0.091l-0.23,0.091l-0.229,0.093l-0.229,0.095l-0.229,0.095l-0.228,0.097l-0.227,0.097l-0.226,0.099l-0.226,0.1l-0.226,0.102l-0.224,0.102l-0.224,0.103l-0.224,0.105l-0.223,0.106l-0.222,0.107l-0.221,0.108l-0.221,0.109l-0.221,0.111l-0.219,0.111l-0.219,0.113l-0.218,0.114l-0.218,0.115l-0.217,0.116l-0.216,0.117l-0.216,0.118l-0.215,0.119l-0.214,0.121l-0.213,0.121l-0.213,0.123l-0.212,0.124l-0.212,0.125l-0.21,0.125l-0.211,0.127l-0.209,0.128l-0.208,0.13l-0.208,0.13l-0.208,0.131l-0.206,0.132l-0.206,0.134l-0.205,0.134l-0.204,0.135l-0.203,0.137l-0.203,0.137l-0.202,0.139l-0.201,0.14l-0.201,0.14l-0.2,0.142l-0.199,0.143l-0.198,0.143l-0.197,0.145l-0.197,0.146l-0.196,0.146l-0.195,0.148l-0.194,0.149l-0.194,0.15l-0.193,0.15l-0.192,0.152l-0.191,0.153l-0.19,0.153l-0.19,0.155l8.414,8.414l0.138,-0.105l0.139,-0.103l0.14,-0.104l0.139,-0.102l0.141,-0.102l0.141,-0.101l0.141,-0.1l0.142,-0.1l0.142,-0.099l0.143,-0.098l0.144,-0.098l0.144,-0.097l0.144,-0.096l0.145,-0.096l0.145,-0.095l0.146,-0.094l0.146,-0.093l0.147,-0.093l0.148,-0.092l0.147,-0.091l0.149,-0.091l0.148,-0.09l0.15,-0.089l0.149,-0.088l0.15,-0.088l0.151,-0.087l0.151,-0.086l0.152,-0.086l0.152,-0.085l0.152,-0.084l0.153,-0.083l0.153,-0.083l0.154,-0.082l0.154,-0.081l0.155,-0.08l0.155,-0.08l0.156,-0.079l0.156,-0.078l0.156,-0.077l0.157,-0.077l0.157,-0.075l0.158,-0.076l0.158,-0.074l0.159,-0.073l0.159,-0.073l0.159,-0.072l0.16,-0.071l0.16,-0.071l0.161,-0.069l0.161,-0.069l0.162,-0.068l0.161,-0.068l0.163,-0.066l0.162,-0.066l0.163,-0.065l0.164,-0.064l0.164,-0.063l0.164,-0.063l0.165,-0.061l0.165,-0.061l0.165,-0.06l0.166,-0.06l0.166,-0.058l0.166,-0.058l0.167,-0.057l0.168,-0.056l0.167,-0.055l0.168,-0.054l0.169,-0.054l0.168,-0.052l0.169,-0.052l0.17,-0.051l0.17,-0.051l0.17,-0.049l0.17,-0.048l0.171,-0.048l0.171,-0.047l0.172,-0.046l0.172,-0.045l0.172,-0.044l0.173,-0.044l0.172,-0.042l0.174,-0.042l0.173,-0.041l0.174,-0.04l0.174,-0.039l0.175,-0.038l0.175,-0.037l0.175,-0.037l0.175,-0.036l0.176,-0.034l0.176,-0.034l0.176,-0.033l0.177,-0.032l0.177,-0.031l0.177,-0.031l0.178,-0.029l0.178,-0.028l0.178,-0.028l0.179,-0.027l0.178,-0.026l0.179,-0.024l0.18,-0.024l0.179,-0.023l0.18,-0.023l0.18,-0.021l0.181,-0.02l0.181,-0.02l0.18,-0.018l0.182,-0.018l0.181,-0.016l0.182,-0.016l0.182,-0.015l0.182,-0.013l0.183,-0.013l0.183,-0.012l0.183,-0.011l0.183,-0.01l0.184,-0.009l0.183,-0.009l0.184,-0.007l0.185,-0.006l0.184,-0.005l0.185,-0.005l0.185,-0.003l0.185,-0.002l0.186,-0.002l0.185,0l0.186,0l0.185,0.002l0.185,0.002l0.185,0.003l0.185,0.005l0.185,0.005l0.184,0.006l0.184,0.007l0.184,0.009l0.183,0.009l0.184,0.01l0.183,0.011l0.182,0.012l0.183,0.013l0.182,0.013l0.182,0.015l0.182,0.016l0.182,0.016l0.181,0.018l0.181,0.018l0.181,0.02l0.18,0.02l0.18,0.021l0.18,0.023l0.18,0.023l0.179,0.024l0.179,0.024l0.179,0.026l0.178,0.027l0.178,0.028l0.178,0.028l0.178,0.029l0.177,0.031l0.177,0.031l0.177,0.032l0.176,0.033l0.176,0.034l0.176,0.034l0.176,0.036l0.175,0.037l0.175,0.037l0.174,0.038l0.174,0.039l0.174,0.04l0.174,0.041l0.173,0.042l0.173,0.042l0.172,0.044l0.173,0.044l0.171,0.045l0.172,0.046l0.171,0.047l0.171,0.048l0.171,0.048l0.17,0.049l0.169,0.051l0.17,0.051l0.169,0.052l0.169,0.052l0.168,0.054l0.168,0.054l0.168,0.055l0.167,0.056l0.167,0.057l0.166,0.058l0.167,0.058l0.165,0.06l0.166,0.06l0.165,0.061l0.164,0.061l0.165,0.063l0.164,0.063l0.163,0.064l0.163,0.065l0.163,0.066l0.162,0.066l0.162,0.068l0.161,0.068l0.161,0.069l0.161,0.069l0.16,0.071l0.16,0.071l0.16,0.072l0.158,0.073l0.159,0.073l0.158,0.074l0.158,0.076l0.157,0.075l0.157,0.077l0.157,0.077l0.156,0.078l0.155,0.079l0.155,0.08l0.155,0.08l0.154,0.081l0.154,0.082l0.153,0.083l0.153,0.083l0.153,0.084l0.152,0.085l0.151,0.086l0.151,0.086l0.151,0.087l0.15,0.088l0.15,0.088l0.149,0.089l0.149,0.09l0.148,0.091l0.148,0.091l0.147,0.092l0.147,0.093l0.146,0.093l0.146,0.094l0.146,0.095l0.144,0.096l0.145,0.096l0.144,0.097l0.143,0.098l0.143,0.098l0.142,0.099l0.142,0.1l0.142,0.1l0.141,0.101l0.14,0.102l0.14,0.102l0.139,0.104l0.139,0.103l0.138,0.105l8.414,-8.414l-0.189,-0.155l-0.191,-0.153l-0.191,-0.153l-0.192,-0.152l-0.193,-0.15l-0.193,-0.15l-0.194,-0.149l-0.196,-0.148l-0.196,-0.146l-0.196,-0.146l-0.198,-0.145l-0.198,-0.143l-0.199,-0.143l-0.2,-0.142l-0.2,-0.14l-0.201,-0.14l-0.202,-0.139l-0.203,-0.137l-0.204,-0.137l-0.204,-0.135l-0.205,-0.134l-0.206,-0.134l-0.206,-0.132l-0.207,-0.131l-0.208,-0.13l-0.209,-0.13l-0.209,-0.128l-0.21,-0.127l-0.211,-0.125l-0.211,-0.125l-0.212,-0.124l-0.213,-0.123l-0.214,-0.121l-0.214,-0.121l-0.215,-0.119l-0.215,-0.118l-0.217,-0.117l-0.217,-0.116l-0.217,-0.115l-0.219,-0.114l-0.218,-0.113l-0.22,-0.111l-0.22,-0.111l-0.221,-0.109l-0.222,-0.108l-0.222,-0.107l-0.223,-0.106l-0.223,-0.105l-0.224,-0.103l-0.225,-0.102l-0.225,-0.102l-0.226,-0.1l-0.227,-0.099l-0.227,-0.097l-0.228,-0.097l-0.228,-0.095l-0.229,-0.095l-0.23,-0.093l-0.23,-0.091l-0.231,-0.091l-0.231,-0.09l-0.232,-0.088l-0.233,-0.087l-0.233,-0.086l-0.233,-0.084l-0.235,-0.084l-0.234,-0.082l-0.236,-0.081l-0.236,-0.08l-0.236,-0.078l-0.237,-0.077l-0.238,-0.076l-0.238,-0.075l-0.239,-0.074l-0.239,-0.072l-0.24,-0.071l-0.24,-0.07l-0.241,-0.068l-0.241,-0.068l-0.242,-0.065l-0.242,-0.065l-0.243,-0.064l-0.243,-0.062l-0.244,-0.061l-0.244,-0.059l-0.245,-0.059l-0.245,-0.057l-0.246,-0.055l-0.247,-0.055l-0.246,-0.053l-0.248,-0.052l-0.247,-0.05l-0.248,-0.049l-0.249,-0.048l-0.249,-0.047l-0.25,-0.045l-0.25,-0.044l-0.25,-0.042l-0.251,-0.041l-0.251,-0.04l-0.252,-0.039l-0.252,-0.037l-0.253,-0.036l-0.253,-0.034l-0.254,-0.033l-0.253,-0.032l-0.255,-0.03l-0.255,-0.029l-0.255,-0.028l-0.255,-0.026l-0.256,-0.025l-0.256,-0.023l-0.257,-0.022l-0.257,-0.021l-0.258,-0.019l-0.258,-0.018l-0.258,-0.016l-0.259,-0.015l-0.259,-0.014l-0.259,-0.012l-0.26,-0.011l-0.26,-0.009l-0.26,-0.008l-0.261,-0.007l-0.261,-0.005l-0.262,-0.004l-0.262,-0.002l-0.262,0l-0.262,0Z" style="fill:#8c8c8c;"/></g><g><g><g><path d="M61.71,83.739c0,0.877 -0.711,1.587 -1.586,1.587c-0.876,0 -1.586,-0.71 -1.586,-1.587c-0.006,-6.712 -3.679,-17.971 -6.588,-23.219c-0.425,-0.767 -0.15,-1.733 0.614,-2.159c0.766,-0.425 1.731,-0.149 2.159,0.615c3.089,5.573 6.98,17.816 6.987,24.763Z" style="fill:#26a685;fill-rule:nonzero;"/><path d="M53.374,57.162l0.056,0.001l0.065,0.003l0.065,0.006l0.06,0.005l0.061,0.008l0.059,0.009l0.064,0.011l0.06,0.012l0.061,0.013l0.06,0.015l0.057,0.015l0.064,0.019l0.059,0.019l0.055,0.02l0.059,0.022l0.057,0.023l0.056,0.024l0.057,0.026l0.056,0.028l0.055,0.029l0.054,0.029l0.057,0.034l0.054,0.033l0.048,0.031l0.054,0.037l0.051,0.037l0.053,0.04l0.048,0.039l0.044,0.037l0.05,0.045l0.047,0.043l0.043,0.042l0.045,0.046l0.043,0.046l0.047,0.052l0.04,0.049l0.041,0.05l0.039,0.053l0.038,0.051l0.039,0.059l0.031,0.048l0.035,0.055l0.035,0.062l0.077,0.14l0.076,0.14l0.076,0.143l0.075,0.141l0.077,0.147l0.076,0.149l0.075,0.149l0.077,0.153l0.077,0.155l0.076,0.155l0.077,0.16l0.077,0.16l0.154,0.326l0.154,0.335l0.153,0.34l0.155,0.348l0.154,0.356l0.154,0.362l0.153,0.368l0.154,0.374l0.153,0.38l0.152,0.386l0.152,0.39l0.151,0.396l0.15,0.4l0.149,0.405l0.148,0.409l0.148,0.413l0.146,0.418l0.144,0.42l0.143,0.423l0.141,0.426l0.14,0.429l0.139,0.432l0.136,0.433l0.134,0.436l0.132,0.437l0.131,0.438l0.128,0.44l0.125,0.44l0.123,0.44l0.12,0.441l0.118,0.441l0.115,0.441l0.112,0.44l0.109,0.439l0.106,0.439l0.102,0.437l0.1,0.436l0.095,0.432l0.047,0.217l0.046,0.216l0.045,0.214l0.044,0.215l0.043,0.213l0.042,0.214l0.041,0.212l0.04,0.212l0.039,0.211l0.037,0.208l0.038,0.211l0.035,0.208l0.035,0.206l0.035,0.208l0.032,0.205l0.032,0.204l0.031,0.205l0.029,0.202l0.028,0.201l0.028,0.201l0.025,0.198l0.026,0.199l0.023,0.196l0.022,0.195l0.022,0.197l0.019,0.192l0.019,0.19l0.018,0.191l0.016,0.19l0.015,0.187l0.013,0.185l0.013,0.185l0.01,0.184l0.01,0.182l0.008,0.182l0.006,0.177l0.006,0.177l0.003,0.175l0.003,0.174l0.001,0.18l-0.001,0.06l-0.002,0.066l-0.005,0.065l-0.005,0.067l-0.008,0.065l-0.009,0.066l-0.011,0.066l-0.011,0.057l-0.014,0.065l-0.016,0.063l-0.015,0.058l-0.019,0.065l-0.021,0.063l-0.019,0.055l-0.024,0.064l-0.023,0.053l-0.022,0.054l-0.033,0.071l-0.028,0.053l-0.026,0.052l-0.03,0.053l-0.03,0.051l-0.036,0.058l-0.035,0.053l-0.034,0.049l-0.036,0.049l-0.042,0.056l-0.039,0.046l-0.034,0.041l-0.042,0.048l-0.043,0.046l-0.042,0.043l-0.045,0.045l-0.047,0.043l-0.047,0.042l-0.051,0.043l-0.042,0.034l-0.05,0.038l-0.054,0.039l-0.048,0.033l-0.052,0.035l-0.053,0.033l-0.053,0.031l-0.054,0.031l-0.059,0.031l-0.059,0.029l-0.053,0.024l-0.054,0.024l-0.06,0.025l-0.062,0.023l-0.06,0.022l-0.059,0.019l-0.062,0.018l-0.06,0.016l-0.065,0.017l-0.065,0.013l-0.061,0.012l-0.061,0.01l-0.066,0.01l-0.066,0.007l-0.065,0.006l-0.066,0.004l-0.066,0.003l-0.066,0l-0.065,0l-0.066,-0.003l-0.067,-0.004l-0.065,-0.006l-0.066,-0.007l-0.066,-0.01l-0.062,-0.01l-0.06,-0.012l-0.066,-0.013l-0.064,-0.017l-0.06,-0.016l-0.063,-0.018l-0.059,-0.019l-0.062,-0.023l-0.058,-0.022l-0.058,-0.024l-0.057,-0.025l-0.057,-0.026l-0.058,-0.029l-0.052,-0.027l-0.055,-0.031l-0.057,-0.033l-0.052,-0.033l-0.053,-0.035l-0.051,-0.036l-0.049,-0.036l-0.047,-0.035l-0.051,-0.041l-0.05,-0.043l-0.043,-0.038l-0.046,-0.043l-0.045,-0.045l-0.038,-0.038l-0.044,-0.046l-0.046,-0.053l-0.039,-0.046l-0.037,-0.047l-0.039,-0.05l-0.035,-0.049l-0.034,-0.049l-0.035,-0.053l-0.032,-0.051l-0.035,-0.058l-0.029,-0.053l-0.028,-0.052l-0.03,-0.06l-0.026,-0.057l-0.027,-0.061l-0.024,-0.061l-0.021,-0.056l-0.019,-0.055l-0.019,-0.055l-0.02,-0.065l-0.019,-0.074l-0.013,-0.055l-0.013,-0.057l-0.014,-0.074l-0.011,-0.065l-0.008,-0.058l-0.007,-0.065l-0.006,-0.067l-0.004,-0.065l-0.003,-0.066l0,-0.056l-0.001,-0.157l-0.003,-0.152l-0.003,-0.155l-0.005,-0.155l-0.005,-0.159l-0.007,-0.158l-0.008,-0.158l-0.01,-0.163l-0.011,-0.165l-0.011,-0.165l-0.013,-0.166l-0.015,-0.169l-0.015,-0.169l-0.017,-0.172l-0.017,-0.173l-0.019,-0.173l-0.02,-0.176l-0.021,-0.175l-0.022,-0.178l-0.024,-0.18l-0.024,-0.18l-0.025,-0.182l-0.026,-0.181l-0.028,-0.183l-0.029,-0.185l-0.03,-0.185l-0.03,-0.188l-0.032,-0.188l-0.032,-0.186l-0.034,-0.189l-0.035,-0.191l-0.035,-0.192l-0.036,-0.192l-0.037,-0.19l-0.039,-0.194l-0.038,-0.193l-0.082,-0.389l-0.084,-0.393l-0.087,-0.393l-0.091,-0.395l-0.094,-0.397l-0.097,-0.399l-0.1,-0.399l-0.103,-0.4l-0.105,-0.4l-0.108,-0.401l-0.111,-0.401l-0.113,-0.4l-0.116,-0.401l-0.117,-0.398l-0.12,-0.398l-0.121,-0.397l-0.124,-0.395l-0.125,-0.394l-0.128,-0.392l-0.129,-0.389l-0.13,-0.387l-0.131,-0.384l-0.133,-0.381l-0.134,-0.379l-0.135,-0.374l-0.136,-0.369l-0.137,-0.367l-0.138,-0.362l-0.138,-0.358l-0.139,-0.353l-0.139,-0.347l-0.14,-0.344l-0.14,-0.336l-0.139,-0.331l-0.141,-0.326l-0.139,-0.319l-0.139,-0.311l-0.14,-0.305l-0.139,-0.299l-0.138,-0.291l-0.136,-0.283l-0.136,-0.274l-0.137,-0.269l-0.067,-0.13l-0.066,-0.126l-0.067,-0.127l-0.067,-0.124l-0.065,-0.12l-0.067,-0.122l-0.03,-0.055l-0.033,-0.065l-0.027,-0.058l-0.024,-0.055l-0.025,-0.06l-0.027,-0.07l-0.019,-0.054l-0.02,-0.061l-0.018,-0.062l-0.016,-0.055l-0.018,-0.072l-0.013,-0.063l-0.013,-0.063l-0.009,-0.057l-0.01,-0.064l-0.007,-0.065l-0.006,-0.055l-0.005,-0.074l-0.002,-0.056l-0.002,-0.065l0.001,-0.065l0.001,-0.056l0.003,-0.065l0.005,-0.065l0.006,-0.056l0.007,-0.065l0.01,-0.063l0.009,-0.056l0.013,-0.064l0.012,-0.056l0.016,-0.063l0.017,-0.063l0.016,-0.055l0.02,-0.062l0.022,-0.063l0.021,-0.054l0.022,-0.054l0.023,-0.053l0.027,-0.06l0.03,-0.061l0.027,-0.052l0.031,-0.057l0.031,-0.052l0.03,-0.05l0.036,-0.055l0.036,-0.052l0.039,-0.054l0.036,-0.047l0.039,-0.049l0.043,-0.052l0.041,-0.045l0.043,-0.047l0.044,-0.045l0.044,-0.042l0.048,-0.046l0.048,-0.042l0.048,-0.041l0.057,-0.045l0.051,-0.038l0.049,-0.035l0.056,-0.038l0.056,-0.037l0.055,-0.033l0.058,-0.033l0.062,-0.034l0.057,-0.028l0.057,-0.027l0.061,-0.028l0.062,-0.025l0.058,-0.023l0.063,-0.023l0.064,-0.02l0.059,-0.018l0.062,-0.017l0.062,-0.015l0.064,-0.014l0.061,-0.012l0.061,-0.011l0.065,-0.01l0.064,-0.007l0.06,-0.006l0.065,-0.004l0.06,-0.003l0.065,-0.002l0.065,0.001Zm-0.094,1l-0.039,0.002l-0.038,0.003l-0.039,0.004l-0.038,0.004l-0.038,0.006l-0.039,0.006l-0.038,0.008l-0.038,0.008l-0.038,0.01l-0.038,0.01l-0.038,0.011l-0.038,0.013l-0.037,0.013l-0.037,0.015l-0.038,0.015l-0.036,0.016l-0.037,0.018l-0.036,0.018l-0.036,0.019l-0.036,0.021l-0.035,0.021l-0.034,0.022l-0.033,0.022l-0.032,0.024l-0.032,0.024l-0.031,0.024l-0.03,0.026l-0.03,0.026l-0.029,0.027l-0.028,0.027l-0.027,0.028l-0.026,0.028l-0.026,0.03l-0.025,0.029l-0.024,0.03l-0.023,0.031l-0.023,0.031l-0.022,0.032l-0.021,0.032l-0.02,0.033l-0.019,0.033l-0.018,0.033l-0.018,0.034l-0.017,0.034l-0.016,0.035l-0.015,0.035l-0.014,0.035l-0.014,0.036l-0.012,0.036l-0.012,0.036l-0.011,0.037l-0.01,0.036l-0.009,0.037l-0.008,0.038l-0.007,0.037l-0.007,0.038l-0.005,0.037l-0.005,0.038l-0.004,0.038l-0.003,0.038l-0.002,0.039l-0.001,0.038l0,0.038l0.001,0.039l0.002,0.038l0.003,0.039l0.003,0.038l0.005,0.039l0.005,0.038l0.007,0.038l0.007,0.039l0.009,0.038l0.009,0.038l0.011,0.038l0.011,0.038l0.012,0.037l0.014,0.038l0.014,0.037l0.015,0.037l0.017,0.037l0.017,0.037l0.018,0.036l0.02,0.036l0.068,0.124l0.069,0.127l0.068,0.128l0.07,0.131l0.069,0.132l0.069,0.135l0.14,0.275l0.14,0.283l0.141,0.291l0.142,0.298l0.142,0.305l0.142,0.312l0.142,0.319l0.143,0.325l0.142,0.332l0.143,0.337l0.142,0.342l0.142,0.349l0.142,0.353l0.141,0.359l0.14,0.363l0.14,0.367l0.139,0.372l0.138,0.376l0.137,0.379l0.135,0.383l0.135,0.386l0.133,0.389l0.132,0.392l0.131,0.395l0.129,0.396l0.127,0.399l0.125,0.401l0.123,0.402l0.122,0.403l0.119,0.405l0.117,0.405l0.114,0.406l0.112,0.407l0.11,0.406l0.107,0.406l0.104,0.406l0.102,0.406l0.098,0.404l0.096,0.403l0.092,0.402l0.089,0.401l0.086,0.398l0.082,0.397l0.04,0.197l0.039,0.197l0.038,0.196l0.037,0.195l0.036,0.195l0.036,0.194l0.034,0.194l0.033,0.192l0.032,0.192l0.032,0.191l0.03,0.19l0.029,0.189l0.028,0.188l0.028,0.187l0.026,0.186l0.025,0.185l0.024,0.184l0.022,0.183l0.022,0.182l0.021,0.181l0.019,0.179l0.018,0.178l0.018,0.177l0.016,0.176l0.014,0.175l0.014,0.173l0.012,0.171l0.011,0.171l0.01,0.169l0.009,0.167l0.007,0.166l0.006,0.165l0.005,0.163l0.003,0.161l0.003,0.16l0,0.158l0.001,0.041l0.001,0.041l0.003,0.04l0.004,0.04l0.004,0.04l0.006,0.04l0.006,0.039l0.008,0.039l0.008,0.039l0.009,0.038l0.011,0.038l0.011,0.037l0.012,0.037l0.013,0.037l0.013,0.036l0.015,0.036l0.015,0.035l0.017,0.035l0.017,0.035l0.018,0.034l0.018,0.033l0.02,0.033l0.02,0.033l0.021,0.032l0.022,0.031l0.022,0.031l0.024,0.03l0.023,0.03l0.025,0.029l0.025,0.028l0.026,0.028l0.027,0.028l0.027,0.026l0.028,0.026l0.028,0.025l0.029,0.025l0.03,0.024l0.03,0.023l0.031,0.023l0.031,0.021l0.032,0.021l0.033,0.021l0.033,0.019l0.033,0.019l0.034,0.018l0.035,0.017l0.034,0.016l0.036,0.016l0.036,0.014l0.036,0.014l0.036,0.013l0.038,0.012l0.037,0.011l0.038,0.01l0.038,0.01l0.038,0.008l0.039,0.008l0.04,0.006l0.039,0.006l0.04,0.004l0.04,0.004l0.04,0.002l0.041,0.002l0.041,0l0.041,0l0.041,-0.002l0.04,-0.002l0.04,-0.004l0.04,-0.004l0.039,-0.006l0.04,-0.006l0.039,-0.008l0.038,-0.008l0.038,-0.01l0.038,-0.01l0.037,-0.011l0.038,-0.012l0.036,-0.013l0.036,-0.014l0.036,-0.014l0.036,-0.016l0.034,-0.016l0.035,-0.017l0.034,-0.018l0.033,-0.019l0.033,-0.019l0.033,-0.021l0.032,-0.021l0.031,-0.021l0.031,-0.023l0.03,-0.023l0.03,-0.024l0.029,-0.025l0.028,-0.025l0.028,-0.026l0.027,-0.026l0.027,-0.028l0.026,-0.028l0.025,-0.028l0.025,-0.029l0.024,-0.03l0.023,-0.03l0.022,-0.031l0.022,-0.031l0.021,-0.032l0.02,-0.033l0.02,-0.033l0.018,-0.033l0.018,-0.034l0.017,-0.035l0.017,-0.035l0.015,-0.035l0.015,-0.036l0.014,-0.036l0.013,-0.037l0.012,-0.037l0.011,-0.037l0.01,-0.038l0.009,-0.038l0.009,-0.039l0.007,-0.039l0.007,-0.039l0.005,-0.04l0.005,-0.04l0.003,-0.04l0.003,-0.04l0.001,-0.041l0.001,-0.041l-0.001,-0.164l-0.002,-0.165l-0.004,-0.168l-0.005,-0.169l-0.006,-0.172l-0.008,-0.173l-0.009,-0.174l-0.011,-0.177l-0.011,-0.178l-0.014,-0.18l-0.014,-0.181l-0.016,-0.183l-0.016,-0.184l-0.019,-0.186l-0.019,-0.187l-0.021,-0.189l-0.021,-0.19l-0.023,-0.192l-0.025,-0.193l-0.025,-0.194l-0.026,-0.195l-0.028,-0.197l-0.029,-0.198l-0.03,-0.199l-0.031,-0.2l-0.032,-0.201l-0.033,-0.202l-0.034,-0.203l-0.035,-0.204l-0.037,-0.205l-0.037,-0.207l-0.038,-0.206l-0.04,-0.208l-0.04,-0.209l-0.041,-0.209l-0.042,-0.21l-0.043,-0.211l-0.045,-0.212l-0.045,-0.212l-0.045,-0.212l-0.095,-0.428l-0.098,-0.429l-0.101,-0.431l-0.104,-0.432l-0.108,-0.433l-0.11,-0.435l-0.114,-0.435l-0.116,-0.435l-0.119,-0.436l-0.121,-0.435l-0.124,-0.435l-0.127,-0.434l-0.128,-0.433l-0.131,-0.432l-0.133,-0.43l-0.135,-0.429l-0.136,-0.426l-0.138,-0.424l-0.14,-0.421l-0.142,-0.419l-0.142,-0.415l-0.145,-0.412l-0.145,-0.408l-0.146,-0.404l-0.147,-0.399l-0.149,-0.395l-0.149,-0.391l-0.149,-0.385l-0.15,-0.38l-0.151,-0.374l-0.151,-0.368l-0.151,-0.362l-0.151,-0.355l-0.151,-0.349l-0.151,-0.342l-0.151,-0.334l-0.151,-0.327l-0.15,-0.319l-0.075,-0.156l-0.075,-0.154l-0.074,-0.153l-0.075,-0.15l-0.074,-0.148l-0.074,-0.146l-0.074,-0.143l-0.073,-0.141l-0.074,-0.139l-0.073,-0.137l-0.072,-0.134l-0.073,-0.132l-0.02,-0.035l-0.022,-0.035l-0.022,-0.034l-0.022,-0.034l-0.024,-0.032l-0.024,-0.032l-0.025,-0.031l-0.025,-0.03l-0.026,-0.03l-0.027,-0.029l-0.027,-0.028l-0.028,-0.027l-0.029,-0.026l-0.029,-0.026l-0.03,-0.025l-0.03,-0.024l-0.031,-0.024l-0.031,-0.022l-0.032,-0.022l-0.032,-0.021l-0.033,-0.02l-0.033,-0.019l-0.033,-0.019l-0.034,-0.017l-0.034,-0.017l-0.035,-0.016l-0.035,-0.015l-0.035,-0.015l-0.036,-0.013l-0.036,-0.013l-0.036,-0.011l-0.037,-0.011l-0.036,-0.01l-0.037,-0.009l-0.037,-0.009l-0.038,-0.007l-0.037,-0.006l-0.038,-0.006l-0.038,-0.005l-0.038,-0.003l-0.038,-0.003l-0.038,-0.002l-0.039,-0.001l-0.038,0l-0.038,0Z" style="fill:#fff;"/><path d="M67.88,83.739c0,0.877 -0.71,1.587 -1.585,1.587c-0.876,0 -1.586,-0.71 -1.586,-1.587c0.007,-6.948 3.898,-19.19 6.987,-24.763c0.424,-0.768 1.393,-1.043 2.156,-0.615c0.767,0.426 1.038,1.395 0.614,2.159c-2.909,5.247 -6.582,16.507 -6.586,23.219Z" style="fill:#26a685;fill-rule:nonzero;"/><path d="M73.173,57.161l0.06,0.003l0.065,0.005l0.064,0.006l0.065,0.008l0.059,0.009l0.061,0.01l0.068,0.013l0.063,0.015l0.055,0.014l0.064,0.017l0.065,0.02l0.061,0.02l0.062,0.023l0.059,0.022l0.059,0.025l0.061,0.027l0.063,0.031l0.056,0.029l0.056,0.03l0.058,0.033l0.054,0.033l0.054,0.034l0.056,0.038l0.055,0.04l0.051,0.038l0.054,0.043l0.048,0.041l0.046,0.04l0.046,0.043l0.047,0.045l0.046,0.048l0.043,0.046l0.043,0.048l0.043,0.052l0.036,0.045l0.037,0.048l0.041,0.057l0.038,0.056l0.031,0.049l0.031,0.049l0.03,0.052l0.03,0.053l0.034,0.066l0.025,0.052l0.024,0.053l0.026,0.06l0.023,0.055l0.023,0.063l0.021,0.06l0.017,0.054l0.017,0.056l0.017,0.063l0.015,0.064l0.012,0.055l0.011,0.056l0.012,0.064l0.011,0.073l0.012,0.112l0.004,0.065l0.004,0.065l0.001,0.064l0,0.056l-0.001,0.066l-0.004,0.065l-0.004,0.055l-0.005,0.065l-0.008,0.064l-0.01,0.064l-0.011,0.064l-0.012,0.065l-0.013,0.055l-0.015,0.063l-0.02,0.071l-0.017,0.054l-0.017,0.055l-0.025,0.07l-0.024,0.061l-0.021,0.052l-0.03,0.068l-0.029,0.06l-0.026,0.051l-0.028,0.053l-0.072,0.129l-0.065,0.12l-0.066,0.124l-0.067,0.126l-0.066,0.128l-0.067,0.129l-0.137,0.269l-0.136,0.274l-0.137,0.283l-0.139,0.292l-0.138,0.297l-0.139,0.306l-0.14,0.312l-0.139,0.318l-0.14,0.325l-0.14,0.332l-0.14,0.337l-0.139,0.342l-0.14,0.348l-0.139,0.352l-0.137,0.358l-0.138,0.362l-0.137,0.367l-0.137,0.37l-0.134,0.374l-0.134,0.379l-0.134,0.381l-0.131,0.383l-0.13,0.387l-0.129,0.39l-0.127,0.392l-0.125,0.392l-0.124,0.396l-0.122,0.397l-0.119,0.397l-0.117,0.401l-0.116,0.4l-0.113,0.399l-0.11,0.402l-0.109,0.4l-0.105,0.401l-0.103,0.4l-0.1,0.399l-0.097,0.398l-0.093,0.397l-0.091,0.396l-0.088,0.394l-0.084,0.391l-0.081,0.389l-0.038,0.192l-0.038,0.194l-0.038,0.194l-0.037,0.191l-0.035,0.191l-0.034,0.189l-0.033,0.189l-0.033,0.19l-0.032,0.187l-0.03,0.185l-0.03,0.185l-0.028,0.187l-0.028,0.183l-0.026,0.181l-0.026,0.182l-0.024,0.18l-0.023,0.178l-0.022,0.178l-0.021,0.177l-0.02,0.176l-0.019,0.175l-0.018,0.171l-0.016,0.17l-0.015,0.171l-0.015,0.169l-0.013,0.166l-0.011,0.165l-0.011,0.165l-0.01,0.161l-0.007,0.16l-0.008,0.16l-0.005,0.157l-0.005,0.155l-0.003,0.153l-0.002,0.151l-0.001,0.16l-0.001,0.056l-0.002,0.066l-0.004,0.066l-0.006,0.065l-0.008,0.067l-0.008,0.057l-0.01,0.065l-0.014,0.074l-0.013,0.057l-0.013,0.057l-0.02,0.072l-0.017,0.056l-0.017,0.056l-0.025,0.071l-0.022,0.056l-0.022,0.055l-0.027,0.061l-0.025,0.053l-0.03,0.061l-0.029,0.055l-0.028,0.05l-0.035,0.059l-0.033,0.053l-0.032,0.048l-0.035,0.05l-0.037,0.051l-0.038,0.05l-0.038,0.047l-0.039,0.047l-0.046,0.052l-0.044,0.046l-0.039,0.041l-0.043,0.042l-0.046,0.043l-0.048,0.042l-0.044,0.037l-0.051,0.042l-0.048,0.036l-0.046,0.034l-0.055,0.038l-0.055,0.037l-0.054,0.033l-0.05,0.03l-0.054,0.03l-0.058,0.031l-0.056,0.027l-0.053,0.025l-0.06,0.027l-0.062,0.025l-0.058,0.022l-0.055,0.019l-0.065,0.022l-0.061,0.017l-0.057,0.016l-0.067,0.016l-0.061,0.014l-0.065,0.012l-0.066,0.011l-0.061,0.008l-0.066,0.008l-0.065,0.006l-0.066,0.004l-0.066,0.002l-0.066,0.002l-0.066,-0.002l-0.067,-0.002l-0.065,-0.004l-0.065,-0.006l-0.067,-0.008l-0.061,-0.008l-0.066,-0.011l-0.065,-0.012l-0.061,-0.014l-0.064,-0.015l-0.061,-0.017l-0.062,-0.018l-0.063,-0.021l-0.052,-0.018l-0.062,-0.023l-0.064,-0.027l-0.053,-0.024l-0.057,-0.026l-0.059,-0.029l-0.051,-0.027l-0.059,-0.032l-0.053,-0.033l-0.049,-0.03l-0.056,-0.037l-0.054,-0.038l-0.047,-0.034l-0.043,-0.033l-0.057,-0.045l-0.047,-0.041l-0.043,-0.038l-0.046,-0.043l-0.039,-0.038l-0.045,-0.045l-0.047,-0.051l-0.042,-0.047l-0.039,-0.047l-0.038,-0.047l-0.034,-0.044l-0.037,-0.051l-0.043,-0.062l-0.031,-0.048l-0.029,-0.047l-0.035,-0.059l-0.028,-0.05l-0.03,-0.055l-0.03,-0.061l-0.024,-0.053l-0.027,-0.061l-0.022,-0.055l-0.022,-0.056l-0.025,-0.071l-0.018,-0.056l-0.017,-0.056l-0.02,-0.072l-0.013,-0.057l-0.013,-0.057l-0.014,-0.074l-0.01,-0.065l-0.008,-0.057l-0.008,-0.067l-0.005,-0.065l-0.005,-0.066l-0.002,-0.066l-0.001,-0.06l0.001,-0.178l0.002,-0.176l0.004,-0.175l0.005,-0.177l0.007,-0.179l0.008,-0.18l0.01,-0.183l0.011,-0.181l0.012,-0.187l0.014,-0.187l0.014,-0.186l0.017,-0.189l0.017,-0.189l0.018,-0.193l0.021,-0.193l0.021,-0.194l0.022,-0.196l0.024,-0.198l0.025,-0.197l0.025,-0.198l0.028,-0.202l0.028,-0.2l0.029,-0.202l0.031,-0.205l0.032,-0.204l0.033,-0.205l0.033,-0.207l0.035,-0.207l0.036,-0.208l0.037,-0.209l0.038,-0.212l0.04,-0.211l0.039,-0.21l0.041,-0.213l0.043,-0.213l0.042,-0.212l0.044,-0.215l0.045,-0.217l0.046,-0.214l0.046,-0.216l0.096,-0.434l0.099,-0.435l0.103,-0.438l0.106,-0.438l0.109,-0.439l0.112,-0.441l0.115,-0.44l0.117,-0.441l0.121,-0.441l0.123,-0.441l0.126,-0.44l0.127,-0.439l0.13,-0.438l0.132,-0.438l0.135,-0.435l0.136,-0.433l0.138,-0.432l0.141,-0.429l0.141,-0.426l0.143,-0.423l0.145,-0.421l0.146,-0.417l0.146,-0.413l0.149,-0.41l0.149,-0.404l0.15,-0.4l0.151,-0.396l0.152,-0.391l0.153,-0.385l0.152,-0.379l0.153,-0.375l0.154,-0.368l0.154,-0.362l0.154,-0.356l0.155,-0.348l0.153,-0.341l0.155,-0.334l0.153,-0.325l0.077,-0.162l0.077,-0.158l0.076,-0.156l0.077,-0.156l0.077,-0.152l0.075,-0.149l0.076,-0.149l0.077,-0.147l0.075,-0.141l0.075,-0.142l0.077,-0.141l0.078,-0.142l0.03,-0.052l0.034,-0.056l0.037,-0.059l0.037,-0.053l0.034,-0.048l0.042,-0.057l0.04,-0.05l0.038,-0.046l0.048,-0.055l0.044,-0.047l0.04,-0.041l0.047,-0.047l0.049,-0.045l0.046,-0.041l0.048,-0.04l0.05,-0.04l0.051,-0.04l0.052,-0.037l0.051,-0.035l0.051,-0.033l0.053,-0.034l0.057,-0.033l0.054,-0.029l0.052,-0.027l0.055,-0.028l0.06,-0.028l0.057,-0.024l0.055,-0.022l0.058,-0.023l0.065,-0.022l0.057,-0.018l0.052,-0.016l0.062,-0.017l0.065,-0.016l0.063,-0.014l0.058,-0.011l0.055,-0.01l0.065,-0.01l0.066,-0.007l0.06,-0.006l0.06,-0.004l0.06,-0.004l0.066,-0.001l0.064,0l0.061,0.001Zm-0.112,0.999l-0.038,0.001l-0.039,0.002l-0.038,0.002l-0.038,0.004l-0.038,0.005l-0.037,0.005l-0.038,0.007l-0.037,0.007l-0.037,0.008l-0.037,0.009l-0.037,0.01l-0.037,0.011l-0.036,0.012l-0.036,0.013l-0.035,0.013l-0.036,0.014l-0.035,0.016l-0.034,0.016l-0.035,0.016l-0.034,0.018l-0.033,0.019l-0.033,0.019l-0.033,0.02l-0.032,0.021l-0.032,0.022l-0.031,0.023l-0.031,0.023l-0.03,0.024l-0.029,0.025l-0.029,0.026l-0.029,0.027l-0.028,0.027l-0.027,0.028l-0.027,0.029l-0.026,0.03l-0.025,0.03l-0.025,0.031l-0.024,0.032l-0.023,0.033l-0.023,0.033l-0.022,0.034l-0.021,0.035l-0.02,0.036l-0.073,0.132l-0.072,0.134l-0.073,0.137l-0.074,0.139l-0.073,0.141l-0.074,0.143l-0.074,0.146l-0.074,0.148l-0.075,0.15l-0.074,0.153l-0.075,0.154l-0.075,0.156l-0.15,0.319l-0.151,0.327l-0.151,0.334l-0.151,0.342l-0.151,0.349l-0.151,0.355l-0.151,0.362l-0.151,0.368l-0.151,0.374l-0.15,0.38l-0.15,0.385l-0.148,0.391l-0.149,0.395l-0.147,0.399l-0.146,0.404l-0.146,0.408l-0.144,0.412l-0.142,0.415l-0.142,0.419l-0.14,0.421l-0.138,0.424l-0.137,0.426l-0.134,0.429l-0.133,0.43l-0.131,0.432l-0.128,0.433l-0.127,0.434l-0.124,0.435l-0.121,0.435l-0.119,0.436l-0.116,0.435l-0.114,0.435l-0.11,0.434l-0.108,0.434l-0.104,0.432l-0.101,0.431l-0.098,0.429l-0.095,0.427l-0.046,0.213l-0.045,0.212l-0.044,0.212l-0.043,0.21l-0.042,0.211l-0.041,0.209l-0.041,0.208l-0.039,0.208l-0.038,0.207l-0.037,0.206l-0.037,0.205l-0.035,0.205l-0.034,0.203l-0.033,0.202l-0.032,0.201l-0.031,0.2l-0.03,0.199l-0.029,0.198l-0.028,0.197l-0.026,0.195l-0.026,0.194l-0.024,0.193l-0.023,0.192l-0.022,0.19l-0.02,0.188l-0.019,0.188l-0.019,0.186l-0.017,0.184l-0.015,0.183l-0.014,0.181l-0.014,0.18l-0.011,0.178l-0.011,0.177l-0.009,0.174l-0.008,0.173l-0.006,0.171l-0.005,0.17l-0.004,0.167l-0.002,0.166l-0.001,0.164l0.001,0.041l0.001,0.041l0.003,0.04l0.003,0.04l0.005,0.04l0.005,0.04l0.007,0.039l0.007,0.039l0.009,0.039l0.009,0.038l0.01,0.038l0.011,0.037l0.012,0.037l0.013,0.037l0.014,0.036l0.015,0.036l0.015,0.035l0.016,0.035l0.017,0.035l0.018,0.034l0.019,0.033l0.02,0.033l0.02,0.033l0.021,0.032l0.022,0.031l0.022,0.031l0.023,0.03l0.024,0.03l0.025,0.029l0.025,0.028l0.026,0.028l0.026,0.028l0.028,0.026l0.027,0.026l0.029,0.025l0.029,0.025l0.03,0.024l0.03,0.023l0.031,0.023l0.031,0.021l0.032,0.021l0.032,0.021l0.033,0.019l0.034,0.019l0.034,0.018l0.034,0.017l0.035,0.016l0.035,0.016l0.036,0.014l0.036,0.014l0.037,0.013l0.037,0.012l0.038,0.011l0.037,0.01l0.039,0.01l0.038,0.008l0.039,0.008l0.039,0.006l0.04,0.006l0.04,0.004l0.04,0.004l0.04,0.002l0.041,0.002l0.041,0l0.041,0l0.04,-0.002l0.041,-0.002l0.04,-0.004l0.04,-0.004l0.039,-0.006l0.039,-0.006l0.039,-0.008l0.039,-0.008l0.038,-0.01l0.038,-0.01l0.037,-0.011l0.037,-0.012l0.037,-0.013l0.036,-0.014l0.036,-0.014l0.035,-0.016l0.035,-0.016l0.034,-0.017l0.034,-0.018l0.034,-0.019l0.033,-0.019l0.032,-0.021l0.032,-0.021l0.031,-0.021l0.031,-0.023l0.031,-0.023l0.029,-0.024l0.029,-0.025l0.029,-0.025l0.028,-0.026l0.027,-0.026l0.026,-0.028l0.026,-0.028l0.026,-0.028l0.024,-0.029l0.024,-0.03l0.023,-0.03l0.023,-0.031l0.021,-0.031l0.021,-0.032l0.021,-0.033l0.019,-0.033l0.019,-0.033l0.018,-0.034l0.017,-0.035l0.016,-0.035l0.016,-0.035l0.014,-0.036l0.014,-0.036l0.013,-0.037l0.012,-0.037l0.011,-0.037l0.01,-0.038l0.01,-0.038l0.008,-0.039l0.008,-0.039l0.006,-0.039l0.006,-0.04l0.004,-0.04l0.004,-0.04l0.002,-0.04l0.002,-0.041l0,-0.041l0.001,-0.158l0.002,-0.16l0.004,-0.161l0.004,-0.163l0.006,-0.165l0.008,-0.166l0.008,-0.167l0.01,-0.169l0.011,-0.171l0.012,-0.171l0.014,-0.173l0.014,-0.175l0.016,-0.176l0.017,-0.177l0.019,-0.178l0.019,-0.18l0.021,-0.18l0.021,-0.182l0.023,-0.183l0.024,-0.184l0.025,-0.185l0.026,-0.186l0.027,-0.187l0.028,-0.189l0.029,-0.189l0.031,-0.19l0.031,-0.19l0.032,-0.192l0.033,-0.193l0.034,-0.193l0.036,-0.194l0.036,-0.195l0.037,-0.195l0.038,-0.196l0.039,-0.197l0.039,-0.197l0.083,-0.397l0.085,-0.399l0.089,-0.4l0.093,-0.402l0.095,-0.403l0.098,-0.405l0.102,-0.405l0.104,-0.406l0.107,-0.406l0.11,-0.407l0.112,-0.406l0.114,-0.406l0.117,-0.405l0.119,-0.405l0.122,-0.403l0.123,-0.402l0.125,-0.401l0.127,-0.399l0.129,-0.397l0.13,-0.394l0.132,-0.392l0.134,-0.389l0.134,-0.386l0.136,-0.383l0.137,-0.38l0.138,-0.375l0.139,-0.372l0.14,-0.368l0.14,-0.363l0.141,-0.358l0.142,-0.354l0.141,-0.348l0.143,-0.343l0.142,-0.337l0.143,-0.331l0.142,-0.325l0.143,-0.319l0.142,-0.312l0.142,-0.305l0.141,-0.298l0.141,-0.291l0.141,-0.283l0.139,-0.275l0.07,-0.135l0.069,-0.132l0.069,-0.131l0.069,-0.128l0.069,-0.127l0.068,-0.124l0.019,-0.036l0.019,-0.036l0.017,-0.036l0.016,-0.037l0.016,-0.037l0.014,-0.037l0.013,-0.038l0.013,-0.037l0.011,-0.038l0.011,-0.038l0.009,-0.038l0.009,-0.038l0.007,-0.038l0.007,-0.039l0.005,-0.038l0.005,-0.038l0.003,-0.039l0.003,-0.038l0.002,-0.039l0.001,-0.038l0,-0.039l-0.001,-0.038l-0.002,-0.038l-0.003,-0.038l-0.003,-0.038l-0.005,-0.038l-0.006,-0.038l-0.006,-0.038l-0.007,-0.037l-0.008,-0.037l-0.009,-0.037l-0.01,-0.037l-0.011,-0.037l-0.012,-0.036l-0.012,-0.036l-0.014,-0.036l-0.014,-0.035l-0.015,-0.035l-0.016,-0.035l-0.017,-0.034l-0.018,-0.034l-0.018,-0.033l-0.019,-0.034l-0.02,-0.032l-0.021,-0.032l-0.022,-0.032l-0.023,-0.031l-0.023,-0.031l-0.024,-0.03l-0.025,-0.03l-0.026,-0.029l-0.026,-0.029l-0.028,-0.028l-0.028,-0.027l-0.028,-0.027l-0.03,-0.026l-0.03,-0.025l-0.032,-0.025l-0.031,-0.024l-0.033,-0.024l-0.033,-0.022l-0.035,-0.022l-0.034,-0.021l-0.036,-0.021l-0.036,-0.019l-0.036,-0.019l-0.037,-0.017l-0.036,-0.017l-0.037,-0.015l-0.037,-0.015l-0.038,-0.013l-0.037,-0.013l-0.038,-0.011l-0.038,-0.01l-0.038,-0.01l-0.038,-0.009l-0.038,-0.007l-0.039,-0.007l-0.038,-0.005l-0.038,-0.005l-0.039,-0.004l-0.038,-0.003l-0.038,-0.001l-0.039,-0.001l-0.038,0Z" style="fill:#fff;"/></g><path d="M52.852,61.261c-0.836,-0.266 -1.294,-1.163 -1.028,-2c0.268,-0.837 1.16,-1.295 1.997,-1.029c1.108,0.359 2.067,0.84 2.952,1.286l0.087,0.046c1.383,0.698 2.534,1.242 3.39,0.545l1.957,-1.598c0.68,-0.551 1.682,-0.448 2.233,0.232c0.551,0.681 0.448,1.684 -0.232,2.236l-1.957,1.597c-2.438,1.986 -4.433,1.02 -6.834,-0.186l-0.073,-0.033c-0.776,-0.392 -1.62,-0.814 -2.492,-1.096Z" style="fill:#26a685;fill-rule:nonzero;"/><path d="M53.421,57.158l0.064,0.003l0.064,0.004l0.065,0.006l0.062,0.008l0.064,0.009l0.063,0.011l0.067,0.013l0.064,0.014l0.064,0.016l0.062,0.017l0.061,0.019l0.12,0.039l0.111,0.038l0.109,0.038l0.108,0.038l0.107,0.04l0.106,0.039l0.105,0.04l0.107,0.042l0.205,0.083l0.2,0.084l0.199,0.085l0.195,0.087l0.19,0.087l0.186,0.088l0.184,0.087l0.18,0.088l0.177,0.087l0.175,0.087l0.35,0.175l0.085,0.046l0.243,0.121l0.121,0.061l0.119,0.058l0.118,0.056l0.113,0.054l0.113,0.052l0.106,0.047l0.105,0.045l0.102,0.042l0.096,0.038l0.094,0.035l0.092,0.031l0.089,0.029l0.036,0.01l0.042,0.012l0.041,0.011l0.034,0.008l0.039,0.009l0.037,0.008l0.029,0.006l0.035,0.006l0.032,0.005l0.027,0.003l0.032,0.004l0.029,0.003l0.024,0.001l0.023,0.001l0.024,0l0.021,0l0.021,-0.001l0.017,-0.001l0.019,-0.002l0.02,-0.002l0.011,-0.002l0.015,-0.003l0.017,-0.004l0.015,-0.004l0.009,-0.003l0.012,-0.003l0.014,-0.006l0.01,-0.004l0.012,-0.005l0.013,-0.007l0.011,-0.006l0.014,-0.008l0.01,-0.007l0.011,-0.007l0.017,-0.012l0.022,-0.018l1.957,-1.598l0.045,-0.035l0.051,-0.039l0.057,-0.04l0.054,-0.036l0.059,-0.038l0.056,-0.033l0.053,-0.03l0.054,-0.029l0.058,-0.03l0.063,-0.029l0.057,-0.025l0.056,-0.024l0.062,-0.023l0.061,-0.022l0.06,-0.02l0.058,-0.017l0.06,-0.017l0.065,-0.016l0.062,-0.014l0.058,-0.011l0.06,-0.011l0.063,-0.01l0.064,-0.007l0.059,-0.006l0.064,-0.005l0.063,-0.003l0.064,-0.002l0.059,0l0.061,0.001l0.063,0.003l0.064,0.004l0.059,0.006l0.059,0.006l0.063,0.009l0.064,0.01l0.058,0.012l0.062,0.012l0.065,0.016l0.055,0.015l0.06,0.017l0.06,0.02l0.054,0.018l0.061,0.022l0.061,0.025l0.06,0.025l0.055,0.025l0.056,0.027l0.057,0.03l0.05,0.028l0.057,0.032l0.059,0.036l0.052,0.034l0.053,0.036l0.052,0.038l0.05,0.038l0.051,0.041l0.049,0.041l0.048,0.042l0.048,0.045l0.045,0.044l0.048,0.05l0.045,0.048l0.043,0.05l0.044,0.053l0.042,0.053l0.038,0.051l0.038,0.053l0.037,0.056l0.032,0.051l0.034,0.056l0.033,0.058l0.031,0.058l0.029,0.057l0.028,0.059l0.026,0.06l0.025,0.06l0.023,0.06l0.018,0.053l0.021,0.062l0.019,0.061l0.017,0.062l0.015,0.062l0.014,0.063l0.012,0.063l0.01,0.055l0.01,0.063l0.007,0.063l0.006,0.056l0.005,0.063l0.004,0.073l0.001,0.064l0,0.055l-0.001,0.055l-0.002,0.064l-0.005,0.072l-0.006,0.055l-0.006,0.064l-0.01,0.063l-0.009,0.055l-0.012,0.062l-0.013,0.063l-0.015,0.064l-0.015,0.053l-0.017,0.062l-0.02,0.062l-0.019,0.054l-0.022,0.061l-0.024,0.059l-0.022,0.053l-0.027,0.06l-0.028,0.058l-0.031,0.06l-0.031,0.057l-0.029,0.049l-0.031,0.052l-0.036,0.056l-0.037,0.053l-0.039,0.054l-0.038,0.05l-0.041,0.052l-0.042,0.049l-0.041,0.047l-0.047,0.05l-0.043,0.043l-0.049,0.048l-0.048,0.045l-0.048,0.042l-0.046,0.038l-1.965,1.605l-0.127,0.1l-0.128,0.098l-0.067,0.05l-0.063,0.045l-0.065,0.047l-0.068,0.047l-0.065,0.043l-0.064,0.042l-0.064,0.041l-0.066,0.042l-0.069,0.041l-0.064,0.038l-0.064,0.037l-0.065,0.037l-0.067,0.036l-0.069,0.037l-0.063,0.032l-0.063,0.031l-0.069,0.033l-0.069,0.032l-0.064,0.028l-0.065,0.028l-0.066,0.028l-0.068,0.027l-0.066,0.025l-0.067,0.025l-0.066,0.023l-0.067,0.023l-0.065,0.021l-0.066,0.02l-0.07,0.02l-0.062,0.018l-0.067,0.017l-0.07,0.018l-0.067,0.015l-0.064,0.014l-0.065,0.013l-0.071,0.014l-0.129,0.021l-0.132,0.018l-0.134,0.015l-0.13,0.011l-0.131,0.007l-0.13,0.004l-0.129,0l-0.13,-0.003l-0.128,-0.006l-0.129,-0.009l-0.125,-0.012l-0.126,-0.015l-0.126,-0.018l-0.125,-0.02l-0.122,-0.023l-0.123,-0.025l-0.122,-0.028l-0.121,-0.03l-0.121,-0.032l-0.119,-0.033l-0.118,-0.036l-0.12,-0.037l-0.116,-0.039l-0.117,-0.04l-0.117,-0.043l-0.116,-0.043l-0.116,-0.046l-0.115,-0.046l-0.113,-0.046l-0.114,-0.049l-0.116,-0.05l-0.113,-0.05l-0.113,-0.051l-0.114,-0.053l-0.224,-0.105l-0.226,-0.109l-0.225,-0.111l-0.226,-0.112l-0.21,-0.105l-0.073,-0.034l-0.308,-0.154l-0.294,-0.147l-0.146,-0.071l-0.148,-0.071l-0.147,-0.069l-0.147,-0.068l-0.147,-0.066l-0.148,-0.065l-0.148,-0.062l-0.148,-0.06l-0.147,-0.058l-0.147,-0.054l-0.071,-0.026l-0.075,-0.026l-0.073,-0.025l-0.081,-0.026l-0.05,-0.017l-0.059,-0.021l-0.064,-0.025l-0.064,-0.027l-0.059,-0.027l-0.052,-0.025l-0.063,-0.031l-0.06,-0.034l-0.05,-0.029l-0.06,-0.036l-0.051,-0.034l-0.052,-0.035l-0.053,-0.038l-0.05,-0.038l-0.051,-0.041l-0.049,-0.04l-0.044,-0.039l-0.048,-0.045l-0.049,-0.048l-0.041,-0.042l-0.043,-0.046l-0.041,-0.046l-0.039,-0.046l-0.042,-0.051l-0.037,-0.05l-0.035,-0.048l-0.038,-0.055l-0.032,-0.05l-0.032,-0.05l-0.03,-0.051l-0.033,-0.058l-0.03,-0.058l-0.026,-0.051l-0.028,-0.06l-0.024,-0.054l-0.022,-0.054l-0.026,-0.066l-0.019,-0.055l-0.018,-0.055l-0.019,-0.061l-0.017,-0.063l-0.016,-0.063l-0.013,-0.055l-0.013,-0.063l-0.01,-0.063l-0.009,-0.056l-0.009,-0.064l-0.007,-0.072l-0.004,-0.065l-0.003,-0.055l-0.002,-0.064l0,-0.065l0.001,-0.055l0.002,-0.073l0.005,-0.064l0.005,-0.055l0.008,-0.072l0.011,-0.071l0.01,-0.056l0.011,-0.063l0.017,-0.07l0.015,-0.062l0.018,-0.063l0.018,-0.062l0.022,-0.064l0.023,-0.064l0.025,-0.063l0.023,-0.055l0.028,-0.064l0.03,-0.062l0.028,-0.053l0.029,-0.055l0.035,-0.06l0.036,-0.059l0.034,-0.052l0.036,-0.051l0.036,-0.051l0.038,-0.049l0.039,-0.049l0.04,-0.048l0.041,-0.047l0.044,-0.048l0.044,-0.045l0.044,-0.044l0.048,-0.044l0.047,-0.042l0.047,-0.04l0.047,-0.038l0.048,-0.036l0.05,-0.037l0.054,-0.038l0.054,-0.035l0.049,-0.031l0.052,-0.031l0.06,-0.034l0.051,-0.026l0.055,-0.028l0.055,-0.025l0.056,-0.025l0.063,-0.026l0.054,-0.021l0.054,-0.02l0.062,-0.02l0.065,-0.02l0.057,-0.016l0.058,-0.015l0.06,-0.013l0.062,-0.013l0.065,-0.011l0.06,-0.009l0.062,-0.009l0.065,-0.006l0.061,-0.005l0.063,-0.003l0.065,-0.002l0.059,-0.001l0.068,0.002Zm-0.111,0.999l-0.039,0.001l-0.039,0.002l-0.038,0.003l-0.039,0.004l-0.038,0.005l-0.038,0.006l-0.038,0.006l-0.037,0.008l-0.038,0.009l-0.037,0.009l-0.037,0.01l-0.036,0.011l-0.037,0.012l-0.035,0.013l-0.036,0.014l-0.035,0.015l-0.035,0.015l-0.035,0.016l-0.034,0.017l-0.033,0.018l-0.034,0.019l-0.032,0.019l-0.033,0.02l-0.031,0.021l-0.032,0.022l-0.031,0.023l-0.03,0.023l-0.03,0.024l-0.029,0.025l-0.028,0.025l-0.029,0.026l-0.027,0.027l-0.027,0.028l-0.026,0.028l-0.026,0.029l-0.024,0.03l-0.025,0.03l-0.023,0.031l-0.023,0.032l-0.022,0.032l-0.021,0.033l-0.021,0.034l-0.02,0.034l-0.019,0.035l-0.018,0.035l-0.017,0.036l-0.017,0.037l-0.016,0.037l-0.014,0.038l-0.014,0.038l-0.013,0.039l-0.012,0.039l-0.011,0.04l-0.01,0.039l-0.009,0.04l-0.008,0.039l-0.006,0.04l-0.006,0.039l-0.005,0.04l-0.003,0.039l-0.003,0.039l-0.002,0.04l-0.001,0.039l0.001,0.039l0.001,0.039l0.002,0.039l0.003,0.038l0.004,0.039l0.005,0.038l0.005,0.038l0.007,0.038l0.008,0.038l0.008,0.038l0.01,0.037l0.01,0.037l0.011,0.036l0.012,0.037l0.013,0.036l0.014,0.035l0.014,0.036l0.016,0.035l0.016,0.034l0.017,0.034l0.018,0.034l0.018,0.033l0.02,0.033l0.02,0.033l0.021,0.031l0.022,0.032l0.022,0.031l0.023,0.03l0.024,0.03l0.025,0.029l0.025,0.029l0.027,0.028l0.026,0.027l0.028,0.027l0.028,0.026l0.029,0.026l0.03,0.025l0.03,0.024l0.031,0.024l0.032,0.022l0.032,0.023l0.033,0.021l0.034,0.02l0.034,0.02l0.035,0.019l0.035,0.018l0.036,0.018l0.037,0.016l0.037,0.016l0.038,0.014l0.038,0.014l0.039,0.013l0.082,0.027l0.081,0.028l0.081,0.028l0.082,0.029l0.161,0.06l0.161,0.063l0.16,0.065l0.159,0.067l0.158,0.069l0.157,0.071l0.156,0.072l0.154,0.072l0.154,0.074l0.152,0.074l0.299,0.149l0.295,0.148l0.073,0.033l0.224,0.113l0.221,0.11l0.22,0.108l0.218,0.105l0.216,0.102l0.107,0.049l0.107,0.048l0.107,0.048l0.106,0.046l0.106,0.045l0.106,0.043l0.105,0.043l0.105,0.04l0.105,0.04l0.105,0.038l0.104,0.036l0.104,0.035l0.104,0.032l0.104,0.032l0.104,0.029l0.104,0.027l0.103,0.026l0.104,0.023l0.104,0.021l0.103,0.02l0.103,0.016l0.104,0.015l0.103,0.012l0.104,0.01l0.103,0.008l0.104,0.005l0.104,0.002l0.104,0l0.104,-0.003l0.104,-0.006l0.104,-0.009l0.105,-0.011l0.105,-0.015l0.105,-0.017l0.053,-0.01l0.052,-0.011l0.053,-0.011l0.053,-0.012l0.053,-0.013l0.053,-0.014l0.053,-0.015l0.053,-0.015l0.053,-0.017l0.054,-0.017l0.053,-0.018l0.053,-0.019l0.054,-0.02l0.054,-0.02l0.054,-0.022l0.053,-0.022l0.054,-0.023l0.055,-0.025l0.054,-0.025l0.054,-0.026l0.055,-0.027l0.054,-0.028l0.055,-0.028l0.055,-0.03l0.054,-0.031l0.056,-0.032l0.055,-0.032l0.055,-0.034l0.055,-0.035l0.056,-0.035l0.056,-0.037l0.056,-0.037l0.056,-0.039l0.056,-0.04l0.056,-0.04l0.056,-0.042l0.114,-0.087l0.114,-0.091l1.957,-1.597l0.031,-0.027l0.031,-0.026l0.03,-0.028l0.028,-0.028l0.029,-0.028l0.027,-0.03l0.026,-0.029l0.026,-0.031l0.024,-0.031l0.024,-0.031l0.023,-0.032l0.022,-0.032l0.021,-0.033l0.021,-0.033l0.019,-0.034l0.019,-0.034l0.017,-0.034l0.017,-0.035l0.016,-0.035l0.015,-0.035l0.014,-0.036l0.014,-0.036l0.012,-0.036l0.012,-0.036l0.01,-0.037l0.01,-0.037l0.009,-0.037l0.008,-0.038l0.007,-0.037l0.006,-0.038l0.005,-0.038l0.005,-0.037l0.003,-0.038l0.003,-0.039l0.001,-0.038l0.001,-0.038l0,-0.038l-0.001,-0.038l-0.002,-0.038l-0.003,-0.039l-0.004,-0.038l-0.004,-0.038l-0.006,-0.038l-0.006,-0.038l-0.008,-0.037l-0.008,-0.038l-0.01,-0.037l-0.01,-0.038l-0.011,-0.037l-0.012,-0.037l-0.013,-0.036l-0.014,-0.037l-0.015,-0.036l-0.016,-0.036l-0.017,-0.035l-0.018,-0.036l-0.018,-0.035l-0.02,-0.034l-0.02,-0.035l-0.022,-0.033l-0.022,-0.034l-0.024,-0.033l-0.024,-0.033l-0.026,-0.032l-0.026,-0.031l-0.027,-0.031l-0.027,-0.03l-0.028,-0.029l-0.029,-0.028l-0.029,-0.027l-0.03,-0.026l-0.03,-0.026l-0.031,-0.024l-0.031,-0.024l-0.032,-0.023l-0.032,-0.022l-0.033,-0.021l-0.033,-0.021l-0.033,-0.019l-0.034,-0.019l-0.035,-0.017l-0.034,-0.017l-0.035,-0.016l-0.036,-0.015l-0.035,-0.014l-0.036,-0.014l-0.037,-0.012l-0.036,-0.012l-0.037,-0.01l-0.037,-0.01l-0.037,-0.009l-0.037,-0.008l-0.037,-0.007l-0.038,-0.006l-0.038,-0.005l-0.038,-0.005l-0.038,-0.003l-0.038,-0.003l-0.038,-0.002l-0.038,0l-0.038,0l-0.038,0.001l-0.038,0.002l-0.039,0.003l-0.038,0.004l-0.038,0.004l-0.038,0.006l-0.037,0.007l-0.038,0.007l-0.038,0.008l-0.037,0.01l-0.037,0.01l-0.037,0.011l-0.037,0.012l-0.037,0.013l-0.036,0.014l-0.036,0.015l-0.036,0.016l-0.036,0.017l-0.035,0.018l-0.035,0.018l-0.035,0.02l-0.034,0.021l-0.034,0.021l-0.033,0.023l-0.033,0.023l-0.033,0.025l-0.032,0.025l-1.957,1.598l-0.04,0.031l-0.041,0.03l-0.041,0.029l-0.042,0.026l-0.042,0.025l-0.042,0.023l-0.043,0.021l-0.044,0.02l-0.043,0.018l-0.044,0.017l-0.045,0.015l-0.045,0.013l-0.045,0.012l-0.046,0.01l-0.047,0.009l-0.046,0.008l-0.047,0.006l-0.048,0.004l-0.048,0.004l-0.048,0.002l-0.049,0l-0.049,0l-0.049,-0.002l-0.05,-0.003l-0.05,-0.005l-0.051,-0.005l-0.051,-0.007l-0.052,-0.008l-0.051,-0.009l-0.053,-0.01l-0.052,-0.011l-0.053,-0.013l-0.054,-0.013l-0.054,-0.014l-0.054,-0.016l-0.054,-0.016l-0.111,-0.035l-0.111,-0.038l-0.114,-0.042l-0.115,-0.045l-0.116,-0.048l-0.117,-0.051l-0.12,-0.053l-0.12,-0.055l-0.122,-0.058l-0.124,-0.059l-0.125,-0.061l-0.126,-0.062l-0.256,-0.129l-0.087,-0.046l-0.336,-0.169l-0.17,-0.085l-0.173,-0.085l-0.175,-0.085l-0.177,-0.084l-0.18,-0.084l-0.182,-0.084l-0.184,-0.082l-0.188,-0.081l-0.19,-0.08l-0.193,-0.077l-0.098,-0.039l-0.098,-0.037l-0.099,-0.037l-0.101,-0.037l-0.1,-0.036l-0.102,-0.035l-0.103,-0.035l-0.103,-0.034l-0.039,-0.012l-0.04,-0.011l-0.039,-0.01l-0.039,-0.008l-0.04,-0.008l-0.039,-0.007l-0.04,-0.006l-0.039,-0.004l-0.039,-0.004l-0.04,-0.003l-0.039,-0.002l-0.039,0l-0.039,0Z" style="fill:#fff;"/><path d="M72.598,58.232c0.836,-0.269 1.732,0.192 1.997,1.029c0.269,0.837 -0.192,1.734 -1.028,2c-0.872,0.282 -1.715,0.707 -2.495,1.099l-0.073,0.034c-2.399,1.205 -4.395,2.175 -6.834,0.186l-1.957,-1.598c-0.68,-0.551 -0.783,-1.554 -0.233,-2.235c0.551,-0.681 1.553,-0.784 2.233,-0.233l1.958,1.598c0.856,0.697 2.003,0.15 3.391,-0.545l0.086,-0.046c0.888,-0.449 1.847,-0.93 2.955,-1.289Z" style="fill:#26a685;fill-rule:nonzero;"/><path d="M73.19,57.157l0.06,0.004l0.064,0.004l0.063,0.007l0.065,0.008l0.062,0.01l0.061,0.011l0.059,0.011l0.062,0.014l0.065,0.017l0.059,0.017l0.056,0.017l0.058,0.019l0.061,0.021l0.057,0.023l0.057,0.023l0.059,0.026l0.055,0.026l0.055,0.028l0.054,0.028l0.057,0.032l0.052,0.031l0.056,0.035l0.047,0.032l0.048,0.032l0.059,0.043l0.047,0.038l0.045,0.035l0.048,0.041l0.046,0.041l0.048,0.044l0.047,0.047l0.043,0.045l0.042,0.046l0.042,0.046l0.04,0.048l0.038,0.049l0.038,0.05l0.037,0.051l0.04,0.059l0.033,0.052l0.032,0.051l0.034,0.06l0.029,0.053l0.032,0.061l0.029,0.063l0.024,0.055l0.024,0.056l0.026,0.065l0.022,0.063l0.022,0.064l0.018,0.063l0.018,0.061l0.016,0.063l0.014,0.063l0.012,0.062l0.012,0.064l0.011,0.071l0.007,0.064l0.006,0.063l0.004,0.064l0.004,0.065l0.001,0.063l0,0.065l-0.002,0.064l-0.003,0.055l-0.005,0.065l-0.007,0.072l-0.009,0.064l-0.008,0.056l-0.011,0.064l-0.013,0.062l-0.013,0.055l-0.015,0.063l-0.018,0.062l-0.016,0.055l-0.021,0.063l-0.021,0.06l-0.024,0.061l-0.023,0.054l-0.022,0.052l-0.028,0.059l-0.03,0.06l-0.028,0.052l-0.028,0.05l-0.034,0.058l-0.031,0.05l-0.037,0.056l-0.034,0.049l-0.035,0.048l-0.042,0.055l-0.038,0.046l-0.038,0.046l-0.042,0.046l-0.042,0.046l-0.044,0.045l-0.046,0.045l-0.047,0.043l-0.046,0.041l-0.048,0.04l-0.051,0.041l-0.05,0.038l-0.053,0.038l-0.052,0.035l-0.055,0.036l-0.056,0.034l-0.054,0.031l-0.058,0.031l-0.055,0.029l-0.062,0.03l-0.059,0.026l-0.061,0.026l-0.06,0.023l-0.061,0.023l-0.055,0.018l-0.079,0.026l-0.073,0.024l-0.073,0.026l-0.071,0.025l-0.148,0.056l-0.146,0.057l-0.148,0.06l-0.148,0.063l-0.147,0.064l-0.148,0.067l-0.148,0.068l-0.147,0.07l-0.148,0.071l-0.147,0.072l-0.296,0.147l-0.309,0.155l-0.073,0.033l-0.21,0.105l-0.224,0.112l-0.226,0.111l-0.226,0.109l-0.223,0.105l-0.114,0.053l-0.114,0.051l-0.112,0.05l-0.114,0.05l-0.115,0.049l-0.116,0.047l-0.114,0.046l-0.116,0.045l-0.114,0.043l-0.116,0.043l-0.119,0.041l-0.117,0.039l-0.117,0.037l-0.119,0.036l-0.121,0.034l-0.119,0.031l-0.122,0.03l-0.123,0.028l-0.122,0.025l-0.123,0.023l-0.125,0.02l-0.124,0.018l-0.126,0.015l-0.127,0.012l-0.128,0.01l-0.129,0.006l-0.129,0.003l-0.129,-0.001l-0.13,-0.003l-0.131,-0.008l-0.131,-0.01l-0.131,-0.015l-0.134,-0.018l-0.128,-0.022l-0.07,-0.013l-0.068,-0.013l-0.067,-0.015l-0.067,-0.016l-0.064,-0.015l-0.067,-0.018l-0.068,-0.019l-0.067,-0.019l-0.066,-0.021l-0.065,-0.021l-0.067,-0.022l-0.068,-0.024l-0.065,-0.024l-0.066,-0.025l-0.066,-0.027l-0.068,-0.028l-0.068,-0.029l-0.063,-0.029l-0.066,-0.03l-0.068,-0.033l-0.065,-0.032l-0.065,-0.033l-0.067,-0.036l-0.065,-0.035l-0.067,-0.037l-0.066,-0.038l-0.064,-0.039l-0.065,-0.039l-0.068,-0.042l-0.066,-0.043l-0.062,-0.041l-0.065,-0.043l-0.068,-0.047l-0.065,-0.047l-0.063,-0.045l-0.068,-0.05l-0.128,-0.099l-0.126,-0.1l-1.965,-1.605l-0.044,-0.036l-0.048,-0.042l-0.051,-0.046l-0.049,-0.048l-0.044,-0.045l-0.045,-0.049l-0.044,-0.05l-0.039,-0.046l-0.039,-0.048l-0.041,-0.054l-0.037,-0.052l-0.038,-0.055l-0.036,-0.056l-0.031,-0.051l-0.033,-0.056l-0.031,-0.057l-0.027,-0.053l-0.025,-0.052l-0.028,-0.059l-0.028,-0.067l-0.02,-0.052l-0.02,-0.054l-0.022,-0.061l-0.02,-0.063l-0.017,-0.061l-0.016,-0.062l-0.013,-0.055l-0.014,-0.063l-0.011,-0.063l-0.01,-0.054l-0.008,-0.064l-0.008,-0.064l-0.005,-0.063l-0.004,-0.055l-0.004,-0.064l-0.001,-0.072l0.001,-0.056l0.001,-0.055l0.004,-0.072l0.005,-0.055l0.005,-0.064l0.009,-0.064l0.007,-0.055l0.012,-0.071l0.014,-0.063l0.012,-0.054l0.015,-0.063l0.017,-0.061l0.016,-0.054l0.02,-0.061l0.024,-0.069l0.024,-0.061l0.022,-0.052l0.026,-0.06l0.028,-0.057l0.025,-0.053l0.031,-0.059l0.036,-0.063l0.034,-0.056l0.032,-0.051l0.038,-0.055l0.037,-0.053l0.039,-0.052l0.043,-0.055l0.042,-0.051l0.044,-0.049l0.044,-0.049l0.046,-0.047l0.047,-0.046l0.051,-0.048l0.046,-0.039l0.046,-0.04l0.054,-0.043l0.052,-0.04l0.05,-0.035l0.05,-0.035l0.058,-0.038l0.056,-0.034l0.056,-0.032l0.05,-0.027l0.054,-0.029l0.062,-0.03l0.056,-0.025l0.056,-0.024l0.058,-0.023l0.058,-0.022l0.061,-0.021l0.061,-0.019l0.057,-0.016l0.06,-0.017l0.064,-0.015l0.059,-0.012l0.059,-0.011l0.062,-0.011l0.064,-0.008l0.059,-0.007l0.06,-0.006l0.064,-0.004l0.063,-0.003l0.06,-0.001l0.06,0l0.063,0.002l0.064,0.003l0.063,0.005l0.06,0.006l0.064,0.008l0.063,0.01l0.058,0.01l0.06,0.012l0.061,0.013l0.066,0.016l0.059,0.017l0.059,0.018l0.062,0.02l0.059,0.021l0.061,0.024l0.06,0.025l0.053,0.023l0.06,0.028l0.062,0.031l0.054,0.029l0.053,0.03l0.056,0.034l0.059,0.037l0.053,0.036l0.057,0.041l0.051,0.039l0.045,0.035l1.96,1.599l0.021,0.016l0.014,0.011l0.013,0.009l0.013,0.008l0.011,0.007l0.011,0.005l0.013,0.007l0.012,0.005l0.009,0.004l0.012,0.005l0.014,0.004l0.01,0.003l0.014,0.004l0.015,0.003l0.015,0.003l0.015,0.003l0.014,0.001l0.02,0.002l0.02,0.002l0.021,0.001l0.022,0l0.023,0l0.023,-0.001l0.025,-0.002l0.027,-0.003l0.029,-0.003l0.031,-0.004l0.032,-0.005l0.032,-0.005l0.032,-0.006l0.036,-0.008l0.038,-0.009l0.037,-0.009l0.039,-0.011l0.038,-0.01l0.04,-0.012l0.09,-0.029l0.09,-0.031l0.095,-0.035l0.097,-0.038l0.103,-0.043l0.104,-0.044l0.107,-0.048l0.113,-0.052l0.114,-0.053l0.116,-0.055l0.245,-0.12l0.241,-0.121l0.085,-0.045l0.348,-0.175l0.175,-0.088l0.178,-0.088l0.18,-0.087l0.184,-0.088l0.187,-0.088l0.191,-0.087l0.195,-0.088l0.198,-0.085l0.201,-0.084l0.205,-0.083l0.105,-0.041l0.105,-0.04l0.108,-0.041l0.108,-0.039l0.106,-0.038l0.11,-0.038l0.112,-0.038l0.116,-0.038l0.059,-0.018l0.067,-0.019l0.062,-0.015l0.061,-0.015l0.068,-0.013l0.063,-0.011l0.067,-0.01l0.064,-0.008l0.059,-0.005l0.068,-0.006l0.064,-0.002l0.06,-0.002l0.069,0l0.064,0.002Zm-0.159,0.999l-0.039,0.002l-0.04,0.003l-0.039,0.004l-0.039,0.004l-0.04,0.006l-0.039,0.007l-0.04,0.008l-0.039,0.009l-0.04,0.01l-0.039,0.011l-0.039,0.012l-0.103,0.034l-0.103,0.035l-0.102,0.035l-0.101,0.036l-0.1,0.037l-0.099,0.037l-0.098,0.037l-0.098,0.039l-0.193,0.078l-0.191,0.079l-0.187,0.081l-0.185,0.083l-0.182,0.083l-0.18,0.084l-0.177,0.085l-0.175,0.086l-0.173,0.085l-0.171,0.085l-0.337,0.17l-0.086,0.046l-0.258,0.128l-0.251,0.124l-0.124,0.059l-0.122,0.057l-0.121,0.055l-0.119,0.053l-0.118,0.051l-0.116,0.048l-0.115,0.045l-0.113,0.041l-0.112,0.039l-0.11,0.035l-0.055,0.016l-0.054,0.016l-0.054,0.014l-0.053,0.013l-0.053,0.013l-0.053,0.011l-0.052,0.01l-0.052,0.009l-0.051,0.008l-0.051,0.007l-0.051,0.006l-0.05,0.004l-0.05,0.003l-0.049,0.002l-0.049,0.001l-0.049,-0.001l-0.048,-0.002l-0.048,-0.003l-0.047,-0.004l-0.047,-0.006l-0.047,-0.008l-0.046,-0.009l-0.046,-0.01l-0.045,-0.012l-0.045,-0.013l-0.045,-0.015l-0.044,-0.017l-0.043,-0.018l-0.044,-0.02l-0.043,-0.021l-0.042,-0.023l-0.042,-0.025l-0.042,-0.026l-0.041,-0.028l-0.041,-0.03l-0.04,-0.032l-1.958,-1.598l-0.032,-0.025l-0.032,-0.024l-0.033,-0.024l-0.034,-0.022l-0.034,-0.022l-0.034,-0.02l-0.034,-0.02l-0.035,-0.019l-0.036,-0.018l-0.035,-0.016l-0.036,-0.016l-0.036,-0.015l-0.037,-0.014l-0.036,-0.013l-0.037,-0.012l-0.037,-0.012l-0.037,-0.01l-0.038,-0.009l-0.037,-0.009l-0.038,-0.007l-0.038,-0.007l-0.038,-0.005l-0.038,-0.005l-0.038,-0.004l-0.038,-0.003l-0.038,-0.002l-0.038,-0.001l-0.039,0l-0.038,0.001l-0.038,0.002l-0.038,0.002l-0.038,0.004l-0.038,0.004l-0.037,0.005l-0.038,0.006l-0.037,0.007l-0.038,0.008l-0.037,0.009l-0.037,0.01l-0.036,0.011l-0.037,0.011l-0.036,0.013l-0.036,0.013l-0.036,0.014l-0.035,0.015l-0.035,0.016l-0.035,0.017l-0.034,0.018l-0.034,0.018l-0.034,0.02l-0.033,0.02l-0.032,0.021l-0.033,0.022l-0.031,0.023l-0.032,0.024l-0.031,0.025l-0.03,0.025l-0.03,0.026l-0.029,0.028l-0.028,0.028l-0.028,0.029l-0.028,0.029l-0.027,0.031l-0.026,0.032l-0.025,0.032l-0.024,0.032l-0.024,0.033l-0.022,0.034l-0.022,0.034l-0.02,0.034l-0.02,0.035l-0.019,0.034l-0.017,0.036l-0.017,0.035l-0.016,0.036l-0.015,0.036l-0.014,0.037l-0.013,0.037l-0.012,0.036l-0.011,0.038l-0.01,0.037l-0.01,0.037l-0.008,0.038l-0.008,0.038l-0.006,0.038l-0.006,0.038l-0.005,0.038l-0.003,0.038l-0.003,0.038l-0.002,0.038l-0.001,0.038l0,0.038l0,0.039l0.002,0.038l0.003,0.038l0.003,0.038l0.004,0.038l0.006,0.038l0.006,0.037l0.007,0.038l0.008,0.037l0.009,0.037l0.01,0.037l0.01,0.037l0.012,0.036l0.012,0.037l0.013,0.036l0.015,0.035l0.015,0.036l0.016,0.035l0.016,0.035l0.018,0.034l0.019,0.034l0.019,0.033l0.02,0.034l0.022,0.032l0.022,0.033l0.023,0.031l0.023,0.032l0.025,0.031l0.025,0.03l0.027,0.03l0.027,0.029l0.028,0.029l0.029,0.028l0.03,0.027l0.03,0.027l0.032,0.026l1.957,1.598l0.114,0.091l0.113,0.086l0.057,0.042l0.056,0.041l0.056,0.04l0.056,0.039l0.056,0.037l0.056,0.037l0.055,0.036l0.056,0.034l0.055,0.034l0.055,0.033l0.055,0.031l0.055,0.031l0.055,0.03l0.055,0.029l0.054,0.028l0.055,0.027l0.054,0.026l0.054,0.025l0.055,0.024l0.054,0.023l0.054,0.023l0.053,0.021l0.054,0.021l0.054,0.02l0.053,0.019l0.054,0.018l0.053,0.017l0.053,0.016l0.053,0.016l0.054,0.014l0.053,0.014l0.052,0.013l0.053,0.013l0.053,0.011l0.053,0.011l0.052,0.01l0.106,0.017l0.104,0.015l0.105,0.011l0.105,0.009l0.104,0.005l0.104,0.003l0.104,0.001l0.104,-0.003l0.103,-0.005l0.104,-0.007l0.103,-0.01l0.104,-0.013l0.103,-0.014l0.104,-0.017l0.103,-0.019l0.104,-0.022l0.103,-0.023l0.104,-0.026l0.104,-0.027l0.104,-0.029l0.103,-0.032l0.105,-0.033l0.104,-0.034l0.104,-0.037l0.105,-0.038l0.105,-0.039l0.105,-0.041l0.105,-0.042l0.106,-0.044l0.106,-0.045l0.106,-0.046l0.107,-0.047l0.106,-0.049l0.108,-0.049l0.216,-0.102l0.217,-0.105l0.22,-0.108l0.221,-0.11l0.224,-0.112l0.073,-0.034l0.295,-0.148l0.301,-0.149l0.153,-0.075l0.153,-0.073l0.155,-0.074l0.156,-0.072l0.157,-0.07l0.158,-0.07l0.159,-0.067l0.16,-0.065l0.161,-0.063l0.161,-0.061l0.082,-0.029l0.081,-0.028l0.081,-0.028l0.082,-0.027l0.039,-0.013l0.038,-0.014l0.038,-0.014l0.037,-0.016l0.037,-0.016l0.036,-0.018l0.036,-0.018l0.034,-0.019l0.035,-0.02l0.033,-0.02l0.033,-0.021l0.032,-0.023l0.032,-0.022l0.031,-0.024l0.031,-0.024l0.029,-0.025l0.029,-0.026l0.029,-0.026l0.027,-0.027l0.027,-0.027l0.026,-0.028l0.026,-0.029l0.025,-0.029l0.024,-0.03l0.023,-0.03l0.022,-0.031l0.022,-0.032l0.021,-0.031l0.02,-0.033l0.02,-0.033l0.019,-0.033l0.017,-0.034l0.017,-0.034l0.017,-0.034l0.015,-0.035l0.015,-0.036l0.013,-0.035l0.013,-0.036l0.012,-0.037l0.011,-0.036l0.011,-0.037l0.009,-0.037l0.009,-0.038l0.007,-0.038l0.007,-0.038l0.006,-0.038l0.005,-0.038l0.004,-0.039l0.003,-0.038l0.002,-0.039l0.001,-0.039l0,-0.039l-0.001,-0.039l-0.002,-0.04l-0.003,-0.039l-0.003,-0.039l-0.005,-0.04l-0.006,-0.039l-0.007,-0.04l-0.008,-0.039l-0.009,-0.04l-0.01,-0.039l-0.011,-0.04l-0.012,-0.039l-0.013,-0.039l-0.013,-0.038l-0.015,-0.038l-0.016,-0.037l-0.016,-0.037l-0.017,-0.036l-0.019,-0.035l-0.018,-0.035l-0.02,-0.035l-0.021,-0.033l-0.021,-0.033l-0.022,-0.033l-0.023,-0.031l-0.023,-0.031l-0.024,-0.031l-0.025,-0.029l-0.026,-0.03l-0.026,-0.028l-0.027,-0.028l-0.027,-0.026l-0.028,-0.027l-0.029,-0.025l-0.029,-0.025l-0.03,-0.024l-0.03,-0.023l-0.031,-0.023l-0.031,-0.022l-0.032,-0.021l-0.033,-0.02l-0.033,-0.02l-0.033,-0.018l-0.033,-0.018l-0.035,-0.017l-0.034,-0.016l-0.035,-0.016l-0.035,-0.014l-0.036,-0.014l-0.036,-0.013l-0.036,-0.012l-0.037,-0.011l-0.037,-0.011l-0.037,-0.009l-0.037,-0.008l-0.038,-0.008l-0.038,-0.007l-0.038,-0.006l-0.038,-0.004l-0.039,-0.004l-0.038,-0.003l-0.039,-0.002l-0.039,-0.002l-0.039,0l-0.039,0.001Z" style="fill:#fff;"/></g><g><path d="M57.537,96.772l11.178,0" style="fill:none;stroke:#26a685;stroke-width:2.5px;stroke-miterlimit:2;"/><path d="M59.314,101.438l7.624,0" style="fill:none;stroke:#26a685;stroke-width:2.5px;stroke-miterlimit:2;"/><path d="M69.459,92.041c0,-6.871 12.667,-12.434 12.667,-26.184c0,-5.353 -2,-9.447 -4.912,-12.383c-3.927,-3.959 -9.513,-5.813 -14.088,-5.813c-7.968,0 -19,6.635 -19,18.196c0,13.787 12.667,19.333 12.667,26.184c0,0.242 12.666,0.066 12.666,0Z" style="fill:none;stroke:#26a685;stroke-width:3.22px;"/><g><path d="M63.126,37.004l0,4.343" style="fill:none;stroke:#26a685;stroke-width:2.5px;stroke-miterlimit:2;"/><path d="M46.454,41.475l2.169,3.762" style="fill:none;stroke:#26a685;stroke-width:2.5px;stroke-miterlimit:2;"/><path d="M79.798,41.475l-2.17,3.762" style="fill:none;stroke:#26a685;stroke-width:2.5px;stroke-miterlimit:2;"/></g></g></g></g><circle cx="62" cy="62" r="53.5" style="fill:none;stroke:#fff;stroke-width:4px;"/></g></svg>