<?xml version="1.0" encoding="UTF-8" standalone="no"?><!DOCTYPE svg PUBLIC "-//W3C//DTD SVG 1.1//EN" "http://www.w3.org/Graphics/SVG/1.1/DTD/svg11.dtd"><svg width="100%" height="100%" viewBox="0 0 124 124" version="1.1" xmlns="http://www.w3.org/2000/svg" xmlns:xlink="http://www.w3.org/1999/xlink" xml:space="preserve" xmlns:serif="http://www.serif.com/" style="fill-rule:evenodd;clip-rule:evenodd;stroke-linecap:round;stroke-linejoin:round;stroke-miterlimit:1.5;"><g><circle cx="62" cy="62" r="60" style="fill:#fff;stroke:#8c8c8c;stroke-width:4px;"/><circle cx="62" cy="62" r="53.5" style="fill:#fff;"/><clipPath id="_clip1"><circle cx="62" cy="62" r="53.5"/></clipPath><g clip-path="url(#_clip1)"><g><path d="M21.977,83.931c0.887,3.232 3.252,7.587 3.607,8.257c0.433,1.005 0.709,2.05 0.808,3.134l3.33,32.636c0.197,1.951 1.833,3.429 3.804,3.429l5.755,0c1.97,0 3.606,-1.478 3.803,-3.429l3.331,-32.636c0.118,-1.104 0.394,-2.188 0.847,-3.193c0.395,-0.906 -0.019,-1.951 -0.906,-2.345c-0.907,-0.394 -1.951,0.02 -2.345,0.907c-0.592,1.359 -0.986,2.798 -1.124,4.276l-3.33,32.636c-0.02,0.119 -0.119,0.217 -0.237,0.217l-5.755,0c-0.118,0 -0.236,-0.098 -0.236,-0.217l-3.37,-32.656c-0.158,-1.478 -0.532,-2.916 -1.123,-4.276c-0.02,-0.059 -0.04,-0.099 -0.079,-0.158c-0.02,-0.039 -2.503,-4.513 -3.331,-7.528c-0.907,-3.37 -1.163,-10.702 -0.414,-12.002c0.591,-0.592 0.848,-0.828 1.459,-1.281c1.556,-1.143 3.35,-2.07 4.513,-2.622l3.981,5.479c0.335,0.453 0.867,0.729 1.438,0.729c0.572,0 1.104,-0.276 1.439,-0.729l4.828,-6.641c0.572,-0.789 0.395,-1.912 -0.394,-2.503c-0.788,-0.572 -1.911,-0.394 -2.503,0.394l-3.389,4.651l-3.351,-4.631c-0.473,-0.67 -1.36,-0.907 -2.108,-0.611c-0.138,0.059 -3.646,1.478 -6.563,3.626c-0.828,0.611 -1.222,0.985 -1.912,1.675c-2.522,2.523 -1.123,13.007 -0.473,15.412Z" style="fill:#8c8c8c;fill-rule:nonzero;"/><path d="M36.246,60.892l0.335,0c2.286,-0.059 4.217,-0.887 5.597,-2.444c2.936,-3.311 2.522,-8.829 2.444,-9.519c-0.296,-6.089 -4.533,-8.237 -8.061,-8.237l-0.315,0c-3.528,0 -7.746,2.167 -8.061,8.237c-0.059,0.69 -0.493,6.208 2.444,9.519c1.399,1.557 3.331,2.405 5.617,2.444Zm-4.494,-11.647l0,-0.118c0.197,-4.257 2.897,-4.888 4.494,-4.888l0.295,0c1.597,0 4.297,0.631 4.494,4.888l0,0.098c0.138,1.261 0.098,4.947 -1.577,6.839c-0.729,0.827 -1.734,1.241 -3.055,1.241l-0.039,0c-1.321,-0.019 -2.326,-0.414 -3.055,-1.241c-1.655,-1.873 -1.675,-5.558 -1.557,-6.819Z" style="fill:#8c8c8c;fill-rule:nonzero;"/><path d="M77.632,89.764c-0.906,0.394 -1.32,1.459 -0.906,2.345c0.453,1.025 0.729,2.09 0.847,3.193l3.331,32.636c0.197,1.952 1.833,3.43 3.803,3.43l5.755,0c1.971,0 3.607,-1.478 3.804,-3.43l3.33,-32.636c0.119,-1.084 0.375,-2.128 0.808,-3.133c0.355,-0.651 2.74,-5.006 3.607,-8.258c0.65,-2.404 2.069,-12.889 -0.453,-15.412c-0.69,-0.689 -1.084,-1.064 -1.912,-1.675c-2.917,-2.148 -6.405,-3.567 -6.563,-3.626c-0.768,-0.315 -1.635,-0.059 -2.108,0.611l-3.39,4.651l-3.41,-4.631c-0.571,-0.808 -1.695,-0.966 -2.503,-0.395c-0.788,0.572 -0.965,1.695 -0.394,2.503l4.829,6.642c0.335,0.453 0.867,0.729 1.438,0.729c0.572,0 1.104,-0.276 1.439,-0.729l3.981,-5.479c1.163,0.552 2.956,1.478 4.513,2.621c0.591,0.434 0.848,0.69 1.459,1.281c0.748,1.301 0.492,8.632 -0.414,12.002c-0.828,3.016 -3.311,7.489 -3.331,7.529c-0.02,0.039 -0.059,0.098 -0.079,0.158c-0.591,1.359 -0.985,2.798 -1.123,4.276l-3.331,32.636c-0.019,0.119 -0.118,0.217 -0.236,0.217l-5.755,0c-0.118,0 -0.236,-0.098 -0.236,-0.217l-3.331,-32.636c-0.158,-1.478 -0.532,-2.917 -1.123,-4.276c-0.395,-0.927 -1.439,-1.321 -2.346,-0.927Z" style="fill:#8c8c8c;fill-rule:nonzero;"/><path d="M87.388,60.892l0.335,0c2.286,-0.039 4.217,-0.887 5.617,-2.444c2.936,-3.311 2.522,-8.829 2.443,-9.519c-0.295,-6.089 -4.513,-8.237 -8.06,-8.237l-0.316,0c-3.527,0 -7.745,2.167 -8.06,8.237c-0.059,0.69 -0.493,6.208 2.444,9.519c1.379,1.557 3.311,2.385 5.597,2.444Zm-4.494,-11.647l0,-0.118c0.197,-4.257 2.897,-4.888 4.494,-4.888l0.295,0c1.597,0 4.297,0.631 4.494,4.888l0,0.098c0.138,1.261 0.098,4.947 -1.577,6.839c-0.729,0.827 -1.734,1.222 -3.055,1.241l-0.039,0c-1.32,-0.019 -2.326,-0.414 -3.055,-1.241c-1.655,-1.873 -1.675,-5.558 -1.557,-6.819Z" style="fill:#8c8c8c;fill-rule:nonzero;"/><path d="M47.184,54.533c-2.661,2.661 -1.163,13.757 -0.454,16.319c0.946,3.448 3.469,8.1 3.843,8.77c0.473,1.084 0.769,2.207 0.887,3.37l3.548,34.784c0.197,2.03 1.892,3.548 3.941,3.548l6.129,0c2.03,0 3.725,-1.538 3.942,-3.548l3.547,-34.784c0.119,-1.163 0.414,-2.306 0.887,-3.37c0.375,-0.69 2.897,-5.322 3.843,-8.77c0.69,-2.562 2.208,-13.658 -0.453,-16.319c-0.729,-0.729 -1.143,-1.123 -2.01,-1.773c-3.094,-2.286 -6.819,-3.784 -6.977,-3.863c-0.768,-0.315 -1.636,-0.059 -2.109,0.611l-3.764,5.104l-3.705,-5.104c-0.473,-0.67 -1.36,-0.907 -2.109,-0.611c-0.157,0.059 -3.862,1.577 -6.976,3.863c-0.867,0.65 -1.301,1.044 -2.01,1.773Zm2.562,2.484c0.65,-0.651 0.926,-0.907 1.576,-1.38c1.695,-1.261 3.666,-2.266 4.927,-2.858l4.297,5.913c0.335,0.453 0.867,0.729 1.438,0.729c0.572,0 1.104,-0.276 1.439,-0.729l4.296,-5.913c1.242,0.592 3.213,1.597 4.927,2.858c0.651,0.473 0.926,0.729 1.577,1.38c0.828,1.34 0.571,9.243 -0.434,12.889c-0.887,3.232 -3.527,8.001 -3.567,8.04c-0.02,0.04 -0.059,0.099 -0.079,0.158c-0.63,1.439 -1.044,2.956 -1.202,4.533l-3.547,34.784c-0.02,0.197 -0.178,0.335 -0.375,0.335l-6.129,0c-0.197,0 -0.355,-0.138 -0.374,-0.335l-3.548,-34.784c-0.157,-1.557 -0.552,-3.094 -1.202,-4.533c-0.02,-0.059 -0.039,-0.098 -0.079,-0.158c-0.02,-0.039 -2.68,-4.828 -3.567,-8.06c-0.946,-3.626 -1.202,-11.529 -0.374,-12.869Z" style="fill:#26a685;fill-rule:nonzero;"/><path d="M61.807,46.197l0.355,0c2.443,-0.039 4.414,-0.907 5.892,-2.582c3.114,-3.488 2.641,-9.361 2.582,-10.07c-0.315,-6.406 -4.75,-8.672 -8.474,-8.672l-0.355,0c-3.705,0 -8.159,2.266 -8.475,8.672c-0.059,0.709 -0.532,6.562 2.582,10.051c1.478,1.675 3.469,2.542 5.893,2.601Zm-4.907,-12.317l0,-0.119c0.216,-4.808 3.508,-5.321 4.907,-5.321l0.335,0c1.399,0 4.69,0.513 4.907,5.321l0,0.099c0.138,1.36 0.118,5.341 -1.695,7.371c-0.808,0.906 -1.911,1.359 -3.35,1.359l-0.059,0c-1.439,-0.019 -2.543,-0.453 -3.351,-1.359c-1.813,-2.011 -1.832,-5.992 -1.694,-7.351Z" style="fill:#26a685;fill-rule:nonzero;"/></g></g></g></svg>